# https://github.com/mikedh/trimesh

o spine_0
v 0.00000000 0.00000000 -1.25000000 0.30980392 0.83921569 0.81568627
v 0.06000000 0.00000000 -1.25000000 0.30980392 0.83921569 0.81568627
v 0.06000000 0.00000000 1.25000000 0.30980392 0.83921569 0.81568627
v 0.00000000 0.00000000 1.25000000 0.30980392 0.83921569 0.81568627
v 0.05543277 0.02296101 -1.25000000 0.30980392 0.83921569 0.81568627
v 0.05543277 0.02296101 1.25000000 0.30980392 0.83921569 0.81568627
v 0.04242641 0.04242641 -1.25000000 0.30980392 0.83921569 0.81568627
v 0.04242641 0.04242641 1.25000000 0.30980392 0.83921569 0.81568627
v 0.02296101 0.05543277 -1.25000000 0.30980392 0.83921569 0.81568627
v 0.02296101 0.05543277 1.25000000 0.30980392 0.83921569 0.81568627
v 0.00000000 0.06000000 -1.25000000 0.30980392 0.83921569 0.81568627
v 0.00000000 0.06000000 1.25000000 0.30980392 0.83921569 0.81568627
v -0.02296101 0.05543277 -1.25000000 0.30980392 0.83921569 0.81568627
v -0.02296101 0.05543277 1.25000000 0.30980392 0.83921569 0.81568627
v -0.04242641 0.04242641 -1.25000000 0.30980392 0.83921569 0.81568627
v -0.04242641 0.04242641 1.25000000 0.30980392 0.83921569 0.81568627
v -0.05543277 0.02296101 -1.25000000 0.30980392 0.83921569 0.81568627
v -0.05543277 0.02296101 1.25000000 0.30980392 0.83921569 0.81568627
v -0.06000000 0.00000000 -1.25000000 0.30980392 0.83921569 0.81568627
v -0.06000000 0.00000000 1.25000000 0.30980392 0.83921569 0.81568627
v -0.05543277 -0.02296101 -1.25000000 0.30980392 0.83921569 0.81568627
v -0.05543277 -0.02296101 1.25000000 0.30980392 0.83921569 0.81568627
v -0.04242641 -0.04242641 -1.25000000 0.30980392 0.83921569 0.81568627
v -0.04242641 -0.04242641 1.25000000 0.30980392 0.83921569 0.81568627
v -0.02296101 -0.05543277 -1.25000000 0.30980392 0.83921569 0.81568627
v -0.02296101 -0.05543277 1.25000000 0.30980392 0.83921569 0.81568627
v -0.00000000 -0.06000000 -1.25000000 0.30980392 0.83921569 0.81568627
v -0.00000000 -0.06000000 1.25000000 0.30980392 0.83921569 0.81568627
v 0.02296101 -0.05543277 -1.25000000 0.30980392 0.83921569 0.81568627
v 0.02296101 -0.05543277 1.25000000 0.30980392 0.83921569 0.81568627
v 0.04242641 -0.04242641 -1.25000000 0.30980392 0.83921569 0.81568627
v 0.04242641 -0.04242641 1.25000000 0.30980392 0.83921569 0.81568627
v 0.05543277 -0.02296101 -1.25000000 0.30980392 0.83921569 0.81568627
v 0.05543277 -0.02296101 1.25000000 0.30980392 0.83921569 0.81568627
f 2 1 5
f 2 5 3
f 3 5 6
f 3 6 4
f 5 1 7
f 5 7 6
f 6 7 8
f 6 8 4
f 7 1 9
f 7 9 8
f 8 9 10
f 8 10 4
f 9 1 11
f 9 11 10
f 10 11 12
f 10 12 4
f 11 1 13
f 11 13 12
f 12 13 14
f 12 14 4
f 13 1 15
f 13 15 14
f 14 15 16
f 14 16 4
f 15 1 17
f 15 17 16
f 16 17 18
f 16 18 4
f 17 1 19
f 17 19 18
f 18 19 20
f 18 20 4
f 19 1 21
f 19 21 20
f 20 21 22
f 20 22 4
f 21 1 23
f 21 23 22
f 22 23 24
f 22 24 4
f 23 1 25
f 23 25 24
f 24 25 26
f 24 26 4
f 25 1 27
f 25 27 26
f 26 27 28
f 26 28 4
f 27 1 29
f 27 29 28
f 28 29 30
f 28 30 4
f 29 1 31
f 29 31 30
f 30 31 32
f 30 32 4
f 31 1 33
f 31 33 32
f 32 33 34
f 32 34 4
f 33 1 2
f 33 2 34
f 34 2 3
f 34 3 4

o drum_0_1
v 0.70000000 0.00000000 -1.23000000 0.32941176 0.81176471 0.48627451
v 1.00000000 0.00000000 -1.23000000 0.32941176 0.81176471 0.48627451
v 1.00000000 0.00000000 -0.77000000 0.32941176 0.81176471 0.48627451
v 0.70000000 0.00000000 -0.77000000 0.32941176 0.81176471 0.48627451
v 0.99247837 0.06675628 -1.23000000 0.32941176 0.81176471 0.48627451
v 0.99247837 0.06675628 -0.77000000 0.32941176 0.81176471 0.48627451
v 0.97029066 0.13016512 -1.23000000 0.32941176 0.81176471 0.48627451
v 0.97029066 0.13016512 -0.77000000 0.32941176 0.81176471 0.48627451
v 0.93454944 0.18704694 -1.23000000 0.32941176 0.81176471 0.48627451
v 0.93454944 0.18704694 -0.77000000 0.32941176 0.81176471 0.48627451
v 0.88704694 0.23454944 -1.23000000 0.32941176 0.81176471 0.48627451
v 0.88704694 0.23454944 -0.77000000 0.32941176 0.81176471 0.48627451
v 0.83016512 0.27029066 -1.23000000 0.32941176 0.81176471 0.48627451
v 0.83016512 0.27029066 -0.77000000 0.32941176 0.81176471 0.48627451
v 0.76675628 0.29247837 -1.23000000 0.32941176 0.81176471 0.48627451
v 0.76675628 0.29247837 -0.77000000 0.32941176 0.81176471 0.48627451
v 0.70000000 0.30000000 -1.23000000 0.32941176 0.81176471 0.48627451
v 0.70000000 0.30000000 -0.77000000 0.32941176 0.81176471 0.48627451
v 0.63324372 0.29247837 -1.23000000 0.32941176 0.81176471 0.48627451
v 0.63324372 0.29247837 -0.77000000 0.32941176 0.81176471 0.48627451
v 0.56983488 0.27029066 -1.23000000 0.32941176 0.81176471 0.48627451
v 0.56983488 0.27029066 -0.77000000 0.32941176 0.81176471 0.48627451
v 0.51295306 0.23454944 -1.23000000 0.32941176 0.81176471 0.48627451
v 0.51295306 0.23454944 -0.77000000 0.32941176 0.81176471 0.48627451
v 0.46545056 0.18704694 -1.23000000 0.32941176 0.81176471 0.48627451
v 0.46545056 0.18704694 -0.77000000 0.32941176 0.81176471 0.48627451
v 0.42970934 0.13016512 -1.23000000 0.32941176 0.81176471 0.48627451
v 0.42970934 0.13016512 -0.77000000 0.32941176 0.81176471 0.48627451
v 0.40752163 0.06675628 -1.23000000 0.32941176 0.81176471 0.48627451
v 0.40752163 0.06675628 -0.77000000 0.32941176 0.81176471 0.48627451
v 0.40000000 0.00000000 -1.23000000 0.32941176 0.81176471 0.48627451
v 0.40000000 0.00000000 -0.77000000 0.32941176 0.81176471 0.48627451
v 0.40752163 -0.06675628 -1.23000000 0.32941176 0.81176471 0.48627451
v 0.40752163 -0.06675628 -0.77000000 0.32941176 0.81176471 0.48627451
v 0.42970934 -0.13016512 -1.23000000 0.32941176 0.81176471 0.48627451
v 0.42970934 -0.13016512 -0.77000000 0.32941176 0.81176471 0.48627451
v 0.46545056 -0.18704694 -1.23000000 0.32941176 0.81176471 0.48627451
v 0.46545056 -0.18704694 -0.77000000 0.32941176 0.81176471 0.48627451
v 0.51295306 -0.23454944 -1.23000000 0.32941176 0.81176471 0.48627451
v 0.51295306 -0.23454944 -0.77000000 0.32941176 0.81176471 0.48627451
v 0.56983488 -0.27029066 -1.23000000 0.32941176 0.81176471 0.48627451
v 0.56983488 -0.27029066 -0.77000000 0.32941176 0.81176471 0.48627451
v 0.63324372 -0.29247837 -1.23000000 0.32941176 0.81176471 0.48627451
v 0.63324372 -0.29247837 -0.77000000 0.32941176 0.81176471 0.48627451
v 0.70000000 -0.30000000 -1.23000000 0.32941176 0.81176471 0.48627451
v 0.70000000 -0.30000000 -0.77000000 0.32941176 0.81176471 0.48627451
v 0.76675628 -0.29247837 -1.23000000 0.32941176 0.81176471 0.48627451
v 0.76675628 -0.29247837 -0.77000000 0.32941176 0.81176471 0.48627451
v 0.83016512 -0.27029066 -1.23000000 0.32941176 0.81176471 0.48627451
v 0.83016512 -0.27029066 -0.77000000 0.32941176 0.81176471 0.48627451
v 0.88704694 -0.23454944 -1.23000000 0.32941176 0.81176471 0.48627451
v 0.88704694 -0.23454944 -0.77000000 0.32941176 0.81176471 0.48627451
v 0.93454944 -0.18704694 -1.23000000 0.32941176 0.81176471 0.48627451
v 0.93454944 -0.18704694 -0.77000000 0.32941176 0.81176471 0.48627451
v 0.97029066 -0.13016512 -1.23000000 0.32941176 0.81176471 0.48627451
v 0.97029066 -0.13016512 -0.77000000 0.32941176 0.81176471 0.48627451
v 0.99247837 -0.06675628 -1.23000000 0.32941176 0.81176471 0.48627451
v 0.99247837 -0.06675628 -0.77000000 0.32941176 0.81176471 0.48627451
f 36 35 39
f 36 39 37
f 37 39 40
f 37 40 38
f 39 35 41
f 39 41 40
f 40 41 42
f 40 42 38
f 41 35 43
f 41 43 42
f 42 43 44
f 42 44 38
f 43 35 45
f 43 45 44
f 44 45 46
f 44 46 38
f 45 35 47
f 45 47 46
f 46 47 48
f 46 48 38
f 47 35 49
f 47 49 48
f 48 49 50
f 48 50 38
f 49 35 51
f 49 51 50
f 50 51 52
f 50 52 38
f 51 35 53
f 51 53 52
f 52 53 54
f 52 54 38
f 53 35 55
f 53 55 54
f 54 55 56
f 54 56 38
f 55 35 57
f 55 57 56
f 56 57 58
f 56 58 38
f 57 35 59
f 57 59 58
f 58 59 60
f 58 60 38
f 59 35 61
f 59 61 60
f 60 61 62
f 60 62 38
f 61 35 63
f 61 63 62
f 62 63 64
f 62 64 38
f 63 35 65
f 63 65 64
f 64 65 66
f 64 66 38
f 65 35 67
f 65 67 66
f 66 67 68
f 66 68 38
f 67 35 69
f 67 69 68
f 68 69 70
f 68 70 38
f 69 35 71
f 69 71 70
f 70 71 72
f 70 72 38
f 71 35 73
f 71 73 72
f 72 73 74
f 72 74 38
f 73 35 75
f 73 75 74
f 74 75 76
f 74 76 38
f 75 35 77
f 75 77 76
f 76 77 78
f 76 78 38
f 77 35 79
f 77 79 78
f 78 79 80
f 78 80 38
f 79 35 81
f 79 81 80
f 80 81 82
f 80 82 38
f 81 35 83
f 81 83 82
f 82 83 84
f 82 84 38
f 83 35 85
f 83 85 84
f 84 85 86
f 84 86 38
f 85 35 87
f 85 87 86
f 86 87 88
f 86 88 38
f 87 35 89
f 87 89 88
f 88 89 90
f 88 90 38
f 89 35 91
f 89 91 90
f 90 91 92
f 90 92 38
f 91 35 36
f 91 36 92
f 92 36 37
f 92 37 38

o strut_0_2
v 0.00000000 0.00000000 -1.00000000 0.90196078 0.67450980 0.42745098
v 0.00000000 0.00000000 -1.03000000 0.90196078 0.67450980 0.42745098
v 0.70000000 0.00000000 -1.03000000 0.90196078 0.67450980 0.42745098
v 0.70000000 0.00000000 -1.00000000 0.90196078 0.67450980 0.42745098
v 0.00000000 0.01763356 -1.02427051 0.90196078 0.67450980 0.42745098
v 0.70000000 0.01763356 -1.02427051 0.90196078 0.67450980 0.42745098
v 0.00000000 0.02853170 -1.00927051 0.90196078 0.67450980 0.42745098
v 0.70000000 0.02853170 -1.00927051 0.90196078 0.67450980 0.42745098
v 0.00000000 0.02853170 -0.99072949 0.90196078 0.67450980 0.42745098
v 0.70000000 0.02853170 -0.99072949 0.90196078 0.67450980 0.42745098
v 0.00000000 0.01763356 -0.97572949 0.90196078 0.67450980 0.42745098
v 0.70000000 0.01763356 -0.97572949 0.90196078 0.67450980 0.42745098
v 0.00000000 0.00000000 -0.97000000 0.90196078 0.67450980 0.42745098
v 0.70000000 0.00000000 -0.97000000 0.90196078 0.67450980 0.42745098
v 0.00000000 -0.01763356 -0.97572949 0.90196078 0.67450980 0.42745098
v 0.70000000 -0.01763356 -0.97572949 0.90196078 0.67450980 0.42745098
v 0.00000000 -0.02853170 -0.99072949 0.90196078 0.67450980 0.42745098
v 0.70000000 -0.02853170 -0.99072949 0.90196078 0.67450980 0.42745098
v 0.00000000 -0.02853170 -1.00927051 0.90196078 0.67450980 0.42745098
v 0.70000000 -0.02853170 -1.00927051 0.90196078 0.67450980 0.42745098
v 0.00000000 -0.01763356 -1.02427051 0.90196078 0.67450980 0.42745098
v 0.70000000 -0.01763356 -1.02427051 0.90196078 0.67450980 0.42745098
f 94 93 97
f 94 97 95
f 95 97 98
f 95 98 96
f 97 93 99
f 97 99 98
f 98 99 100
f 98 100 96
f 99 93 101
f 99 101 100
f 100 101 102
f 100 102 96
f 101 93 103
f 101 103 102
f 102 103 104
f 102 104 96
f 103 93 105
f 103 105 104
f 104 105 106
f 104 106 96
f 105 93 107
f 105 107 106
f 106 107 108
f 106 108 96
f 107 93 109
f 107 109 108
f 108 109 110
f 108 110 96
f 109 93 111
f 109 111 110
f 110 111 112
f 110 112 96
f 111 93 113
f 111 113 112
f 112 113 114
f 112 114 96
f 113 93 94
f 113 94 114
f 114 94 95
f 114 95 96

o drum_1_3
v -0.70000000 0.00000000 -1.23000000 0.32941176 0.81176471 0.48627451
v -0.40000000 0.00000000 -1.23000000 0.32941176 0.81176471 0.48627451
v -0.40000000 0.00000000 -0.77000000 0.32941176 0.81176471 0.48627451
v -0.70000000 0.00000000 -0.77000000 0.32941176 0.81176471 0.48627451
v -0.40752163 0.06675628 -1.23000000 0.32941176 0.81176471 0.48627451
v -0.40752163 0.06675628 -0.77000000 0.32941176 0.81176471 0.48627451
v -0.42970934 0.13016512 -1.23000000 0.32941176 0.81176471 0.48627451
v -0.42970934 0.13016512 -0.77000000 0.32941176 0.81176471 0.48627451
v -0.46545056 0.18704694 -1.23000000 0.32941176 0.81176471 0.48627451
v -0.46545056 0.18704694 -0.77000000 0.32941176 0.81176471 0.48627451
v -0.51295306 0.23454944 -1.23000000 0.32941176 0.81176471 0.48627451
v -0.51295306 0.23454944 -0.77000000 0.32941176 0.81176471 0.48627451
v -0.56983488 0.27029066 -1.23000000 0.32941176 0.81176471 0.48627451
v -0.56983488 0.27029066 -0.77000000 0.32941176 0.81176471 0.48627451
v -0.63324372 0.29247837 -1.23000000 0.32941176 0.81176471 0.48627451
v -0.63324372 0.29247837 -0.77000000 0.32941176 0.81176471 0.48627451
v -0.70000000 0.30000000 -1.23000000 0.32941176 0.81176471 0.48627451
v -0.70000000 0.30000000 -0.77000000 0.32941176 0.81176471 0.48627451
v -0.76675628 0.29247837 -1.23000000 0.32941176 0.81176471 0.48627451
v -0.76675628 0.29247837 -0.77000000 0.32941176 0.81176471 0.48627451
v -0.83016512 0.27029066 -1.23000000 0.32941176 0.81176471 0.48627451
v -0.83016512 0.27029066 -0.77000000 0.32941176 0.81176471 0.48627451
v -0.88704694 0.23454944 -1.23000000 0.32941176 0.81176471 0.48627451
v -0.88704694 0.23454944 -0.77000000 0.32941176 0.81176471 0.48627451
v -0.93454944 0.18704694 -1.23000000 0.32941176 0.81176471 0.48627451
v -0.93454944 0.18704694 -0.77000000 0.32941176 0.81176471 0.48627451
v -0.97029066 0.13016512 -1.23000000 0.32941176 0.81176471 0.48627451
v -0.97029066 0.13016512 -0.77000000 0.32941176 0.81176471 0.48627451
v -0.99247837 0.06675628 -1.23000000 0.32941176 0.81176471 0.48627451
v -0.99247837 0.06675628 -0.77000000 0.32941176 0.81176471 0.48627451
v -1.00000000 0.00000000 -1.23000000 0.32941176 0.81176471 0.48627451
v -1.00000000 0.00000000 -0.77000000 0.32941176 0.81176471 0.48627451
v -0.99247837 -0.06675628 -1.23000000 0.32941176 0.81176471 0.48627451
v -0.99247837 -0.06675628 -0.77000000 0.32941176 0.81176471 0.48627451
v -0.97029066 -0.13016512 -1.23000000 0.32941176 0.81176471 0.48627451
v -0.97029066 -0.13016512 -0.77000000 0.32941176 0.81176471 0.48627451
v -0.93454944 -0.18704694 -1.23000000 0.32941176 0.81176471 0.48627451
v -0.93454944 -0.18704694 -0.77000000 0.32941176 0.81176471 0.48627451
v -0.88704694 -0.23454944 -1.23000000 0.32941176 0.81176471 0.48627451
v -0.88704694 -0.23454944 -0.77000000 0.32941176 0.81176471 0.48627451
v -0.83016512 -0.27029066 -1.23000000 0.32941176 0.81176471 0.48627451
v -0.83016512 -0.27029066 -0.77000000 0.32941176 0.81176471 0.48627451
v -0.76675628 -0.29247837 -1.23000000 0.32941176 0.81176471 0.48627451
v -0.76675628 -0.29247837 -0.77000000 0.32941176 0.81176471 0.48627451
v -0.70000000 -0.30000000 -1.23000000 0.32941176 0.81176471 0.48627451
v -0.70000000 -0.30000000 -0.77000000 0.32941176 0.81176471 0.48627451
v -0.63324372 -0.29247837 -1.23000000 0.32941176 0.81176471 0.48627451
v -0.63324372 -0.29247837 -0.77000000 0.32941176 0.81176471 0.48627451
v -0.56983488 -0.27029066 -1.23000000 0.32941176 0.81176471 0.48627451
v -0.56983488 -0.27029066 -0.77000000 0.32941176 0.81176471 0.48627451
v -0.51295306 -0.23454944 -1.23000000 0.32941176 0.81176471 0.48627451
v -0.51295306 -0.23454944 -0.77000000 0.32941176 0.81176471 0.48627451
v -0.46545056 -0.18704694 -1.23000000 0.32941176 0.81176471 0.48627451
v -0.46545056 -0.18704694 -0.77000000 0.32941176 0.81176471 0.48627451
v -0.42970934 -0.13016512 -1.23000000 0.32941176 0.81176471 0.48627451
v -0.42970934 -0.13016512 -0.77000000 0.32941176 0.81176471 0.48627451
v -0.40752163 -0.06675628 -1.23000000 0.32941176 0.81176471 0.48627451
v -0.40752163 -0.06675628 -0.77000000 0.32941176 0.81176471 0.48627451
f 116 115 119
f 116 119 117
f 117 119 120
f 117 120 118
f 119 115 121
f 119 121 120
f 120 121 122
f 120 122 118
f 121 115 123
f 121 123 122
f 122 123 124
f 122 124 118
f 123 115 125
f 123 125 124
f 124 125 126
f 124 126 118
f 125 115 127
f 125 127 126
f 126 127 128
f 126 128 118
f 127 115 129
f 127 129 128
f 128 129 130
f 128 130 118
f 129 115 131
f 129 131 130
f 130 131 132
f 130 132 118
f 131 115 133
f 131 133 132
f 132 133 134
f 132 134 118
f 133 115 135
f 133 135 134
f 134 135 136
f 134 136 118
f 135 115 137
f 135 137 136
f 136 137 138
f 136 138 118
f 137 115 139
f 137 139 138
f 138 139 140
f 138 140 118
f 139 115 141
f 139 141 140
f 140 141 142
f 140 142 118
f 141 115 143
f 141 143 142
f 142 143 144
f 142 144 118
f 143 115 145
f 143 145 144
f 144 145 146
f 144 146 118
f 145 115 147
f 145 147 146
f 146 147 148
f 146 148 118
f 147 115 149
f 147 149 148
f 148 149 150
f 148 150 118
f 149 115 151
f 149 151 150
f 150 151 152
f 150 152 118
f 151 115 153
f 151 153 152
f 152 153 154
f 152 154 118
f 153 115 155
f 153 155 154
f 154 155 156
f 154 156 118
f 155 115 157
f 155 157 156
f 156 157 158
f 156 158 118
f 157 115 159
f 157 159 158
f 158 159 160
f 158 160 118
f 159 115 161
f 159 161 160
f 160 161 162
f 160 162 118
f 161 115 163
f 161 163 162
f 162 163 164
f 162 164 118
f 163 115 165
f 163 165 164
f 164 165 166
f 164 166 118
f 165 115 167
f 165 167 166
f 166 167 168
f 166 168 118
f 167 115 169
f 167 169 168
f 168 169 170
f 168 170 118
f 169 115 171
f 169 171 170
f 170 171 172
f 170 172 118
f 171 115 116
f 171 116 172
f 172 116 117
f 172 117 118

o strut_1_4
v -0.70000000 0.00000000 -1.00000000 0.90196078 0.67450980 0.42745098
v -0.70000000 0.00000000 -1.03000000 0.90196078 0.67450980 0.42745098
v 0.00000000 0.00000000 -1.03000000 0.90196078 0.67450980 0.42745098
v 0.00000000 0.00000000 -1.00000000 0.90196078 0.67450980 0.42745098
v -0.70000000 0.01763356 -1.02427051 0.90196078 0.67450980 0.42745098
v 0.00000000 0.01763356 -1.02427051 0.90196078 0.67450980 0.42745098
v -0.70000000 0.02853170 -1.00927051 0.90196078 0.67450980 0.42745098
v 0.00000000 0.02853170 -1.00927051 0.90196078 0.67450980 0.42745098
v -0.70000000 0.02853170 -0.99072949 0.90196078 0.67450980 0.42745098
v 0.00000000 0.02853170 -0.99072949 0.90196078 0.67450980 0.42745098
v -0.70000000 0.01763356 -0.97572949 0.90196078 0.67450980 0.42745098
v 0.00000000 0.01763356 -0.97572949 0.90196078 0.67450980 0.42745098
v -0.70000000 0.00000000 -0.97000000 0.90196078 0.67450980 0.42745098
v 0.00000000 0.00000000 -0.97000000 0.90196078 0.67450980 0.42745098
v -0.70000000 -0.01763356 -0.97572949 0.90196078 0.67450980 0.42745098
v 0.00000000 -0.01763356 -0.97572949 0.90196078 0.67450980 0.42745098
v -0.70000000 -0.02853170 -0.99072949 0.90196078 0.67450980 0.42745098
v 0.00000000 -0.02853170 -0.99072949 0.90196078 0.67450980 0.42745098
v -0.70000000 -0.02853170 -1.00927051 0.90196078 0.67450980 0.42745098
v 0.00000000 -0.02853170 -1.00927051 0.90196078 0.67450980 0.42745098
v -0.70000000 -0.01763356 -1.02427051 0.90196078 0.67450980 0.42745098
v 0.00000000 -0.01763356 -1.02427051 0.90196078 0.67450980 0.42745098
f 174 173 177
f 174 177 175
f 175 177 178
f 175 178 176
f 177 173 179
f 177 179 178
f 178 179 180
f 178 180 176
f 179 173 181
f 179 181 180
f 180 181 182
f 180 182 176
f 181 173 183
f 181 183 182
f 182 183 184
f 182 184 176
f 183 173 185
f 183 185 184
f 184 185 186
f 184 186 176
f 185 173 187
f 185 187 186
f 186 187 188
f 186 188 176
f 187 173 189
f 187 189 188
f 188 189 190
f 188 190 176
f 189 173 191
f 189 191 190
f 190 191 192
f 190 192 176
f 191 173 193
f 191 193 192
f 192 193 194
f 192 194 176
f 193 173 174
f 193 174 194
f 194 174 175
f 194 175 176

o drum_2_5
v 0.70000000 0.00000000 -0.83000000 0.32941176 0.81176471 0.48627451
v 1.00000000 0.00000000 -0.83000000 0.32941176 0.81176471 0.48627451
v 1.00000000 0.00000000 -0.37000000 0.32941176 0.81176471 0.48627451
v 0.70000000 0.00000000 -0.37000000 0.32941176 0.81176471 0.48627451
v 0.99247837 0.06675628 -0.83000000 0.32941176 0.81176471 0.48627451
v 0.99247837 0.06675628 -0.37000000 0.32941176 0.81176471 0.48627451
v 0.97029066 0.13016512 -0.83000000 0.32941176 0.81176471 0.48627451
v 0.97029066 0.13016512 -0.37000000 0.32941176 0.81176471 0.48627451
v 0.93454944 0.18704694 -0.83000000 0.32941176 0.81176471 0.48627451
v 0.93454944 0.18704694 -0.37000000 0.32941176 0.81176471 0.48627451
v 0.88704694 0.23454944 -0.83000000 0.32941176 0.81176471 0.48627451
v 0.88704694 0.23454944 -0.37000000 0.32941176 0.81176471 0.48627451
v 0.83016512 0.27029066 -0.83000000 0.32941176 0.81176471 0.48627451
v 0.83016512 0.27029066 -0.37000000 0.32941176 0.81176471 0.48627451
v 0.76675628 0.29247837 -0.83000000 0.32941176 0.81176471 0.48627451
v 0.76675628 0.29247837 -0.37000000 0.32941176 0.81176471 0.48627451
v 0.70000000 0.30000000 -0.83000000 0.32941176 0.81176471 0.48627451
v 0.70000000 0.30000000 -0.37000000 0.32941176 0.81176471 0.48627451
v 0.63324372 0.29247837 -0.83000000 0.32941176 0.81176471 0.48627451
v 0.63324372 0.29247837 -0.37000000 0.32941176 0.81176471 0.48627451
v 0.56983488 0.27029066 -0.83000000 0.32941176 0.81176471 0.48627451
v 0.56983488 0.27029066 -0.37000000 0.32941176 0.81176471 0.48627451
v 0.51295306 0.23454944 -0.83000000 0.32941176 0.81176471 0.48627451
v 0.51295306 0.23454944 -0.37000000 0.32941176 0.81176471 0.48627451
v 0.46545056 0.18704694 -0.83000000 0.32941176 0.81176471 0.48627451
v 0.46545056 0.18704694 -0.37000000 0.32941176 0.81176471 0.48627451
v 0.42970934 0.13016512 -0.83000000 0.32941176 0.81176471 0.48627451
v 0.42970934 0.13016512 -0.37000000 0.32941176 0.81176471 0.48627451
v 0.40752163 0.06675628 -0.83000000 0.32941176 0.81176471 0.48627451
v 0.40752163 0.06675628 -0.37000000 0.32941176 0.81176471 0.48627451
v 0.40000000 0.00000000 -0.83000000 0.32941176 0.81176471 0.48627451
v 0.40000000 0.00000000 -0.37000000 0.32941176 0.81176471 0.48627451
v 0.40752163 -0.06675628 -0.83000000 0.32941176 0.81176471 0.48627451
v 0.40752163 -0.06675628 -0.37000000 0.32941176 0.81176471 0.48627451
v 0.42970934 -0.13016512 -0.83000000 0.32941176 0.81176471 0.48627451
v 0.42970934 -0.13016512 -0.37000000 0.32941176 0.81176471 0.48627451
v 0.46545056 -0.18704694 -0.83000000 0.32941176 0.81176471 0.48627451
v 0.46545056 -0.18704694 -0.37000000 0.32941176 0.81176471 0.48627451
v 0.51295306 -0.23454944 -0.83000000 0.32941176 0.81176471 0.48627451
v 0.51295306 -0.23454944 -0.37000000 0.32941176 0.81176471 0.48627451
v 0.56983488 -0.27029066 -0.83000000 0.32941176 0.81176471 0.48627451
v 0.56983488 -0.27029066 -0.37000000 0.32941176 0.81176471 0.48627451
v 0.63324372 -0.29247837 -0.83000000 0.32941176 0.81176471 0.48627451
v 0.63324372 -0.29247837 -0.37000000 0.32941176 0.81176471 0.48627451
v 0.70000000 -0.30000000 -0.83000000 0.32941176 0.81176471 0.48627451
v 0.70000000 -0.30000000 -0.37000000 0.32941176 0.81176471 0.48627451
v 0.76675628 -0.29247837 -0.83000000 0.32941176 0.81176471 0.48627451
v 0.76675628 -0.29247837 -0.37000000 0.32941176 0.81176471 0.48627451
v 0.83016512 -0.27029066 -0.83000000 0.32941176 0.81176471 0.48627451
v 0.83016512 -0.27029066 -0.37000000 0.32941176 0.81176471 0.48627451
v 0.88704694 -0.23454944 -0.83000000 0.32941176 0.81176471 0.48627451
v 0.88704694 -0.23454944 -0.37000000 0.32941176 0.81176471 0.48627451
v 0.93454944 -0.18704694 -0.83000000 0.32941176 0.81176471 0.48627451
v 0.93454944 -0.18704694 -0.37000000 0.32941176 0.81176471 0.48627451
v 0.97029066 -0.13016512 -0.83000000 0.32941176 0.81176471 0.48627451
v 0.97029066 -0.13016512 -0.37000000 0.32941176 0.81176471 0.48627451
v 0.99247837 -0.06675628 -0.83000000 0.32941176 0.81176471 0.48627451
v 0.99247837 -0.06675628 -0.37000000 0.32941176 0.81176471 0.48627451
f 196 195 199
f 196 199 197
f 197 199 200
f 197 200 198
f 199 195 201
f 199 201 200
f 200 201 202
f 200 202 198
f 201 195 203
f 201 203 202
f 202 203 204
f 202 204 198
f 203 195 205
f 203 205 204
f 204 205 206
f 204 206 198
f 205 195 207
f 205 207 206
f 206 207 208
f 206 208 198
f 207 195 209
f 207 209 208
f 208 209 210
f 208 210 198
f 209 195 211
f 209 211 210
f 210 211 212
f 210 212 198
f 211 195 213
f 211 213 212
f 212 213 214
f 212 214 198
f 213 195 215
f 213 215 214
f 214 215 216
f 214 216 198
f 215 195 217
f 215 217 216
f 216 217 218
f 216 218 198
f 217 195 219
f 217 219 218
f 218 219 220
f 218 220 198
f 219 195 221
f 219 221 220
f 220 221 222
f 220 222 198
f 221 195 223
f 221 223 222
f 222 223 224
f 222 224 198
f 223 195 225
f 223 225 224
f 224 225 226
f 224 226 198
f 225 195 227
f 225 227 226
f 226 227 228
f 226 228 198
f 227 195 229
f 227 229 228
f 228 229 230
f 228 230 198
f 229 195 231
f 229 231 230
f 230 231 232
f 230 232 198
f 231 195 233
f 231 233 232
f 232 233 234
f 232 234 198
f 233 195 235
f 233 235 234
f 234 235 236
f 234 236 198
f 235 195 237
f 235 237 236
f 236 237 238
f 236 238 198
f 237 195 239
f 237 239 238
f 238 239 240
f 238 240 198
f 239 195 241
f 239 241 240
f 240 241 242
f 240 242 198
f 241 195 243
f 241 243 242
f 242 243 244
f 242 244 198
f 243 195 245
f 243 245 244
f 244 245 246
f 244 246 198
f 245 195 247
f 245 247 246
f 246 247 248
f 246 248 198
f 247 195 249
f 247 249 248
f 248 249 250
f 248 250 198
f 249 195 251
f 249 251 250
f 250 251 252
f 250 252 198
f 251 195 196
f 251 196 252
f 252 196 197
f 252 197 198

o strut_2_6
v 0.00000000 0.00000000 -0.60000000 0.90196078 0.67450980 0.42745098
v 0.00000000 0.00000000 -0.63000000 0.90196078 0.67450980 0.42745098
v 0.70000000 0.00000000 -0.63000000 0.90196078 0.67450980 0.42745098
v 0.70000000 0.00000000 -0.60000000 0.90196078 0.67450980 0.42745098
v 0.00000000 0.01763356 -0.62427051 0.90196078 0.67450980 0.42745098
v 0.70000000 0.01763356 -0.62427051 0.90196078 0.67450980 0.42745098
v 0.00000000 0.02853170 -0.60927051 0.90196078 0.67450980 0.42745098
v 0.70000000 0.02853170 -0.60927051 0.90196078 0.67450980 0.42745098
v 0.00000000 0.02853170 -0.59072949 0.90196078 0.67450980 0.42745098
v 0.70000000 0.02853170 -0.59072949 0.90196078 0.67450980 0.42745098
v 0.00000000 0.01763356 -0.57572949 0.90196078 0.67450980 0.42745098
v 0.70000000 0.01763356 -0.57572949 0.90196078 0.67450980 0.42745098
v 0.00000000 0.00000000 -0.57000000 0.90196078 0.67450980 0.42745098
v 0.70000000 0.00000000 -0.57000000 0.90196078 0.67450980 0.42745098
v 0.00000000 -0.01763356 -0.57572949 0.90196078 0.67450980 0.42745098
v 0.70000000 -0.01763356 -0.57572949 0.90196078 0.67450980 0.42745098
v 0.00000000 -0.02853170 -0.59072949 0.90196078 0.67450980 0.42745098
v 0.70000000 -0.02853170 -0.59072949 0.90196078 0.67450980 0.42745098
v 0.00000000 -0.02853170 -0.60927051 0.90196078 0.67450980 0.42745098
v 0.70000000 -0.02853170 -0.60927051 0.90196078 0.67450980 0.42745098
v 0.00000000 -0.01763356 -0.62427051 0.90196078 0.67450980 0.42745098
v 0.70000000 -0.01763356 -0.62427051 0.90196078 0.67450980 0.42745098
f 254 253 257
f 254 257 255
f 255 257 258
f 255 258 256
f 257 253 259
f 257 259 258
f 258 259 260
f 258 260 256
f 259 253 261
f 259 261 260
f 260 261 262
f 260 262 256
f 261 253 263
f 261 263 262
f 262 263 264
f 262 264 256
f 263 253 265
f 263 265 264
f 264 265 266
f 264 266 256
f 265 253 267
f 265 267 266
f 266 267 268
f 266 268 256
f 267 253 269
f 267 269 268
f 268 269 270
f 268 270 256
f 269 253 271
f 269 271 270
f 270 271 272
f 270 272 256
f 271 253 273
f 271 273 272
f 272 273 274
f 272 274 256
f 273 253 254
f 273 254 274
f 274 254 255
f 274 255 256

o drum_3_7
v -0.70000000 0.00000000 -0.83000000 0.32941176 0.81176471 0.48627451
v -0.40000000 0.00000000 -0.83000000 0.32941176 0.81176471 0.48627451
v -0.40000000 0.00000000 -0.37000000 0.32941176 0.81176471 0.48627451
v -0.70000000 0.00000000 -0.37000000 0.32941176 0.81176471 0.48627451
v -0.40752163 0.06675628 -0.83000000 0.32941176 0.81176471 0.48627451
v -0.40752163 0.06675628 -0.37000000 0.32941176 0.81176471 0.48627451
v -0.42970934 0.13016512 -0.83000000 0.32941176 0.81176471 0.48627451
v -0.42970934 0.13016512 -0.37000000 0.32941176 0.81176471 0.48627451
v -0.46545056 0.18704694 -0.83000000 0.32941176 0.81176471 0.48627451
v -0.46545056 0.18704694 -0.37000000 0.32941176 0.81176471 0.48627451
v -0.51295306 0.23454944 -0.83000000 0.32941176 0.81176471 0.48627451
v -0.51295306 0.23454944 -0.37000000 0.32941176 0.81176471 0.48627451
v -0.56983488 0.27029066 -0.83000000 0.32941176 0.81176471 0.48627451
v -0.56983488 0.27029066 -0.37000000 0.32941176 0.81176471 0.48627451
v -0.63324372 0.29247837 -0.83000000 0.32941176 0.81176471 0.48627451
v -0.63324372 0.29247837 -0.37000000 0.32941176 0.81176471 0.48627451
v -0.70000000 0.30000000 -0.83000000 0.32941176 0.81176471 0.48627451
v -0.70000000 0.30000000 -0.37000000 0.32941176 0.81176471 0.48627451
v -0.76675628 0.29247837 -0.83000000 0.32941176 0.81176471 0.48627451
v -0.76675628 0.29247837 -0.37000000 0.32941176 0.81176471 0.48627451
v -0.83016512 0.27029066 -0.83000000 0.32941176 0.81176471 0.48627451
v -0.83016512 0.27029066 -0.37000000 0.32941176 0.81176471 0.48627451
v -0.88704694 0.23454944 -0.83000000 0.32941176 0.81176471 0.48627451
v -0.88704694 0.23454944 -0.37000000 0.32941176 0.81176471 0.48627451
v -0.93454944 0.18704694 -0.83000000 0.32941176 0.81176471 0.48627451
v -0.93454944 0.18704694 -0.37000000 0.32941176 0.81176471 0.48627451
v -0.97029066 0.13016512 -0.83000000 0.32941176 0.81176471 0.48627451
v -0.97029066 0.13016512 -0.37000000 0.32941176 0.81176471 0.48627451
v -0.99247837 0.06675628 -0.83000000 0.32941176 0.81176471 0.48627451
v -0.99247837 0.06675628 -0.37000000 0.32941176 0.81176471 0.48627451
v -1.00000000 0.00000000 -0.83000000 0.32941176 0.81176471 0.48627451
v -1.00000000 0.00000000 -0.37000000 0.32941176 0.81176471 0.48627451
v -0.99247837 -0.06675628 -0.83000000 0.32941176 0.81176471 0.48627451
v -0.99247837 -0.06675628 -0.37000000 0.32941176 0.81176471 0.48627451
v -0.97029066 -0.13016512 -0.83000000 0.32941176 0.81176471 0.48627451
v -0.97029066 -0.13016512 -0.37000000 0.32941176 0.81176471 0.48627451
v -0.93454944 -0.18704694 -0.83000000 0.32941176 0.81176471 0.48627451
v -0.93454944 -0.18704694 -0.37000000 0.32941176 0.81176471 0.48627451
v -0.88704694 -0.23454944 -0.83000000 0.32941176 0.81176471 0.48627451
v -0.88704694 -0.23454944 -0.37000000 0.32941176 0.81176471 0.48627451
v -0.83016512 -0.27029066 -0.83000000 0.32941176 0.81176471 0.48627451
v -0.83016512 -0.27029066 -0.37000000 0.32941176 0.81176471 0.48627451
v -0.76675628 -0.29247837 -0.83000000 0.32941176 0.81176471 0.48627451
v -0.76675628 -0.29247837 -0.37000000 0.32941176 0.81176471 0.48627451
v -0.70000000 -0.30000000 -0.83000000 0.32941176 0.81176471 0.48627451
v -0.70000000 -0.30000000 -0.37000000 0.32941176 0.81176471 0.48627451
v -0.63324372 -0.29247837 -0.83000000 0.32941176 0.81176471 0.48627451
v -0.63324372 -0.29247837 -0.37000000 0.32941176 0.81176471 0.48627451
v -0.56983488 -0.27029066 -0.83000000 0.32941176 0.81176471 0.48627451
v -0.56983488 -0.27029066 -0.37000000 0.32941176 0.81176471 0.48627451
v -0.51295306 -0.23454944 -0.83000000 0.32941176 0.81176471 0.48627451
v -0.51295306 -0.23454944 -0.37000000 0.32941176 0.81176471 0.48627451
v -0.46545056 -0.18704694 -0.83000000 0.32941176 0.81176471 0.48627451
v -0.46545056 -0.18704694 -0.37000000 0.32941176 0.81176471 0.48627451
v -0.42970934 -0.13016512 -0.83000000 0.32941176 0.81176471 0.48627451
v -0.42970934 -0.13016512 -0.37000000 0.32941176 0.81176471 0.48627451
v -0.40752163 -0.06675628 -0.83000000 0.32941176 0.81176471 0.48627451
v -0.40752163 -0.06675628 -0.37000000 0.32941176 0.81176471 0.48627451
f 276 275 279
f 276 279 277
f 277 279 280
f 277 280 278
f 279 275 281
f 279 281 280
f 280 281 282
f 280 282 278
f 281 275 283
f 281 283 282
f 282 283 284
f 282 284 278
f 283 275 285
f 283 285 284
f 284 285 286
f 284 286 278
f 285 275 287
f 285 287 286
f 286 287 288
f 286 288 278
f 287 275 289
f 287 289 288
f 288 289 290
f 288 290 278
f 289 275 291
f 289 291 290
f 290 291 292
f 290 292 278
f 291 275 293
f 291 293 292
f 292 293 294
f 292 294 278
f 293 275 295
f 293 295 294
f 294 295 296
f 294 296 278
f 295 275 297
f 295 297 296
f 296 297 298
f 296 298 278
f 297 275 299
f 297 299 298
f 298 299 300
f 298 300 278
f 299 275 301
f 299 301 300
f 300 301 302
f 300 302 278
f 301 275 303
f 301 303 302
f 302 303 304
f 302 304 278
f 303 275 305
f 303 305 304
f 304 305 306
f 304 306 278
f 305 275 307
f 305 307 306
f 306 307 308
f 306 308 278
f 307 275 309
f 307 309 308
f 308 309 310
f 308 310 278
f 309 275 311
f 309 311 310
f 310 311 312
f 310 312 278
f 311 275 313
f 311 313 312
f 312 313 314
f 312 314 278
f 313 275 315
f 313 315 314
f 314 315 316
f 314 316 278
f 315 275 317
f 315 317 316
f 316 317 318
f 316 318 278
f 317 275 319
f 317 319 318
f 318 319 320
f 318 320 278
f 319 275 321
f 319 321 320
f 320 321 322
f 320 322 278
f 321 275 323
f 321 323 322
f 322 323 324
f 322 324 278
f 323 275 325
f 323 325 324
f 324 325 326
f 324 326 278
f 325 275 327
f 325 327 326
f 326 327 328
f 326 328 278
f 327 275 329
f 327 329 328
f 328 329 330
f 328 330 278
f 329 275 331
f 329 331 330
f 330 331 332
f 330 332 278
f 331 275 276
f 331 276 332
f 332 276 277
f 332 277 278

o strut_3_8
v -0.70000000 0.00000000 -0.60000000 0.90196078 0.67450980 0.42745098
v -0.70000000 0.00000000 -0.63000000 0.90196078 0.67450980 0.42745098
v 0.00000000 0.00000000 -0.63000000 0.90196078 0.67450980 0.42745098
v 0.00000000 0.00000000 -0.60000000 0.90196078 0.67450980 0.42745098
v -0.70000000 0.01763356 -0.62427051 0.90196078 0.67450980 0.42745098
v 0.00000000 0.01763356 -0.62427051 0.90196078 0.67450980 0.42745098
v -0.70000000 0.02853170 -0.60927051 0.90196078 0.67450980 0.42745098
v 0.00000000 0.02853170 -0.60927051 0.90196078 0.67450980 0.42745098
v -0.70000000 0.02853170 -0.59072949 0.90196078 0.67450980 0.42745098
v 0.00000000 0.02853170 -0.59072949 0.90196078 0.67450980 0.42745098
v -0.70000000 0.01763356 -0.57572949 0.90196078 0.67450980 0.42745098
v 0.00000000 0.01763356 -0.57572949 0.90196078 0.67450980 0.42745098
v -0.70000000 0.00000000 -0.57000000 0.90196078 0.67450980 0.42745098
v 0.00000000 0.00000000 -0.57000000 0.90196078 0.67450980 0.42745098
v -0.70000000 -0.01763356 -0.57572949 0.90196078 0.67450980 0.42745098
v 0.00000000 -0.01763356 -0.57572949 0.90196078 0.67450980 0.42745098
v -0.70000000 -0.02853170 -0.59072949 0.90196078 0.67450980 0.42745098
v 0.00000000 -0.02853170 -0.59072949 0.90196078 0.67450980 0.42745098
v -0.70000000 -0.02853170 -0.60927051 0.90196078 0.67450980 0.42745098
v 0.00000000 -0.02853170 -0.60927051 0.90196078 0.67450980 0.42745098
v -0.70000000 -0.01763356 -0.62427051 0.90196078 0.67450980 0.42745098
v 0.00000000 -0.01763356 -0.62427051 0.90196078 0.67450980 0.42745098
f 334 333 337
f 334 337 335
f 335 337 338
f 335 338 336
f 337 333 339
f 337 339 338
f 338 339 340
f 338 340 336
f 339 333 341
f 339 341 340
f 340 341 342
f 340 342 336
f 341 333 343
f 341 343 342
f 342 343 344
f 342 344 336
f 343 333 345
f 343 345 344
f 344 345 346
f 344 346 336
f 345 333 347
f 345 347 346
f 346 347 348
f 346 348 336
f 347 333 349
f 347 349 348
f 348 349 350
f 348 350 336
f 349 333 351
f 349 351 350
f 350 351 352
f 350 352 336
f 351 333 353
f 351 353 352
f 352 353 354
f 352 354 336
f 353 333 334
f 353 334 354
f 354 334 335
f 354 335 336

o drum_4_9
v 0.70000000 0.00000000 -0.43000000 0.32941176 0.81176471 0.48627451
v 1.00000000 0.00000000 -0.43000000 0.32941176 0.81176471 0.48627451
v 1.00000000 0.00000000 0.03000000 0.32941176 0.81176471 0.48627451
v 0.70000000 0.00000000 0.03000000 0.32941176 0.81176471 0.48627451
v 0.99247837 0.06675628 -0.43000000 0.32941176 0.81176471 0.48627451
v 0.99247837 0.06675628 0.03000000 0.32941176 0.81176471 0.48627451
v 0.97029066 0.13016512 -0.43000000 0.32941176 0.81176471 0.48627451
v 0.97029066 0.13016512 0.03000000 0.32941176 0.81176471 0.48627451
v 0.93454944 0.18704694 -0.43000000 0.32941176 0.81176471 0.48627451
v 0.93454944 0.18704694 0.03000000 0.32941176 0.81176471 0.48627451
v 0.88704694 0.23454944 -0.43000000 0.32941176 0.81176471 0.48627451
v 0.88704694 0.23454944 0.03000000 0.32941176 0.81176471 0.48627451
v 0.83016512 0.27029066 -0.43000000 0.32941176 0.81176471 0.48627451
v 0.83016512 0.27029066 0.03000000 0.32941176 0.81176471 0.48627451
v 0.76675628 0.29247837 -0.43000000 0.32941176 0.81176471 0.48627451
v 0.76675628 0.29247837 0.03000000 0.32941176 0.81176471 0.48627451
v 0.70000000 0.30000000 -0.43000000 0.32941176 0.81176471 0.48627451
v 0.70000000 0.30000000 0.03000000 0.32941176 0.81176471 0.48627451
v 0.63324372 0.29247837 -0.43000000 0.32941176 0.81176471 0.48627451
v 0.63324372 0.29247837 0.03000000 0.32941176 0.81176471 0.48627451
v 0.56983488 0.27029066 -0.43000000 0.32941176 0.81176471 0.48627451
v 0.56983488 0.27029066 0.03000000 0.32941176 0.81176471 0.48627451
v 0.51295306 0.23454944 -0.43000000 0.32941176 0.81176471 0.48627451
v 0.51295306 0.23454944 0.03000000 0.32941176 0.81176471 0.48627451
v 0.46545056 0.18704694 -0.43000000 0.32941176 0.81176471 0.48627451
v 0.46545056 0.18704694 0.03000000 0.32941176 0.81176471 0.48627451
v 0.42970934 0.13016512 -0.43000000 0.32941176 0.81176471 0.48627451
v 0.42970934 0.13016512 0.03000000 0.32941176 0.81176471 0.48627451
v 0.40752163 0.06675628 -0.43000000 0.32941176 0.81176471 0.48627451
v 0.40752163 0.06675628 0.03000000 0.32941176 0.81176471 0.48627451
v 0.40000000 0.00000000 -0.43000000 0.32941176 0.81176471 0.48627451
v 0.40000000 0.00000000 0.03000000 0.32941176 0.81176471 0.48627451
v 0.40752163 -0.06675628 -0.43000000 0.32941176 0.81176471 0.48627451
v 0.40752163 -0.06675628 0.03000000 0.32941176 0.81176471 0.48627451
v 0.42970934 -0.13016512 -0.43000000 0.32941176 0.81176471 0.48627451
v 0.42970934 -0.13016512 0.03000000 0.32941176 0.81176471 0.48627451
v 0.46545056 -0.18704694 -0.43000000 0.32941176 0.81176471 0.48627451
v 0.46545056 -0.18704694 0.03000000 0.32941176 0.81176471 0.48627451
v 0.51295306 -0.23454944 -0.43000000 0.32941176 0.81176471 0.48627451
v 0.51295306 -0.23454944 0.03000000 0.32941176 0.81176471 0.48627451
v 0.56983488 -0.27029066 -0.43000000 0.32941176 0.81176471 0.48627451
v 0.56983488 -0.27029066 0.03000000 0.32941176 0.81176471 0.48627451
v 0.63324372 -0.29247837 -0.43000000 0.32941176 0.81176471 0.48627451
v 0.63324372 -0.29247837 0.03000000 0.32941176 0.81176471 0.48627451
v 0.70000000 -0.30000000 -0.43000000 0.32941176 0.81176471 0.48627451
v 0.70000000 -0.30000000 0.03000000 0.32941176 0.81176471 0.48627451
v 0.76675628 -0.29247837 -0.43000000 0.32941176 0.81176471 0.48627451
v 0.76675628 -0.29247837 0.03000000 0.32941176 0.81176471 0.48627451
v 0.83016512 -0.27029066 -0.43000000 0.32941176 0.81176471 0.48627451
v 0.83016512 -0.27029066 0.03000000 0.32941176 0.81176471 0.48627451
v 0.88704694 -0.23454944 -0.43000000 0.32941176 0.81176471 0.48627451
v 0.88704694 -0.23454944 0.03000000 0.32941176 0.81176471 0.48627451
v 0.93454944 -0.18704694 -0.43000000 0.32941176 0.81176471 0.48627451
v 0.93454944 -0.18704694 0.03000000 0.32941176 0.81176471 0.48627451
v 0.97029066 -0.13016512 -0.43000000 0.32941176 0.81176471 0.48627451
v 0.97029066 -0.13016512 0.03000000 0.32941176 0.81176471 0.48627451
v 0.99247837 -0.06675628 -0.43000000 0.32941176 0.81176471 0.48627451
v 0.99247837 -0.06675628 0.03000000 0.32941176 0.81176471 0.48627451
f 356 355 359
f 356 359 357
f 357 359 360
f 357 360 358
f 359 355 361
f 359 361 360
f 360 361 362
f 360 362 358
f 361 355 363
f 361 363 362
f 362 363 364
f 362 364 358
f 363 355 365
f 363 365 364
f 364 365 366
f 364 366 358
f 365 355 367
f 365 367 366
f 366 367 368
f 366 368 358
f 367 355 369
f 367 369 368
f 368 369 370
f 368 370 358
f 369 355 371
f 369 371 370
f 370 371 372
f 370 372 358
f 371 355 373
f 371 373 372
f 372 373 374
f 372 374 358
f 373 355 375
f 373 375 374
f 374 375 376
f 374 376 358
f 375 355 377
f 375 377 376
f 376 377 378
f 376 378 358
f 377 355 379
f 377 379 378
f 378 379 380
f 378 380 358
f 379 355 381
f 379 381 380
f 380 381 382
f 380 382 358
f 381 355 383
f 381 383 382
f 382 383 384
f 382 384 358
f 383 355 385
f 383 385 384
f 384 385 386
f 384 386 358
f 385 355 387
f 385 387 386
f 386 387 388
f 386 388 358
f 387 355 389
f 387 389 388
f 388 389 390
f 388 390 358
f 389 355 391
f 389 391 390
f 390 391 392
f 390 392 358
f 391 355 393
f 391 393 392
f 392 393 394
f 392 394 358
f 393 355 395
f 393 395 394
f 394 395 396
f 394 396 358
f 395 355 397
f 395 397 396
f 396 397 398
f 396 398 358
f 397 355 399
f 397 399 398
f 398 399 400
f 398 400 358
f 399 355 401
f 399 401 400
f 400 401 402
f 400 402 358
f 401 355 403
f 401 403 402
f 402 403 404
f 402 404 358
f 403 355 405
f 403 405 404
f 404 405 406
f 404 406 358
f 405 355 407
f 405 407 406
f 406 407 408
f 406 408 358
f 407 355 409
f 407 409 408
f 408 409 410
f 408 410 358
f 409 355 411
f 409 411 410
f 410 411 412
f 410 412 358
f 411 355 356
f 411 356 412
f 412 356 357
f 412 357 358

o strut_4_10
v 0.00000000 0.00000000 -0.20000000 0.90196078 0.67450980 0.42745098
v 0.00000000 0.00000000 -0.23000000 0.90196078 0.67450980 0.42745098
v 0.70000000 0.00000000 -0.23000000 0.90196078 0.67450980 0.42745098
v 0.70000000 0.00000000 -0.20000000 0.90196078 0.67450980 0.42745098
v 0.00000000 0.01763356 -0.22427051 0.90196078 0.67450980 0.42745098
v 0.70000000 0.01763356 -0.22427051 0.90196078 0.67450980 0.42745098
v 0.00000000 0.02853170 -0.20927051 0.90196078 0.67450980 0.42745098
v 0.70000000 0.02853170 -0.20927051 0.90196078 0.67450980 0.42745098
v 0.00000000 0.02853170 -0.19072949 0.90196078 0.67450980 0.42745098
v 0.70000000 0.02853170 -0.19072949 0.90196078 0.67450980 0.42745098
v 0.00000000 0.01763356 -0.17572949 0.90196078 0.67450980 0.42745098
v 0.70000000 0.01763356 -0.17572949 0.90196078 0.67450980 0.42745098
v 0.00000000 0.00000000 -0.17000000 0.90196078 0.67450980 0.42745098
v 0.70000000 0.00000000 -0.17000000 0.90196078 0.67450980 0.42745098
v 0.00000000 -0.01763356 -0.17572949 0.90196078 0.67450980 0.42745098
v 0.70000000 -0.01763356 -0.17572949 0.90196078 0.67450980 0.42745098
v 0.00000000 -0.02853170 -0.19072949 0.90196078 0.67450980 0.42745098
v 0.70000000 -0.02853170 -0.19072949 0.90196078 0.67450980 0.42745098
v 0.00000000 -0.02853170 -0.20927051 0.90196078 0.67450980 0.42745098
v 0.70000000 -0.02853170 -0.20927051 0.90196078 0.67450980 0.42745098
v 0.00000000 -0.01763356 -0.22427051 0.90196078 0.67450980 0.42745098
v 0.70000000 -0.01763356 -0.22427051 0.90196078 0.67450980 0.42745098
f 414 413 417
f 414 417 415
f 415 417 418
f 415 418 416
f 417 413 419
f 417 419 418
f 418 419 420
f 418 420 416
f 419 413 421
f 419 421 420
f 420 421 422
f 420 422 416
f 421 413 423
f 421 423 422
f 422 423 424
f 422 424 416
f 423 413 425
f 423 425 424
f 424 425 426
f 424 426 416
f 425 413 427
f 425 427 426
f 426 427 428
f 426 428 416
f 427 413 429
f 427 429 428
f 428 429 430
f 428 430 416
f 429 413 431
f 429 431 430
f 430 431 432
f 430 432 416
f 431 413 433
f 431 433 432
f 432 433 434
f 432 434 416
f 433 413 414
f 433 414 434
f 434 414 415
f 434 415 416

o drum_5_11
v -0.70000000 0.00000000 -0.43000000 0.32941176 0.81176471 0.48627451
v -0.40000000 0.00000000 -0.43000000 0.32941176 0.81176471 0.48627451
v -0.40000000 0.00000000 0.03000000 0.32941176 0.81176471 0.48627451
v -0.70000000 0.00000000 0.03000000 0.32941176 0.81176471 0.48627451
v -0.40752163 0.06675628 -0.43000000 0.32941176 0.81176471 0.48627451
v -0.40752163 0.06675628 0.03000000 0.32941176 0.81176471 0.48627451
v -0.42970934 0.13016512 -0.43000000 0.32941176 0.81176471 0.48627451
v -0.42970934 0.13016512 0.03000000 0.32941176 0.81176471 0.48627451
v -0.46545056 0.18704694 -0.43000000 0.32941176 0.81176471 0.48627451
v -0.46545056 0.18704694 0.03000000 0.32941176 0.81176471 0.48627451
v -0.51295306 0.23454944 -0.43000000 0.32941176 0.81176471 0.48627451
v -0.51295306 0.23454944 0.03000000 0.32941176 0.81176471 0.48627451
v -0.56983488 0.27029066 -0.43000000 0.32941176 0.81176471 0.48627451
v -0.56983488 0.27029066 0.03000000 0.32941176 0.81176471 0.48627451
v -0.63324372 0.29247837 -0.43000000 0.32941176 0.81176471 0.48627451
v -0.63324372 0.29247837 0.03000000 0.32941176 0.81176471 0.48627451
v -0.70000000 0.30000000 -0.43000000 0.32941176 0.81176471 0.48627451
v -0.70000000 0.30000000 0.03000000 0.32941176 0.81176471 0.48627451
v -0.76675628 0.29247837 -0.43000000 0.32941176 0.81176471 0.48627451
v -0.76675628 0.29247837 0.03000000 0.32941176 0.81176471 0.48627451
v -0.83016512 0.27029066 -0.43000000 0.32941176 0.81176471 0.48627451
v -0.83016512 0.27029066 0.03000000 0.32941176 0.81176471 0.48627451
v -0.88704694 0.23454944 -0.43000000 0.32941176 0.81176471 0.48627451
v -0.88704694 0.23454944 0.03000000 0.32941176 0.81176471 0.48627451
v -0.93454944 0.18704694 -0.43000000 0.32941176 0.81176471 0.48627451
v -0.93454944 0.18704694 0.03000000 0.32941176 0.81176471 0.48627451
v -0.97029066 0.13016512 -0.43000000 0.32941176 0.81176471 0.48627451
v -0.97029066 0.13016512 0.03000000 0.32941176 0.81176471 0.48627451
v -0.99247837 0.06675628 -0.43000000 0.32941176 0.81176471 0.48627451
v -0.99247837 0.06675628 0.03000000 0.32941176 0.81176471 0.48627451
v -1.00000000 0.00000000 -0.43000000 0.32941176 0.81176471 0.48627451
v -1.00000000 0.00000000 0.03000000 0.32941176 0.81176471 0.48627451
v -0.99247837 -0.06675628 -0.43000000 0.32941176 0.81176471 0.48627451
v -0.99247837 -0.06675628 0.03000000 0.32941176 0.81176471 0.48627451
v -0.97029066 -0.13016512 -0.43000000 0.32941176 0.81176471 0.48627451
v -0.97029066 -0.13016512 0.03000000 0.32941176 0.81176471 0.48627451
v -0.93454944 -0.18704694 -0.43000000 0.32941176 0.81176471 0.48627451
v -0.93454944 -0.18704694 0.03000000 0.32941176 0.81176471 0.48627451
v -0.88704694 -0.23454944 -0.43000000 0.32941176 0.81176471 0.48627451
v -0.88704694 -0.23454944 0.03000000 0.32941176 0.81176471 0.48627451
v -0.83016512 -0.27029066 -0.43000000 0.32941176 0.81176471 0.48627451
v -0.83016512 -0.27029066 0.03000000 0.32941176 0.81176471 0.48627451
v -0.76675628 -0.29247837 -0.43000000 0.32941176 0.81176471 0.48627451
v -0.76675628 -0.29247837 0.03000000 0.32941176 0.81176471 0.48627451
v -0.70000000 -0.30000000 -0.43000000 0.32941176 0.81176471 0.48627451
v -0.70000000 -0.30000000 0.03000000 0.32941176 0.81176471 0.48627451
v -0.63324372 -0.29247837 -0.43000000 0.32941176 0.81176471 0.48627451
v -0.63324372 -0.29247837 0.03000000 0.32941176 0.81176471 0.48627451
v -0.56983488 -0.27029066 -0.43000000 0.32941176 0.81176471 0.48627451
v -0.56983488 -0.27029066 0.03000000 0.32941176 0.81176471 0.48627451
v -0.51295306 -0.23454944 -0.43000000 0.32941176 0.81176471 0.48627451
v -0.51295306 -0.23454944 0.03000000 0.32941176 0.81176471 0.48627451
v -0.46545056 -0.18704694 -0.43000000 0.32941176 0.81176471 0.48627451
v -0.46545056 -0.18704694 0.03000000 0.32941176 0.81176471 0.48627451
v -0.42970934 -0.13016512 -0.43000000 0.32941176 0.81176471 0.48627451
v -0.42970934 -0.13016512 0.03000000 0.32941176 0.81176471 0.48627451
v -0.40752163 -0.06675628 -0.43000000 0.32941176 0.81176471 0.48627451
v -0.40752163 -0.06675628 0.03000000 0.32941176 0.81176471 0.48627451
f 436 435 439
f 436 439 437
f 437 439 440
f 437 440 438
f 439 435 441
f 439 441 440
f 440 441 442
f 440 442 438
f 441 435 443
f 441 443 442
f 442 443 444
f 442 444 438
f 443 435 445
f 443 445 444
f 444 445 446
f 444 446 438
f 445 435 447
f 445 447 446
f 446 447 448
f 446 448 438
f 447 435 449
f 447 449 448
f 448 449 450
f 448 450 438
f 449 435 451
f 449 451 450
f 450 451 452
f 450 452 438
f 451 435 453
f 451 453 452
f 452 453 454
f 452 454 438
f 453 435 455
f 453 455 454
f 454 455 456
f 454 456 438
f 455 435 457
f 455 457 456
f 456 457 458
f 456 458 438
f 457 435 459
f 457 459 458
f 458 459 460
f 458 460 438
f 459 435 461
f 459 461 460
f 460 461 462
f 460 462 438
f 461 435 463
f 461 463 462
f 462 463 464
f 462 464 438
f 463 435 465
f 463 465 464
f 464 465 466
f 464 466 438
f 465 435 467
f 465 467 466
f 466 467 468
f 466 468 438
f 467 435 469
f 467 469 468
f 468 469 470
f 468 470 438
f 469 435 471
f 469 471 470
f 470 471 472
f 470 472 438
f 471 435 473
f 471 473 472
f 472 473 474
f 472 474 438
f 473 435 475
f 473 475 474
f 474 475 476
f 474 476 438
f 475 435 477
f 475 477 476
f 476 477 478
f 476 478 438
f 477 435 479
f 477 479 478
f 478 479 480
f 478 480 438
f 479 435 481
f 479 481 480
f 480 481 482
f 480 482 438
f 481 435 483
f 481 483 482
f 482 483 484
f 482 484 438
f 483 435 485
f 483 485 484
f 484 485 486
f 484 486 438
f 485 435 487
f 485 487 486
f 486 487 488
f 486 488 438
f 487 435 489
f 487 489 488
f 488 489 490
f 488 490 438
f 489 435 491
f 489 491 490
f 490 491 492
f 490 492 438
f 491 435 436
f 491 436 492
f 492 436 437
f 492 437 438

o strut_5_12
v -0.70000000 0.00000000 -0.20000000 0.90196078 0.67450980 0.42745098
v -0.70000000 0.00000000 -0.23000000 0.90196078 0.67450980 0.42745098
v 0.00000000 0.00000000 -0.23000000 0.90196078 0.67450980 0.42745098
v 0.00000000 0.00000000 -0.20000000 0.90196078 0.67450980 0.42745098
v -0.70000000 0.01763356 -0.22427051 0.90196078 0.67450980 0.42745098
v 0.00000000 0.01763356 -0.22427051 0.90196078 0.67450980 0.42745098
v -0.70000000 0.02853170 -0.20927051 0.90196078 0.67450980 0.42745098
v 0.00000000 0.02853170 -0.20927051 0.90196078 0.67450980 0.42745098
v -0.70000000 0.02853170 -0.19072949 0.90196078 0.67450980 0.42745098
v 0.00000000 0.02853170 -0.19072949 0.90196078 0.67450980 0.42745098
v -0.70000000 0.01763356 -0.17572949 0.90196078 0.67450980 0.42745098
v 0.00000000 0.01763356 -0.17572949 0.90196078 0.67450980 0.42745098
v -0.70000000 0.00000000 -0.17000000 0.90196078 0.67450980 0.42745098
v 0.00000000 0.00000000 -0.17000000 0.90196078 0.67450980 0.42745098
v -0.70000000 -0.01763356 -0.17572949 0.90196078 0.67450980 0.42745098
v 0.00000000 -0.01763356 -0.17572949 0.90196078 0.67450980 0.42745098
v -0.70000000 -0.02853170 -0.19072949 0.90196078 0.67450980 0.42745098
v 0.00000000 -0.02853170 -0.19072949 0.90196078 0.67450980 0.42745098
v -0.70000000 -0.02853170 -0.20927051 0.90196078 0.67450980 0.42745098
v 0.00000000 -0.02853170 -0.20927051 0.90196078 0.67450980 0.42745098
v -0.70000000 -0.01763356 -0.22427051 0.90196078 0.67450980 0.42745098
v 0.00000000 -0.01763356 -0.22427051 0.90196078 0.67450980 0.42745098
f 494 493 497
f 494 497 495
f 495 497 498
f 495 498 496
f 497 493 499
f 497 499 498
f 498 499 500
f 498 500 496
f 499 493 501
f 499 501 500
f 500 501 502
f 500 502 496
f 501 493 503
f 501 503 502
f 502 503 504
f 502 504 496
f 503 493 505
f 503 505 504
f 504 505 506
f 504 506 496
f 505 493 507
f 505 507 506
f 506 507 508
f 506 508 496
f 507 493 509
f 507 509 508
f 508 509 510
f 508 510 496
f 509 493 511
f 509 511 510
f 510 511 512
f 510 512 496
f 511 493 513
f 511 513 512
f 512 513 514
f 512 514 496
f 513 493 494
f 513 494 514
f 514 494 495
f 514 495 496

o drum_6_13
v 0.70000000 0.00000000 -0.03000000 0.32941176 0.81176471 0.48627451
v 1.00000000 0.00000000 -0.03000000 0.32941176 0.81176471 0.48627451
v 1.00000000 0.00000000 0.43000000 0.32941176 0.81176471 0.48627451
v 0.70000000 0.00000000 0.43000000 0.32941176 0.81176471 0.48627451
v 0.99247837 0.06675628 -0.03000000 0.32941176 0.81176471 0.48627451
v 0.99247837 0.06675628 0.43000000 0.32941176 0.81176471 0.48627451
v 0.97029066 0.13016512 -0.03000000 0.32941176 0.81176471 0.48627451
v 0.97029066 0.13016512 0.43000000 0.32941176 0.81176471 0.48627451
v 0.93454944 0.18704694 -0.03000000 0.32941176 0.81176471 0.48627451
v 0.93454944 0.18704694 0.43000000 0.32941176 0.81176471 0.48627451
v 0.88704694 0.23454944 -0.03000000 0.32941176 0.81176471 0.48627451
v 0.88704694 0.23454944 0.43000000 0.32941176 0.81176471 0.48627451
v 0.83016512 0.27029066 -0.03000000 0.32941176 0.81176471 0.48627451
v 0.83016512 0.27029066 0.43000000 0.32941176 0.81176471 0.48627451
v 0.76675628 0.29247837 -0.03000000 0.32941176 0.81176471 0.48627451
v 0.76675628 0.29247837 0.43000000 0.32941176 0.81176471 0.48627451
v 0.70000000 0.30000000 -0.03000000 0.32941176 0.81176471 0.48627451
v 0.70000000 0.30000000 0.43000000 0.32941176 0.81176471 0.48627451
v 0.63324372 0.29247837 -0.03000000 0.32941176 0.81176471 0.48627451
v 0.63324372 0.29247837 0.43000000 0.32941176 0.81176471 0.48627451
v 0.56983488 0.27029066 -0.03000000 0.32941176 0.81176471 0.48627451
v 0.56983488 0.27029066 0.43000000 0.32941176 0.81176471 0.48627451
v 0.51295306 0.23454944 -0.03000000 0.32941176 0.81176471 0.48627451
v 0.51295306 0.23454944 0.43000000 0.32941176 0.81176471 0.48627451
v 0.46545056 0.18704694 -0.03000000 0.32941176 0.81176471 0.48627451
v 0.46545056 0.18704694 0.43000000 0.32941176 0.81176471 0.48627451
v 0.42970934 0.13016512 -0.03000000 0.32941176 0.81176471 0.48627451
v 0.42970934 0.13016512 0.43000000 0.32941176 0.81176471 0.48627451
v 0.40752163 0.06675628 -0.03000000 0.32941176 0.81176471 0.48627451
v 0.40752163 0.06675628 0.43000000 0.32941176 0.81176471 0.48627451
v 0.40000000 0.00000000 -0.03000000 0.32941176 0.81176471 0.48627451
v 0.40000000 0.00000000 0.43000000 0.32941176 0.81176471 0.48627451
v 0.40752163 -0.06675628 -0.03000000 0.32941176 0.81176471 0.48627451
v 0.40752163 -0.06675628 0.43000000 0.32941176 0.81176471 0.48627451
v 0.42970934 -0.13016512 -0.03000000 0.32941176 0.81176471 0.48627451
v 0.42970934 -0.13016512 0.43000000 0.32941176 0.81176471 0.48627451
v 0.46545056 -0.18704694 -0.03000000 0.32941176 0.81176471 0.48627451
v 0.46545056 -0.18704694 0.43000000 0.32941176 0.81176471 0.48627451
v 0.51295306 -0.23454944 -0.03000000 0.32941176 0.81176471 0.48627451
v 0.51295306 -0.23454944 0.43000000 0.32941176 0.81176471 0.48627451
v 0.56983488 -0.27029066 -0.03000000 0.32941176 0.81176471 0.48627451
v 0.56983488 -0.27029066 0.43000000 0.32941176 0.81176471 0.48627451
v 0.63324372 -0.29247837 -0.03000000 0.32941176 0.81176471 0.48627451
v 0.63324372 -0.29247837 0.43000000 0.32941176 0.81176471 0.48627451
v 0.70000000 -0.30000000 -0.03000000 0.32941176 0.81176471 0.48627451
v 0.70000000 -0.30000000 0.43000000 0.32941176 0.81176471 0.48627451
v 0.76675628 -0.29247837 -0.03000000 0.32941176 0.81176471 0.48627451
v 0.76675628 -0.29247837 0.43000000 0.32941176 0.81176471 0.48627451
v 0.83016512 -0.27029066 -0.03000000 0.32941176 0.81176471 0.48627451
v 0.83016512 -0.27029066 0.43000000 0.32941176 0.81176471 0.48627451
v 0.88704694 -0.23454944 -0.03000000 0.32941176 0.81176471 0.48627451
v 0.88704694 -0.23454944 0.43000000 0.32941176 0.81176471 0.48627451
v 0.93454944 -0.18704694 -0.03000000 0.32941176 0.81176471 0.48627451
v 0.93454944 -0.18704694 0.43000000 0.32941176 0.81176471 0.48627451
v 0.97029066 -0.13016512 -0.03000000 0.32941176 0.81176471 0.48627451
v 0.97029066 -0.13016512 0.43000000 0.32941176 0.81176471 0.48627451
v 0.99247837 -0.06675628 -0.03000000 0.32941176 0.81176471 0.48627451
v 0.99247837 -0.06675628 0.43000000 0.32941176 0.81176471 0.48627451
f 516 515 519
f 516 519 517
f 517 519 520
f 517 520 518
f 519 515 521
f 519 521 520
f 520 521 522
f 520 522 518
f 521 515 523
f 521 523 522
f 522 523 524
f 522 524 518
f 523 515 525
f 523 525 524
f 524 525 526
f 524 526 518
f 525 515 527
f 525 527 526
f 526 527 528
f 526 528 518
f 527 515 529
f 527 529 528
f 528 529 530
f 528 530 518
f 529 515 531
f 529 531 530
f 530 531 532
f 530 532 518
f 531 515 533
f 531 533 532
f 532 533 534
f 532 534 518
f 533 515 535
f 533 535 534
f 534 535 536
f 534 536 518
f 535 515 537
f 535 537 536
f 536 537 538
f 536 538 518
f 537 515 539
f 537 539 538
f 538 539 540
f 538 540 518
f 539 515 541
f 539 541 540
f 540 541 542
f 540 542 518
f 541 515 543
f 541 543 542
f 542 543 544
f 542 544 518
f 543 515 545
f 543 545 544
f 544 545 546
f 544 546 518
f 545 515 547
f 545 547 546
f 546 547 548
f 546 548 518
f 547 515 549
f 547 549 548
f 548 549 550
f 548 550 518
f 549 515 551
f 549 551 550
f 550 551 552
f 550 552 518
f 551 515 553
f 551 553 552
f 552 553 554
f 552 554 518
f 553 515 555
f 553 555 554
f 554 555 556
f 554 556 518
f 555 515 557
f 555 557 556
f 556 557 558
f 556 558 518
f 557 515 559
f 557 559 558
f 558 559 560
f 558 560 518
f 559 515 561
f 559 561 560
f 560 561 562
f 560 562 518
f 561 515 563
f 561 563 562
f 562 563 564
f 562 564 518
f 563 515 565
f 563 565 564
f 564 565 566
f 564 566 518
f 565 515 567
f 565 567 566
f 566 567 568
f 566 568 518
f 567 515 569
f 567 569 568
f 568 569 570
f 568 570 518
f 569 515 571
f 569 571 570
f 570 571 572
f 570 572 518
f 571 515 516
f 571 516 572
f 572 516 517
f 572 517 518

o strut_6_14
v 0.00000000 0.00000000 0.20000000 0.90196078 0.67450980 0.42745098
v 0.00000000 0.00000000 0.17000000 0.90196078 0.67450980 0.42745098
v 0.70000000 0.00000000 0.17000000 0.90196078 0.67450980 0.42745098
v 0.70000000 0.00000000 0.20000000 0.90196078 0.67450980 0.42745098
v 0.00000000 0.01763356 0.17572949 0.90196078 0.67450980 0.42745098
v 0.70000000 0.01763356 0.17572949 0.90196078 0.67450980 0.42745098
v 0.00000000 0.02853170 0.19072949 0.90196078 0.67450980 0.42745098
v 0.70000000 0.02853170 0.19072949 0.90196078 0.67450980 0.42745098
v 0.00000000 0.02853170 0.20927051 0.90196078 0.67450980 0.42745098
v 0.70000000 0.02853170 0.20927051 0.90196078 0.67450980 0.42745098
v 0.00000000 0.01763356 0.22427051 0.90196078 0.67450980 0.42745098
v 0.70000000 0.01763356 0.22427051 0.90196078 0.67450980 0.42745098
v 0.00000000 0.00000000 0.23000000 0.90196078 0.67450980 0.42745098
v 0.70000000 0.00000000 0.23000000 0.90196078 0.67450980 0.42745098
v 0.00000000 -0.01763356 0.22427051 0.90196078 0.67450980 0.42745098
v 0.70000000 -0.01763356 0.22427051 0.90196078 0.67450980 0.42745098
v 0.00000000 -0.02853170 0.20927051 0.90196078 0.67450980 0.42745098
v 0.70000000 -0.02853170 0.20927051 0.90196078 0.67450980 0.42745098
v 0.00000000 -0.02853170 0.19072949 0.90196078 0.67450980 0.42745098
v 0.70000000 -0.02853170 0.19072949 0.90196078 0.67450980 0.42745098
v 0.00000000 -0.01763356 0.17572949 0.90196078 0.67450980 0.42745098
v 0.70000000 -0.01763356 0.17572949 0.90196078 0.67450980 0.42745098
f 574 573 577
f 574 577 575
f 575 577 578
f 575 578 576
f 577 573 579
f 577 579 578
f 578 579 580
f 578 580 576
f 579 573 581
f 579 581 580
f 580 581 582
f 580 582 576
f 581 573 583
f 581 583 582
f 582 583 584
f 582 584 576
f 583 573 585
f 583 585 584
f 584 585 586
f 584 586 576
f 585 573 587
f 585 587 586
f 586 587 588
f 586 588 576
f 587 573 589
f 587 589 588
f 588 589 590
f 588 590 576
f 589 573 591
f 589 591 590
f 590 591 592
f 590 592 576
f 591 573 593
f 591 593 592
f 592 593 594
f 592 594 576
f 593 573 574
f 593 574 594
f 594 574 575
f 594 575 576

o drum_7_15
v -0.70000000 0.00000000 -0.03000000 0.32941176 0.81176471 0.48627451
v -0.40000000 0.00000000 -0.03000000 0.32941176 0.81176471 0.48627451
v -0.40000000 0.00000000 0.43000000 0.32941176 0.81176471 0.48627451
v -0.70000000 0.00000000 0.43000000 0.32941176 0.81176471 0.48627451
v -0.40752163 0.06675628 -0.03000000 0.32941176 0.81176471 0.48627451
v -0.40752163 0.06675628 0.43000000 0.32941176 0.81176471 0.48627451
v -0.42970934 0.13016512 -0.03000000 0.32941176 0.81176471 0.48627451
v -0.42970934 0.13016512 0.43000000 0.32941176 0.81176471 0.48627451
v -0.46545056 0.18704694 -0.03000000 0.32941176 0.81176471 0.48627451
v -0.46545056 0.18704694 0.43000000 0.32941176 0.81176471 0.48627451
v -0.51295306 0.23454944 -0.03000000 0.32941176 0.81176471 0.48627451
v -0.51295306 0.23454944 0.43000000 0.32941176 0.81176471 0.48627451
v -0.56983488 0.27029066 -0.03000000 0.32941176 0.81176471 0.48627451
v -0.56983488 0.27029066 0.43000000 0.32941176 0.81176471 0.48627451
v -0.63324372 0.29247837 -0.03000000 0.32941176 0.81176471 0.48627451
v -0.63324372 0.29247837 0.43000000 0.32941176 0.81176471 0.48627451
v -0.70000000 0.30000000 -0.03000000 0.32941176 0.81176471 0.48627451
v -0.70000000 0.30000000 0.43000000 0.32941176 0.81176471 0.48627451
v -0.76675628 0.29247837 -0.03000000 0.32941176 0.81176471 0.48627451
v -0.76675628 0.29247837 0.43000000 0.32941176 0.81176471 0.48627451
v -0.83016512 0.27029066 -0.03000000 0.32941176 0.81176471 0.48627451
v -0.83016512 0.27029066 0.43000000 0.32941176 0.81176471 0.48627451
v -0.88704694 0.23454944 -0.03000000 0.32941176 0.81176471 0.48627451
v -0.88704694 0.23454944 0.43000000 0.32941176 0.81176471 0.48627451
v -0.93454944 0.18704694 -0.03000000 0.32941176 0.81176471 0.48627451
v -0.93454944 0.18704694 0.43000000 0.32941176 0.81176471 0.48627451
v -0.97029066 0.13016512 -0.03000000 0.32941176 0.81176471 0.48627451
v -0.97029066 0.13016512 0.43000000 0.32941176 0.81176471 0.48627451
v -0.99247837 0.06675628 -0.03000000 0.32941176 0.81176471 0.48627451
v -0.99247837 0.06675628 0.43000000 0.32941176 0.81176471 0.48627451
v -1.00000000 0.00000000 -0.03000000 0.32941176 0.81176471 0.48627451
v -1.00000000 0.00000000 0.43000000 0.32941176 0.81176471 0.48627451
v -0.99247837 -0.06675628 -0.03000000 0.32941176 0.81176471 0.48627451
v -0.99247837 -0.06675628 0.43000000 0.32941176 0.81176471 0.48627451
v -0.97029066 -0.13016512 -0.03000000 0.32941176 0.81176471 0.48627451
v -0.97029066 -0.13016512 0.43000000 0.32941176 0.81176471 0.48627451
v -0.93454944 -0.18704694 -0.03000000 0.32941176 0.81176471 0.48627451
v -0.93454944 -0.18704694 0.43000000 0.32941176 0.81176471 0.48627451
v -0.88704694 -0.23454944 -0.03000000 0.32941176 0.81176471 0.48627451
v -0.88704694 -0.23454944 0.43000000 0.32941176 0.81176471 0.48627451
v -0.83016512 -0.27029066 -0.03000000 0.32941176 0.81176471 0.48627451
v -0.83016512 -0.27029066 0.43000000 0.32941176 0.81176471 0.48627451
v -0.76675628 -0.29247837 -0.03000000 0.32941176 0.81176471 0.48627451
v -0.76675628 -0.29247837 0.43000000 0.32941176 0.81176471 0.48627451
v -0.70000000 -0.30000000 -0.03000000 0.32941176 0.81176471 0.48627451
v -0.70000000 -0.30000000 0.43000000 0.32941176 0.81176471 0.48627451
v -0.63324372 -0.29247837 -0.03000000 0.32941176 0.81176471 0.48627451
v -0.63324372 -0.29247837 0.43000000 0.32941176 0.81176471 0.48627451
v -0.56983488 -0.27029066 -0.03000000 0.32941176 0.81176471 0.48627451
v -0.56983488 -0.27029066 0.43000000 0.32941176 0.81176471 0.48627451
v -0.51295306 -0.23454944 -0.03000000 0.32941176 0.81176471 0.48627451
v -0.51295306 -0.23454944 0.43000000 0.32941176 0.81176471 0.48627451
v -0.46545056 -0.18704694 -0.03000000 0.32941176 0.81176471 0.48627451
v -0.46545056 -0.18704694 0.43000000 0.32941176 0.81176471 0.48627451
v -0.42970934 -0.13016512 -0.03000000 0.32941176 0.81176471 0.48627451
v -0.42970934 -0.13016512 0.43000000 0.32941176 0.81176471 0.48627451
v -0.40752163 -0.06675628 -0.03000000 0.32941176 0.81176471 0.48627451
v -0.40752163 -0.06675628 0.43000000 0.32941176 0.81176471 0.48627451
f 596 595 599
f 596 599 597
f 597 599 600
f 597 600 598
f 599 595 601
f 599 601 600
f 600 601 602
f 600 602 598
f 601 595 603
f 601 603 602
f 602 603 604
f 602 604 598
f 603 595 605
f 603 605 604
f 604 605 606
f 604 606 598
f 605 595 607
f 605 607 606
f 606 607 608
f 606 608 598
f 607 595 609
f 607 609 608
f 608 609 610
f 608 610 598
f 609 595 611
f 609 611 610
f 610 611 612
f 610 612 598
f 611 595 613
f 611 613 612
f 612 613 614
f 612 614 598
f 613 595 615
f 613 615 614
f 614 615 616
f 614 616 598
f 615 595 617
f 615 617 616
f 616 617 618
f 616 618 598
f 617 595 619
f 617 619 618
f 618 619 620
f 618 620 598
f 619 595 621
f 619 621 620
f 620 621 622
f 620 622 598
f 621 595 623
f 621 623 622
f 622 623 624
f 622 624 598
f 623 595 625
f 623 625 624
f 624 625 626
f 624 626 598
f 625 595 627
f 625 627 626
f 626 627 628
f 626 628 598
f 627 595 629
f 627 629 628
f 628 629 630
f 628 630 598
f 629 595 631
f 629 631 630
f 630 631 632
f 630 632 598
f 631 595 633
f 631 633 632
f 632 633 634
f 632 634 598
f 633 595 635
f 633 635 634
f 634 635 636
f 634 636 598
f 635 595 637
f 635 637 636
f 636 637 638
f 636 638 598
f 637 595 639
f 637 639 638
f 638 639 640
f 638 640 598
f 639 595 641
f 639 641 640
f 640 641 642
f 640 642 598
f 641 595 643
f 641 643 642
f 642 643 644
f 642 644 598
f 643 595 645
f 643 645 644
f 644 645 646
f 644 646 598
f 645 595 647
f 645 647 646
f 646 647 648
f 646 648 598
f 647 595 649
f 647 649 648
f 648 649 650
f 648 650 598
f 649 595 651
f 649 651 650
f 650 651 652
f 650 652 598
f 651 595 596
f 651 596 652
f 652 596 597
f 652 597 598

o strut_7_16
v -0.70000000 0.00000000 0.20000000 0.90196078 0.67450980 0.42745098
v -0.70000000 0.00000000 0.17000000 0.90196078 0.67450980 0.42745098
v 0.00000000 0.00000000 0.17000000 0.90196078 0.67450980 0.42745098
v 0.00000000 0.00000000 0.20000000 0.90196078 0.67450980 0.42745098
v -0.70000000 0.01763356 0.17572949 0.90196078 0.67450980 0.42745098
v 0.00000000 0.01763356 0.17572949 0.90196078 0.67450980 0.42745098
v -0.70000000 0.02853170 0.19072949 0.90196078 0.67450980 0.42745098
v 0.00000000 0.02853170 0.19072949 0.90196078 0.67450980 0.42745098
v -0.70000000 0.02853170 0.20927051 0.90196078 0.67450980 0.42745098
v 0.00000000 0.02853170 0.20927051 0.90196078 0.67450980 0.42745098
v -0.70000000 0.01763356 0.22427051 0.90196078 0.67450980 0.42745098
v 0.00000000 0.01763356 0.22427051 0.90196078 0.67450980 0.42745098
v -0.70000000 0.00000000 0.23000000 0.90196078 0.67450980 0.42745098
v 0.00000000 0.00000000 0.23000000 0.90196078 0.67450980 0.42745098
v -0.70000000 -0.01763356 0.22427051 0.90196078 0.67450980 0.42745098
v 0.00000000 -0.01763356 0.22427051 0.90196078 0.67450980 0.42745098
v -0.70000000 -0.02853170 0.20927051 0.90196078 0.67450980 0.42745098
v 0.00000000 -0.02853170 0.20927051 0.90196078 0.67450980 0.42745098
v -0.70000000 -0.02853170 0.19072949 0.90196078 0.67450980 0.42745098
v 0.00000000 -0.02853170 0.19072949 0.90196078 0.67450980 0.42745098
v -0.70000000 -0.01763356 0.17572949 0.90196078 0.67450980 0.42745098
v 0.00000000 -0.01763356 0.17572949 0.90196078 0.67450980 0.42745098
f 654 653 657
f 654 657 655
f 655 657 658
f 655 658 656
f 657 653 659
f 657 659 658
f 658 659 660
f 658 660 656
f 659 653 661
f 659 661 660
f 660 661 662
f 660 662 656
f 661 653 663
f 661 663 662
f 662 663 664
f 662 664 656
f 663 653 665
f 663 665 664
f 664 665 666
f 664 666 656
f 665 653 667
f 665 667 666
f 666 667 668
f 666 668 656
f 667 653 669
f 667 669 668
f 668 669 670
f 668 670 656
f 669 653 671
f 669 671 670
f 670 671 672
f 670 672 656
f 671 653 673
f 671 673 672
f 672 673 674
f 672 674 656
f 673 653 654
f 673 654 674
f 674 654 655
f 674 655 656

o drum_8_17
v 0.70000000 0.00000000 0.37000000 0.32941176 0.81176471 0.48627451
v 1.00000000 0.00000000 0.37000000 0.32941176 0.81176471 0.48627451
v 1.00000000 0.00000000 0.83000000 0.32941176 0.81176471 0.48627451
v 0.70000000 0.00000000 0.83000000 0.32941176 0.81176471 0.48627451
v 0.99247837 0.06675628 0.37000000 0.32941176 0.81176471 0.48627451
v 0.99247837 0.06675628 0.83000000 0.32941176 0.81176471 0.48627451
v 0.97029066 0.13016512 0.37000000 0.32941176 0.81176471 0.48627451
v 0.97029066 0.13016512 0.83000000 0.32941176 0.81176471 0.48627451
v 0.93454944 0.18704694 0.37000000 0.32941176 0.81176471 0.48627451
v 0.93454944 0.18704694 0.83000000 0.32941176 0.81176471 0.48627451
v 0.88704694 0.23454944 0.37000000 0.32941176 0.81176471 0.48627451
v 0.88704694 0.23454944 0.83000000 0.32941176 0.81176471 0.48627451
v 0.83016512 0.27029066 0.37000000 0.32941176 0.81176471 0.48627451
v 0.83016512 0.27029066 0.83000000 0.32941176 0.81176471 0.48627451
v 0.76675628 0.29247837 0.37000000 0.32941176 0.81176471 0.48627451
v 0.76675628 0.29247837 0.83000000 0.32941176 0.81176471 0.48627451
v 0.70000000 0.30000000 0.37000000 0.32941176 0.81176471 0.48627451
v 0.70000000 0.30000000 0.83000000 0.32941176 0.81176471 0.48627451
v 0.63324372 0.29247837 0.37000000 0.32941176 0.81176471 0.48627451
v 0.63324372 0.29247837 0.83000000 0.32941176 0.81176471 0.48627451
v 0.56983488 0.27029066 0.37000000 0.32941176 0.81176471 0.48627451
v 0.56983488 0.27029066 0.83000000 0.32941176 0.81176471 0.48627451
v 0.51295306 0.23454944 0.37000000 0.32941176 0.81176471 0.48627451
v 0.51295306 0.23454944 0.83000000 0.32941176 0.81176471 0.48627451
v 0.46545056 0.18704694 0.37000000 0.32941176 0.81176471 0.48627451
v 0.46545056 0.18704694 0.83000000 0.32941176 0.81176471 0.48627451
v 0.42970934 0.13016512 0.37000000 0.32941176 0.81176471 0.48627451
v 0.42970934 0.13016512 0.83000000 0.32941176 0.81176471 0.48627451
v 0.40752163 0.06675628 0.37000000 0.32941176 0.81176471 0.48627451
v 0.40752163 0.06675628 0.83000000 0.32941176 0.81176471 0.48627451
v 0.40000000 0.00000000 0.37000000 0.32941176 0.81176471 0.48627451
v 0.40000000 0.00000000 0.83000000 0.32941176 0.81176471 0.48627451
v 0.40752163 -0.06675628 0.37000000 0.32941176 0.81176471 0.48627451
v 0.40752163 -0.06675628 0.83000000 0.32941176 0.81176471 0.48627451
v 0.42970934 -0.13016512 0.37000000 0.32941176 0.81176471 0.48627451
v 0.42970934 -0.13016512 0.83000000 0.32941176 0.81176471 0.48627451
v 0.46545056 -0.18704694 0.37000000 0.32941176 0.81176471 0.48627451
v 0.46545056 -0.18704694 0.83000000 0.32941176 0.81176471 0.48627451
v 0.51295306 -0.23454944 0.37000000 0.32941176 0.81176471 0.48627451
v 0.51295306 -0.23454944 0.83000000 0.32941176 0.81176471 0.48627451
v 0.56983488 -0.27029066 0.37000000 0.32941176 0.81176471 0.48627451
v 0.56983488 -0.27029066 0.83000000 0.32941176 0.81176471 0.48627451
v 0.63324372 -0.29247837 0.37000000 0.32941176 0.81176471 0.48627451
v 0.63324372 -0.29247837 0.83000000 0.32941176 0.81176471 0.48627451
v 0.70000000 -0.30000000 0.37000000 0.32941176 0.81176471 0.48627451
v 0.70000000 -0.30000000 0.83000000 0.32941176 0.81176471 0.48627451
v 0.76675628 -0.29247837 0.37000000 0.32941176 0.81176471 0.48627451
v 0.76675628 -0.29247837 0.83000000 0.32941176 0.81176471 0.48627451
v 0.83016512 -0.27029066 0.37000000 0.32941176 0.81176471 0.48627451
v 0.83016512 -0.27029066 0.83000000 0.32941176 0.81176471 0.48627451
v 0.88704694 -0.23454944 0.37000000 0.32941176 0.81176471 0.48627451
v 0.88704694 -0.23454944 0.83000000 0.32941176 0.81176471 0.48627451
v 0.93454944 -0.18704694 0.37000000 0.32941176 0.81176471 0.48627451
v 0.93454944 -0.18704694 0.83000000 0.32941176 0.81176471 0.48627451
v 0.97029066 -0.13016512 0.37000000 0.32941176 0.81176471 0.48627451
v 0.97029066 -0.13016512 0.83000000 0.32941176 0.81176471 0.48627451
v 0.99247837 -0.06675628 0.37000000 0.32941176 0.81176471 0.48627451
v 0.99247837 -0.06675628 0.83000000 0.32941176 0.81176471 0.48627451
f 676 675 679
f 676 679 677
f 677 679 680
f 677 680 678
f 679 675 681
f 679 681 680
f 680 681 682
f 680 682 678
f 681 675 683
f 681 683 682
f 682 683 684
f 682 684 678
f 683 675 685
f 683 685 684
f 684 685 686
f 684 686 678
f 685 675 687
f 685 687 686
f 686 687 688
f 686 688 678
f 687 675 689
f 687 689 688
f 688 689 690
f 688 690 678
f 689 675 691
f 689 691 690
f 690 691 692
f 690 692 678
f 691 675 693
f 691 693 692
f 692 693 694
f 692 694 678
f 693 675 695
f 693 695 694
f 694 695 696
f 694 696 678
f 695 675 697
f 695 697 696
f 696 697 698
f 696 698 678
f 697 675 699
f 697 699 698
f 698 699 700
f 698 700 678
f 699 675 701
f 699 701 700
f 700 701 702
f 700 702 678
f 701 675 703
f 701 703 702
f 702 703 704
f 702 704 678
f 703 675 705
f 703 705 704
f 704 705 706
f 704 706 678
f 705 675 707
f 705 707 706
f 706 707 708
f 706 708 678
f 707 675 709
f 707 709 708
f 708 709 710
f 708 710 678
f 709 675 711
f 709 711 710
f 710 711 712
f 710 712 678
f 711 675 713
f 711 713 712
f 712 713 714
f 712 714 678
f 713 675 715
f 713 715 714
f 714 715 716
f 714 716 678
f 715 675 717
f 715 717 716
f 716 717 718
f 716 718 678
f 717 675 719
f 717 719 718
f 718 719 720
f 718 720 678
f 719 675 721
f 719 721 720
f 720 721 722
f 720 722 678
f 721 675 723
f 721 723 722
f 722 723 724
f 722 724 678
f 723 675 725
f 723 725 724
f 724 725 726
f 724 726 678
f 725 675 727
f 725 727 726
f 726 727 728
f 726 728 678
f 727 675 729
f 727 729 728
f 728 729 730
f 728 730 678
f 729 675 731
f 729 731 730
f 730 731 732
f 730 732 678
f 731 675 676
f 731 676 732
f 732 676 677
f 732 677 678

o strut_8_18
v 0.00000000 0.00000000 0.60000000 0.90196078 0.67450980 0.42745098
v 0.00000000 0.00000000 0.57000000 0.90196078 0.67450980 0.42745098
v 0.70000000 0.00000000 0.57000000 0.90196078 0.67450980 0.42745098
v 0.70000000 0.00000000 0.60000000 0.90196078 0.67450980 0.42745098
v 0.00000000 0.01763356 0.57572949 0.90196078 0.67450980 0.42745098
v 0.70000000 0.01763356 0.57572949 0.90196078 0.67450980 0.42745098
v 0.00000000 0.02853170 0.59072949 0.90196078 0.67450980 0.42745098
v 0.70000000 0.02853170 0.59072949 0.90196078 0.67450980 0.42745098
v 0.00000000 0.02853170 0.60927051 0.90196078 0.67450980 0.42745098
v 0.70000000 0.02853170 0.60927051 0.90196078 0.67450980 0.42745098
v 0.00000000 0.01763356 0.62427051 0.90196078 0.67450980 0.42745098
v 0.70000000 0.01763356 0.62427051 0.90196078 0.67450980 0.42745098
v 0.00000000 0.00000000 0.63000000 0.90196078 0.67450980 0.42745098
v 0.70000000 0.00000000 0.63000000 0.90196078 0.67450980 0.42745098
v 0.00000000 -0.01763356 0.62427051 0.90196078 0.67450980 0.42745098
v 0.70000000 -0.01763356 0.62427051 0.90196078 0.67450980 0.42745098
v 0.00000000 -0.02853170 0.60927051 0.90196078 0.67450980 0.42745098
v 0.70000000 -0.02853170 0.60927051 0.90196078 0.67450980 0.42745098
v 0.00000000 -0.02853170 0.59072949 0.90196078 0.67450980 0.42745098
v 0.70000000 -0.02853170 0.59072949 0.90196078 0.67450980 0.42745098
v 0.00000000 -0.01763356 0.57572949 0.90196078 0.67450980 0.42745098
v 0.70000000 -0.01763356 0.57572949 0.90196078 0.67450980 0.42745098
f 734 733 737
f 734 737 735
f 735 737 738
f 735 738 736
f 737 733 739
f 737 739 738
f 738 739 740
f 738 740 736
f 739 733 741
f 739 741 740
f 740 741 742
f 740 742 736
f 741 733 743
f 741 743 742
f 742 743 744
f 742 744 736
f 743 733 745
f 743 745 744
f 744 745 746
f 744 746 736
f 745 733 747
f 745 747 746
f 746 747 748
f 746 748 736
f 747 733 749
f 747 749 748
f 748 749 750
f 748 750 736
f 749 733 751
f 749 751 750
f 750 751 752
f 750 752 736
f 751 733 753
f 751 753 752
f 752 753 754
f 752 754 736
f 753 733 734
f 753 734 754
f 754 734 735
f 754 735 736

o drum_9_19
v -0.70000000 0.00000000 0.37000000 0.32941176 0.81176471 0.48627451
v -0.40000000 0.00000000 0.37000000 0.32941176 0.81176471 0.48627451
v -0.40000000 0.00000000 0.83000000 0.32941176 0.81176471 0.48627451
v -0.70000000 0.00000000 0.83000000 0.32941176 0.81176471 0.48627451
v -0.40752163 0.06675628 0.37000000 0.32941176 0.81176471 0.48627451
v -0.40752163 0.06675628 0.83000000 0.32941176 0.81176471 0.48627451
v -0.42970934 0.13016512 0.37000000 0.32941176 0.81176471 0.48627451
v -0.42970934 0.13016512 0.83000000 0.32941176 0.81176471 0.48627451
v -0.46545056 0.18704694 0.37000000 0.32941176 0.81176471 0.48627451
v -0.46545056 0.18704694 0.83000000 0.32941176 0.81176471 0.48627451
v -0.51295306 0.23454944 0.37000000 0.32941176 0.81176471 0.48627451
v -0.51295306 0.23454944 0.83000000 0.32941176 0.81176471 0.48627451
v -0.56983488 0.27029066 0.37000000 0.32941176 0.81176471 0.48627451
v -0.56983488 0.27029066 0.83000000 0.32941176 0.81176471 0.48627451
v -0.63324372 0.29247837 0.37000000 0.32941176 0.81176471 0.48627451
v -0.63324372 0.29247837 0.83000000 0.32941176 0.81176471 0.48627451
v -0.70000000 0.30000000 0.37000000 0.32941176 0.81176471 0.48627451
v -0.70000000 0.30000000 0.83000000 0.32941176 0.81176471 0.48627451
v -0.76675628 0.29247837 0.37000000 0.32941176 0.81176471 0.48627451
v -0.76675628 0.29247837 0.83000000 0.32941176 0.81176471 0.48627451
v -0.83016512 0.27029066 0.37000000 0.32941176 0.81176471 0.48627451
v -0.83016512 0.27029066 0.83000000 0.32941176 0.81176471 0.48627451
v -0.88704694 0.23454944 0.37000000 0.32941176 0.81176471 0.48627451
v -0.88704694 0.23454944 0.83000000 0.32941176 0.81176471 0.48627451
v -0.93454944 0.18704694 0.37000000 0.32941176 0.81176471 0.48627451
v -0.93454944 0.18704694 0.83000000 0.32941176 0.81176471 0.48627451
v -0.97029066 0.13016512 0.37000000 0.32941176 0.81176471 0.48627451
v -0.97029066 0.13016512 0.83000000 0.32941176 0.81176471 0.48627451
v -0.99247837 0.06675628 0.37000000 0.32941176 0.81176471 0.48627451
v -0.99247837 0.06675628 0.83000000 0.32941176 0.81176471 0.48627451
v -1.00000000 0.00000000 0.37000000 0.32941176 0.81176471 0.48627451
v -1.00000000 0.00000000 0.83000000 0.32941176 0.81176471 0.48627451
v -0.99247837 -0.06675628 0.37000000 0.32941176 0.81176471 0.48627451
v -0.99247837 -0.06675628 0.83000000 0.32941176 0.81176471 0.48627451
v -0.97029066 -0.13016512 0.37000000 0.32941176 0.81176471 0.48627451
v -0.97029066 -0.13016512 0.83000000 0.32941176 0.81176471 0.48627451
v -0.93454944 -0.18704694 0.37000000 0.32941176 0.81176471 0.48627451
v -0.93454944 -0.18704694 0.83000000 0.32941176 0.81176471 0.48627451
v -0.88704694 -0.23454944 0.37000000 0.32941176 0.81176471 0.48627451
v -0.88704694 -0.23454944 0.83000000 0.32941176 0.81176471 0.48627451
v -0.83016512 -0.27029066 0.37000000 0.32941176 0.81176471 0.48627451
v -0.83016512 -0.27029066 0.83000000 0.32941176 0.81176471 0.48627451
v -0.76675628 -0.29247837 0.37000000 0.32941176 0.81176471 0.48627451
v -0.76675628 -0.29247837 0.83000000 0.32941176 0.81176471 0.48627451
v -0.70000000 -0.30000000 0.37000000 0.32941176 0.81176471 0.48627451
v -0.70000000 -0.30000000 0.83000000 0.32941176 0.81176471 0.48627451
v -0.63324372 -0.29247837 0.37000000 0.32941176 0.81176471 0.48627451
v -0.63324372 -0.29247837 0.83000000 0.32941176 0.81176471 0.48627451
v -0.56983488 -0.27029066 0.37000000 0.32941176 0.81176471 0.48627451
v -0.56983488 -0.27029066 0.83000000 0.32941176 0.81176471 0.48627451
v -0.51295306 -0.23454944 0.37000000 0.32941176 0.81176471 0.48627451
v -0.51295306 -0.23454944 0.83000000 0.32941176 0.81176471 0.48627451
v -0.46545056 -0.18704694 0.37000000 0.32941176 0.81176471 0.48627451
v -0.46545056 -0.18704694 0.83000000 0.32941176 0.81176471 0.48627451
v -0.42970934 -0.13016512 0.37000000 0.32941176 0.81176471 0.48627451
v -0.42970934 -0.13016512 0.83000000 0.32941176 0.81176471 0.48627451
v -0.40752163 -0.06675628 0.37000000 0.32941176 0.81176471 0.48627451
v -0.40752163 -0.06675628 0.83000000 0.32941176 0.81176471 0.48627451
f 756 755 759
f 756 759 757
f 757 759 760
f 757 760 758
f 759 755 761
f 759 761 760
f 760 761 762
f 760 762 758
f 761 755 763
f 761 763 762
f 762 763 764
f 762 764 758
f 763 755 765
f 763 765 764
f 764 765 766
f 764 766 758
f 765 755 767
f 765 767 766
f 766 767 768
f 766 768 758
f 767 755 769
f 767 769 768
f 768 769 770
f 768 770 758
f 769 755 771
f 769 771 770
f 770 771 772
f 770 772 758
f 771 755 773
f 771 773 772
f 772 773 774
f 772 774 758
f 773 755 775
f 773 775 774
f 774 775 776
f 774 776 758
f 775 755 777
f 775 777 776
f 776 777 778
f 776 778 758
f 777 755 779
f 777 779 778
f 778 779 780
f 778 780 758
f 779 755 781
f 779 781 780
f 780 781 782
f 780 782 758
f 781 755 783
f 781 783 782
f 782 783 784
f 782 784 758
f 783 755 785
f 783 785 784
f 784 785 786
f 784 786 758
f 785 755 787
f 785 787 786
f 786 787 788
f 786 788 758
f 787 755 789
f 787 789 788
f 788 789 790
f 788 790 758
f 789 755 791
f 789 791 790
f 790 791 792
f 790 792 758
f 791 755 793
f 791 793 792
f 792 793 794
f 792 794 758
f 793 755 795
f 793 795 794
f 794 795 796
f 794 796 758
f 795 755 797
f 795 797 796
f 796 797 798
f 796 798 758
f 797 755 799
f 797 799 798
f 798 799 800
f 798 800 758
f 799 755 801
f 799 801 800
f 800 801 802
f 800 802 758
f 801 755 803
f 801 803 802
f 802 803 804
f 802 804 758
f 803 755 805
f 803 805 804
f 804 805 806
f 804 806 758
f 805 755 807
f 805 807 806
f 806 807 808
f 806 808 758
f 807 755 809
f 807 809 808
f 808 809 810
f 808 810 758
f 809 755 811
f 809 811 810
f 810 811 812
f 810 812 758
f 811 755 756
f 811 756 812
f 812 756 757
f 812 757 758

o strut_9_20
v -0.70000000 0.00000000 0.60000000 0.90196078 0.67450980 0.42745098
v -0.70000000 0.00000000 0.57000000 0.90196078 0.67450980 0.42745098
v 0.00000000 0.00000000 0.57000000 0.90196078 0.67450980 0.42745098
v 0.00000000 0.00000000 0.60000000 0.90196078 0.67450980 0.42745098
v -0.70000000 0.01763356 0.57572949 0.90196078 0.67450980 0.42745098
v 0.00000000 0.01763356 0.57572949 0.90196078 0.67450980 0.42745098
v -0.70000000 0.02853170 0.59072949 0.90196078 0.67450980 0.42745098
v 0.00000000 0.02853170 0.59072949 0.90196078 0.67450980 0.42745098
v -0.70000000 0.02853170 0.60927051 0.90196078 0.67450980 0.42745098
v 0.00000000 0.02853170 0.60927051 0.90196078 0.67450980 0.42745098
v -0.70000000 0.01763356 0.62427051 0.90196078 0.67450980 0.42745098
v 0.00000000 0.01763356 0.62427051 0.90196078 0.67450980 0.42745098
v -0.70000000 0.00000000 0.63000000 0.90196078 0.67450980 0.42745098
v 0.00000000 0.00000000 0.63000000 0.90196078 0.67450980 0.42745098
v -0.70000000 -0.01763356 0.62427051 0.90196078 0.67450980 0.42745098
v 0.00000000 -0.01763356 0.62427051 0.90196078 0.67450980 0.42745098
v -0.70000000 -0.02853170 0.60927051 0.90196078 0.67450980 0.42745098
v 0.00000000 -0.02853170 0.60927051 0.90196078 0.67450980 0.42745098
v -0.70000000 -0.02853170 0.59072949 0.90196078 0.67450980 0.42745098
v 0.00000000 -0.02853170 0.59072949 0.90196078 0.67450980 0.42745098
v -0.70000000 -0.01763356 0.57572949 0.90196078 0.67450980 0.42745098
v 0.00000000 -0.01763356 0.57572949 0.90196078 0.67450980 0.42745098
f 814 813 817
f 814 817 815
f 815 817 818
f 815 818 816
f 817 813 819
f 817 819 818
f 818 819 820
f 818 820 816
f 819 813 821
f 819 821 820
f 820 821 822
f 820 822 816
f 821 813 823
f 821 823 822
f 822 823 824
f 822 824 816
f 823 813 825
f 823 825 824
f 824 825 826
f 824 826 816
f 825 813 827
f 825 827 826
f 826 827 828
f 826 828 816
f 827 813 829
f 827 829 828
f 828 829 830
f 828 830 816
f 829 813 831
f 829 831 830
f 830 831 832
f 830 832 816
f 831 813 833
f 831 833 832
f 832 833 834
f 832 834 816
f 833 813 814
f 833 814 834
f 834 814 815
f 834 815 816

o drum_10_21
v 0.70000000 0.00000000 0.77000000 0.32941176 0.81176471 0.48627451
v 1.00000000 0.00000000 0.77000000 0.32941176 0.81176471 0.48627451
v 1.00000000 0.00000000 1.23000000 0.32941176 0.81176471 0.48627451
v 0.70000000 0.00000000 1.23000000 0.32941176 0.81176471 0.48627451
v 0.99247837 0.06675628 0.77000000 0.32941176 0.81176471 0.48627451
v 0.99247837 0.06675628 1.23000000 0.32941176 0.81176471 0.48627451
v 0.97029066 0.13016512 0.77000000 0.32941176 0.81176471 0.48627451
v 0.97029066 0.13016512 1.23000000 0.32941176 0.81176471 0.48627451
v 0.93454944 0.18704694 0.77000000 0.32941176 0.81176471 0.48627451
v 0.93454944 0.18704694 1.23000000 0.32941176 0.81176471 0.48627451
v 0.88704694 0.23454944 0.77000000 0.32941176 0.81176471 0.48627451
v 0.88704694 0.23454944 1.23000000 0.32941176 0.81176471 0.48627451
v 0.83016512 0.27029066 0.77000000 0.32941176 0.81176471 0.48627451
v 0.83016512 0.27029066 1.23000000 0.32941176 0.81176471 0.48627451
v 0.76675628 0.29247837 0.77000000 0.32941176 0.81176471 0.48627451
v 0.76675628 0.29247837 1.23000000 0.32941176 0.81176471 0.48627451
v 0.70000000 0.30000000 0.77000000 0.32941176 0.81176471 0.48627451
v 0.70000000 0.30000000 1.23000000 0.32941176 0.81176471 0.48627451
v 0.63324372 0.29247837 0.77000000 0.32941176 0.81176471 0.48627451
v 0.63324372 0.29247837 1.23000000 0.32941176 0.81176471 0.48627451
v 0.56983488 0.27029066 0.77000000 0.32941176 0.81176471 0.48627451
v 0.56983488 0.27029066 1.23000000 0.32941176 0.81176471 0.48627451
v 0.51295306 0.23454944 0.77000000 0.32941176 0.81176471 0.48627451
v 0.51295306 0.23454944 1.23000000 0.32941176 0.81176471 0.48627451
v 0.46545056 0.18704694 0.77000000 0.32941176 0.81176471 0.48627451
v 0.46545056 0.18704694 1.23000000 0.32941176 0.81176471 0.48627451
v 0.42970934 0.13016512 0.77000000 0.32941176 0.81176471 0.48627451
v 0.42970934 0.13016512 1.23000000 0.32941176 0.81176471 0.48627451
v 0.40752163 0.06675628 0.77000000 0.32941176 0.81176471 0.48627451
v 0.40752163 0.06675628 1.23000000 0.32941176 0.81176471 0.48627451
v 0.40000000 0.00000000 0.77000000 0.32941176 0.81176471 0.48627451
v 0.40000000 0.00000000 1.23000000 0.32941176 0.81176471 0.48627451
v 0.40752163 -0.06675628 0.77000000 0.32941176 0.81176471 0.48627451
v 0.40752163 -0.06675628 1.23000000 0.32941176 0.81176471 0.48627451
v 0.42970934 -0.13016512 0.77000000 0.32941176 0.81176471 0.48627451
v 0.42970934 -0.13016512 1.23000000 0.32941176 0.81176471 0.48627451
v 0.46545056 -0.18704694 0.77000000 0.32941176 0.81176471 0.48627451
v 0.46545056 -0.18704694 1.23000000 0.32941176 0.81176471 0.48627451
v 0.51295306 -0.23454944 0.77000000 0.32941176 0.81176471 0.48627451
v 0.51295306 -0.23454944 1.23000000 0.32941176 0.81176471 0.48627451
v 0.56983488 -0.27029066 0.77000000 0.32941176 0.81176471 0.48627451
v 0.56983488 -0.27029066 1.23000000 0.32941176 0.81176471 0.48627451
v 0.63324372 -0.29247837 0.77000000 0.32941176 0.81176471 0.48627451
v 0.63324372 -0.29247837 1.23000000 0.32941176 0.81176471 0.48627451
v 0.70000000 -0.30000000 0.77000000 0.32941176 0.81176471 0.48627451
v 0.70000000 -0.30000000 1.23000000 0.32941176 0.81176471 0.48627451
v 0.76675628 -0.29247837 0.77000000 0.32941176 0.81176471 0.48627451
v 0.76675628 -0.29247837 1.23000000 0.32941176 0.81176471 0.48627451
v 0.83016512 -0.27029066 0.77000000 0.32941176 0.81176471 0.48627451
v 0.83016512 -0.27029066 1.23000000 0.32941176 0.81176471 0.48627451
v 0.88704694 -0.23454944 0.77000000 0.32941176 0.81176471 0.48627451
v 0.88704694 -0.23454944 1.23000000 0.32941176 0.81176471 0.48627451
v 0.93454944 -0.18704694 0.77000000 0.32941176 0.81176471 0.48627451
v 0.93454944 -0.18704694 1.23000000 0.32941176 0.81176471 0.48627451
v 0.97029066 -0.13016512 0.77000000 0.32941176 0.81176471 0.48627451
v 0.97029066 -0.13016512 1.23000000 0.32941176 0.81176471 0.48627451
v 0.99247837 -0.06675628 0.77000000 0.32941176 0.81176471 0.48627451
v 0.99247837 -0.06675628 1.23000000 0.32941176 0.81176471 0.48627451
f 836 835 839
f 836 839 837
f 837 839 840
f 837 840 838
f 839 835 841
f 839 841 840
f 840 841 842
f 840 842 838
f 841 835 843
f 841 843 842
f 842 843 844
f 842 844 838
f 843 835 845
f 843 845 844
f 844 845 846
f 844 846 838
f 845 835 847
f 845 847 846
f 846 847 848
f 846 848 838
f 847 835 849
f 847 849 848
f 848 849 850
f 848 850 838
f 849 835 851
f 849 851 850
f 850 851 852
f 850 852 838
f 851 835 853
f 851 853 852
f 852 853 854
f 852 854 838
f 853 835 855
f 853 855 854
f 854 855 856
f 854 856 838
f 855 835 857
f 855 857 856
f 856 857 858
f 856 858 838
f 857 835 859
f 857 859 858
f 858 859 860
f 858 860 838
f 859 835 861
f 859 861 860
f 860 861 862
f 860 862 838
f 861 835 863
f 861 863 862
f 862 863 864
f 862 864 838
f 863 835 865
f 863 865 864
f 864 865 866
f 864 866 838
f 865 835 867
f 865 867 866
f 866 867 868
f 866 868 838
f 867 835 869
f 867 869 868
f 868 869 870
f 868 870 838
f 869 835 871
f 869 871 870
f 870 871 872
f 870 872 838
f 871 835 873
f 871 873 872
f 872 873 874
f 872 874 838
f 873 835 875
f 873 875 874
f 874 875 876
f 874 876 838
f 875 835 877
f 875 877 876
f 876 877 878
f 876 878 838
f 877 835 879
f 877 879 878
f 878 879 880
f 878 880 838
f 879 835 881
f 879 881 880
f 880 881 882
f 880 882 838
f 881 835 883
f 881 883 882
f 882 883 884
f 882 884 838
f 883 835 885
f 883 885 884
f 884 885 886
f 884 886 838
f 885 835 887
f 885 887 886
f 886 887 888
f 886 888 838
f 887 835 889
f 887 889 888
f 888 889 890
f 888 890 838
f 889 835 891
f 889 891 890
f 890 891 892
f 890 892 838
f 891 835 836
f 891 836 892
f 892 836 837
f 892 837 838

o strut_10_22
v 0.00000000 0.00000000 1.00000000 0.90196078 0.67450980 0.42745098
v 0.00000000 0.00000000 0.97000000 0.90196078 0.67450980 0.42745098
v 0.70000000 0.00000000 0.97000000 0.90196078 0.67450980 0.42745098
v 0.70000000 0.00000000 1.00000000 0.90196078 0.67450980 0.42745098
v 0.00000000 0.01763356 0.97572949 0.90196078 0.67450980 0.42745098
v 0.70000000 0.01763356 0.97572949 0.90196078 0.67450980 0.42745098
v 0.00000000 0.02853170 0.99072949 0.90196078 0.67450980 0.42745098
v 0.70000000 0.02853170 0.99072949 0.90196078 0.67450980 0.42745098
v 0.00000000 0.02853170 1.00927051 0.90196078 0.67450980 0.42745098
v 0.70000000 0.02853170 1.00927051 0.90196078 0.67450980 0.42745098
v 0.00000000 0.01763356 1.02427051 0.90196078 0.67450980 0.42745098
v 0.70000000 0.01763356 1.02427051 0.90196078 0.67450980 0.42745098
v 0.00000000 0.00000000 1.03000000 0.90196078 0.67450980 0.42745098
v 0.70000000 0.00000000 1.03000000 0.90196078 0.67450980 0.42745098
v 0.00000000 -0.01763356 1.02427051 0.90196078 0.67450980 0.42745098
v 0.70000000 -0.01763356 1.02427051 0.90196078 0.67450980 0.42745098
v 0.00000000 -0.02853170 1.00927051 0.90196078 0.67450980 0.42745098
v 0.70000000 -0.02853170 1.00927051 0.90196078 0.67450980 0.42745098
v 0.00000000 -0.02853170 0.99072949 0.90196078 0.67450980 0.42745098
v 0.70000000 -0.02853170 0.99072949 0.90196078 0.67450980 0.42745098
v 0.00000000 -0.01763356 0.97572949 0.90196078 0.67450980 0.42745098
v 0.70000000 -0.01763356 0.97572949 0.90196078 0.67450980 0.42745098
f 894 893 897
f 894 897 895
f 895 897 898
f 895 898 896
f 897 893 899
f 897 899 898
f 898 899 900
f 898 900 896
f 899 893 901
f 899 901 900
f 900 901 902
f 900 902 896
f 901 893 903
f 901 903 902
f 902 903 904
f 902 904 896
f 903 893 905
f 903 905 904
f 904 905 906
f 904 906 896
f 905 893 907
f 905 907 906
f 906 907 908
f 906 908 896
f 907 893 909
f 907 909 908
f 908 909 910
f 908 910 896
f 909 893 911
f 909 911 910
f 910 911 912
f 910 912 896
f 911 893 913
f 911 913 912
f 912 913 914
f 912 914 896
f 913 893 894
f 913 894 914
f 914 894 895
f 914 895 896

o drum_11_23
v -0.70000000 0.00000000 0.77000000 0.32941176 0.81176471 0.48627451
v -0.40000000 0.00000000 0.77000000 0.32941176 0.81176471 0.48627451
v -0.40000000 0.00000000 1.23000000 0.32941176 0.81176471 0.48627451
v -0.70000000 0.00000000 1.23000000 0.32941176 0.81176471 0.48627451
v -0.40752163 0.06675628 0.77000000 0.32941176 0.81176471 0.48627451
v -0.40752163 0.06675628 1.23000000 0.32941176 0.81176471 0.48627451
v -0.42970934 0.13016512 0.77000000 0.32941176 0.81176471 0.48627451
v -0.42970934 0.13016512 1.23000000 0.32941176 0.81176471 0.48627451
v -0.46545056 0.18704694 0.77000000 0.32941176 0.81176471 0.48627451
v -0.46545056 0.18704694 1.23000000 0.32941176 0.81176471 0.48627451
v -0.51295306 0.23454944 0.77000000 0.32941176 0.81176471 0.48627451
v -0.51295306 0.23454944 1.23000000 0.32941176 0.81176471 0.48627451
v -0.56983488 0.27029066 0.77000000 0.32941176 0.81176471 0.48627451
v -0.56983488 0.27029066 1.23000000 0.32941176 0.81176471 0.48627451
v -0.63324372 0.29247837 0.77000000 0.32941176 0.81176471 0.48627451
v -0.63324372 0.29247837 1.23000000 0.32941176 0.81176471 0.48627451
v -0.70000000 0.30000000 0.77000000 0.32941176 0.81176471 0.48627451
v -0.70000000 0.30000000 1.23000000 0.32941176 0.81176471 0.48627451
v -0.76675628 0.29247837 0.77000000 0.32941176 0.81176471 0.48627451
v -0.76675628 0.29247837 1.23000000 0.32941176 0.81176471 0.48627451
v -0.83016512 0.27029066 0.77000000 0.32941176 0.81176471 0.48627451
v -0.83016512 0.27029066 1.23000000 0.32941176 0.81176471 0.48627451
v -0.88704694 0.23454944 0.77000000 0.32941176 0.81176471 0.48627451
v -0.88704694 0.23454944 1.23000000 0.32941176 0.81176471 0.48627451
v -0.93454944 0.18704694 0.77000000 0.32941176 0.81176471 0.48627451
v -0.93454944 0.18704694 1.23000000 0.32941176 0.81176471 0.48627451
v -0.97029066 0.13016512 0.77000000 0.32941176 0.81176471 0.48627451
v -0.97029066 0.13016512 1.23000000 0.32941176 0.81176471 0.48627451
v -0.99247837 0.06675628 0.77000000 0.32941176 0.81176471 0.48627451
v -0.99247837 0.06675628 1.23000000 0.32941176 0.81176471 0.48627451
v -1.00000000 0.00000000 0.77000000 0.32941176 0.81176471 0.48627451
v -1.00000000 0.00000000 1.23000000 0.32941176 0.81176471 0.48627451
v -0.99247837 -0.06675628 0.77000000 0.32941176 0.81176471 0.48627451
v -0.99247837 -0.06675628 1.23000000 0.32941176 0.81176471 0.48627451
v -0.97029066 -0.13016512 0.77000000 0.32941176 0.81176471 0.48627451
v -0.97029066 -0.13016512 1.23000000 0.32941176 0.81176471 0.48627451
v -0.93454944 -0.18704694 0.77000000 0.32941176 0.81176471 0.48627451
v -0.93454944 -0.18704694 1.23000000 0.32941176 0.81176471 0.48627451
v -0.88704694 -0.23454944 0.77000000 0.32941176 0.81176471 0.48627451
v -0.88704694 -0.23454944 1.23000000 0.32941176 0.81176471 0.48627451
v -0.83016512 -0.27029066 0.77000000 0.32941176 0.81176471 0.48627451
v -0.83016512 -0.27029066 1.23000000 0.32941176 0.81176471 0.48627451
v -0.76675628 -0.29247837 0.77000000 0.32941176 0.81176471 0.48627451
v -0.76675628 -0.29247837 1.23000000 0.32941176 0.81176471 0.48627451
v -0.70000000 -0.30000000 0.77000000 0.32941176 0.81176471 0.48627451
v -0.70000000 -0.30000000 1.23000000 0.32941176 0.81176471 0.48627451
v -0.63324372 -0.29247837 0.77000000 0.32941176 0.81176471 0.48627451
v -0.63324372 -0.29247837 1.23000000 0.32941176 0.81176471 0.48627451
v -0.56983488 -0.27029066 0.77000000 0.32941176 0.81176471 0.48627451
v -0.56983488 -0.27029066 1.23000000 0.32941176 0.81176471 0.48627451
v -0.51295306 -0.23454944 0.77000000 0.32941176 0.81176471 0.48627451
v -0.51295306 -0.23454944 1.23000000 0.32941176 0.81176471 0.48627451
v -0.46545056 -0.18704694 0.77000000 0.32941176 0.81176471 0.48627451
v -0.46545056 -0.18704694 1.23000000 0.32941176 0.81176471 0.48627451
v -0.42970934 -0.13016512 0.77000000 0.32941176 0.81176471 0.48627451
v -0.42970934 -0.13016512 1.23000000 0.32941176 0.81176471 0.48627451
v -0.40752163 -0.06675628 0.77000000 0.32941176 0.81176471 0.48627451
v -0.40752163 -0.06675628 1.23000000 0.32941176 0.81176471 0.48627451
f 916 915 919
f 916 919 917
f 917 919 920
f 917 920 918
f 919 915 921
f 919 921 920
f 920 921 922
f 920 922 918
f 921 915 923
f 921 923 922
f 922 923 924
f 922 924 918
f 923 915 925
f 923 925 924
f 924 925 926
f 924 926 918
f 925 915 927
f 925 927 926
f 926 927 928
f 926 928 918
f 927 915 929
f 927 929 928
f 928 929 930
f 928 930 918
f 929 915 931
f 929 931 930
f 930 931 932
f 930 932 918
f 931 915 933
f 931 933 932
f 932 933 934
f 932 934 918
f 933 915 935
f 933 935 934
f 934 935 936
f 934 936 918
f 935 915 937
f 935 937 936
f 936 937 938
f 936 938 918
f 937 915 939
f 937 939 938
f 938 939 940
f 938 940 918
f 939 915 941
f 939 941 940
f 940 941 942
f 940 942 918
f 941 915 943
f 941 943 942
f 942 943 944
f 942 944 918
f 943 915 945
f 943 945 944
f 944 945 946
f 944 946 918
f 945 915 947
f 945 947 946
f 946 947 948
f 946 948 918
f 947 915 949
f 947 949 948
f 948 949 950
f 948 950 918
f 949 915 951
f 949 951 950
f 950 951 952
f 950 952 918
f 951 915 953
f 951 953 952
f 952 953 954
f 952 954 918
f 953 915 955
f 953 955 954
f 954 955 956
f 954 956 918
f 955 915 957
f 955 957 956
f 956 957 958
f 956 958 918
f 957 915 959
f 957 959 958
f 958 959 960
f 958 960 918
f 959 915 961
f 959 961 960
f 960 961 962
f 960 962 918
f 961 915 963
f 961 963 962
f 962 963 964
f 962 964 918
f 963 915 965
f 963 965 964
f 964 965 966
f 964 966 918
f 965 915 967
f 965 967 966
f 966 967 968
f 966 968 918
f 967 915 969
f 967 969 968
f 968 969 970
f 968 970 918
f 969 915 971
f 969 971 970
f 970 971 972
f 970 972 918
f 971 915 916
f 971 916 972
f 972 916 917
f 972 917 918

o strut_11_24
v -0.70000000 0.00000000 1.00000000 0.90196078 0.67450980 0.42745098
v -0.70000000 0.00000000 0.97000000 0.90196078 0.67450980 0.42745098
v 0.00000000 0.00000000 0.97000000 0.90196078 0.67450980 0.42745098
v 0.00000000 0.00000000 1.00000000 0.90196078 0.67450980 0.42745098
v -0.70000000 0.01763356 0.97572949 0.90196078 0.67450980 0.42745098
v 0.00000000 0.01763356 0.97572949 0.90196078 0.67450980 0.42745098
v -0.70000000 0.02853170 0.99072949 0.90196078 0.67450980 0.42745098
v 0.00000000 0.02853170 0.99072949 0.90196078 0.67450980 0.42745098
v -0.70000000 0.02853170 1.00927051 0.90196078 0.67450980 0.42745098
v 0.00000000 0.02853170 1.00927051 0.90196078 0.67450980 0.42745098
v -0.70000000 0.01763356 1.02427051 0.90196078 0.67450980 0.42745098
v 0.00000000 0.01763356 1.02427051 0.90196078 0.67450980 0.42745098
v -0.70000000 0.00000000 1.03000000 0.90196078 0.67450980 0.42745098
v 0.00000000 0.00000000 1.03000000 0.90196078 0.67450980 0.42745098
v -0.70000000 -0.01763356 1.02427051 0.90196078 0.67450980 0.42745098
v 0.00000000 -0.01763356 1.02427051 0.90196078 0.67450980 0.42745098
v -0.70000000 -0.02853170 1.00927051 0.90196078 0.67450980 0.42745098
v 0.00000000 -0.02853170 1.00927051 0.90196078 0.67450980 0.42745098
v -0.70000000 -0.02853170 0.99072949 0.90196078 0.67450980 0.42745098
v 0.00000000 -0.02853170 0.99072949 0.90196078 0.67450980 0.42745098
v -0.70000000 -0.01763356 0.97572949 0.90196078 0.67450980 0.42745098
v 0.00000000 -0.01763356 0.97572949 0.90196078 0.67450980 0.42745098
f 974 973 977
f 974 977 975
f 975 977 978
f 975 978 976
f 977 973 979
f 977 979 978
f 978 979 980
f 978 980 976
f 979 973 981
f 979 981 980
f 980 981 982
f 980 982 976
f 981 973 983
f 981 983 982
f 982 983 984
f 982 984 976
f 983 973 985
f 983 985 984
f 984 985 986
f 984 986 976
f 985 973 987
f 985 987 986
f 986 987 988
f 986 988 976
f 987 973 989
f 987 989 988
f 988 989 990
f 988 990 976
f 989 973 991
f 989 991 990
f 990 991 992
f 990 992 976
f 991 973 993
f 991 993 992
f 992 993 994
f 992 994 976
f 993 973 974
f 993 974 994
f 994 974 975
f 994 975 976

