# https://github.com/mikedh/trimesh

o dome_0
v 0.00000000 0.00000000 0.62000000 0.32941176 0.81176471 0.48627451
v 0.10452846 0.00000000 0.61660358 0.32941176 0.81176471 0.48627451
v 0.10346451 0.01487595 0.61660358 0.32941176 0.81176471 0.48627451
v 0.10029433 0.02944907 0.61660358 0.32941176 0.81176471 0.48627451
v 0.09508243 0.04342269 0.61660358 0.32941176 0.81176471 0.48627451
v 0.08793494 0.05651235 0.61660358 0.32941176 0.81176471 0.48627451
v 0.07899734 0.06845159 0.61660358 0.32941176 0.81176471 0.48627451
v 0.06845159 0.07899734 0.61660358 0.32941176 0.81176471 0.48627451
v 0.05651235 0.08793494 0.61660358 0.32941176 0.81176471 0.48627451
v 0.04342269 0.09508243 0.61660358 0.32941176 0.81176471 0.48627451
v 0.02944907 0.10029433 0.61660358 0.32941176 0.81176471 0.48627451
v 0.01487595 0.10346451 0.61660358 0.32941176 0.81176471 0.48627451
v 0.00000000 0.10452846 0.61660358 0.32941176 0.81176471 0.48627451
v -0.01487595 0.10346451 0.61660358 0.32941176 0.81176471 0.48627451
v -0.02944907 0.10029433 0.61660358 0.32941176 0.81176471 0.48627451
v -0.04342269 0.09508243 0.61660358 0.32941176 0.81176471 0.48627451
v -0.05651235 0.08793494 0.61660358 0.32941176 0.81176471 0.48627451
v -0.06845159 0.07899734 0.61660358 0.32941176 0.81176471 0.48627451
v -0.07899734 0.06845159 0.61660358 0.32941176 0.81176471 0.48627451
v -0.08793494 0.05651235 0.61660358 0.32941176 0.81176471 0.48627451
v -0.09508243 0.04342269 0.61660358 0.32941176 0.81176471 0.48627451
v -0.10029433 0.02944907 0.61660358 0.32941176 0.81176471 0.48627451
v -0.10346451 0.01487595 0.61660358 0.32941176 0.81176471 0.48627451
v -0.10452846 0.00000000 0.61660358 0.32941176 0.81176471 0.48627451
v -0.10346451 -0.01487595 0.61660358 0.32941176 0.81176471 0.48627451
v -0.10029433 -0.02944907 0.61660358 0.32941176 0.81176471 0.48627451
v -0.09508243 -0.04342269 0.61660358 0.32941176 0.81176471 0.48627451
v -0.08793494 -0.05651235 0.61660358 0.32941176 0.81176471 0.48627451
v -0.07899734 -0.06845159 0.61660358 0.32941176 0.81176471 0.48627451
v -0.06845159 -0.07899734 0.61660358 0.32941176 0.81176471 0.48627451
v -0.05651235 -0.08793494 0.61660358 0.32941176 0.81176471 0.48627451
v -0.04342269 -0.09508243 0.61660358 0.32941176 0.81176471 0.48627451
v -0.02944907 -0.10029433 0.61660358 0.32941176 0.81176471 0.48627451
v -0.01487595 -0.10346451 0.61660358 0.32941176 0.81176471 0.48627451
v -0.00000000 -0.10452846 0.61660358 0.32941176 0.81176471 0.48627451
v 0.01487595 -0.10346451 0.61660358 0.32941176 0.81176471 0.48627451
v 0.02944907 -0.10029433 0.61660358 0.32941176 0.81176471 0.48627451
v 0.04342269 -0.09508243 0.61660358 0.32941176 0.81176471 0.48627451
v 0.05651235 -0.08793494 0.61660358 0.32941176 0.81176471 0.48627451
v 0.06845159 -0.07899734 0.61660358 0.32941176 0.81176471 0.48627451
v 0.07899734 -0.06845159 0.61660358 0.32941176 0.81176471 0.48627451
v 0.08793494 -0.05651235 0.61660358 0.32941176 0.81176471 0.48627451
v 0.09508243 -0.04342269 0.61660358 0.32941176 0.81176471 0.48627451
v 0.10029433 -0.02944907 0.61660358 0.32941176 0.81176471 0.48627451
v 0.10346451 -0.01487595 0.61660358 0.32941176 0.81176471 0.48627451
v 0.20791169 0.00000000 0.60645151 0.32941176 0.81176471 0.48627451
v 0.20579545 0.02958892 0.60645151 0.32941176 0.81176471 0.48627451
v 0.19948981 0.05857549 0.60645151 0.32941176 0.81176471 0.48627451
v 0.18912313 0.08636964 0.60645151 0.32941176 0.81176471 0.48627451
v 0.17490644 0.11240555 0.60645151 0.32941176 0.81176471 0.48627451
v 0.15712917 0.13615320 0.60645151 0.32941176 0.81176471 0.48627451
v 0.13615320 0.15712917 0.60645151 0.32941176 0.81176471 0.48627451
v 0.11240555 0.17490644 0.60645151 0.32941176 0.81176471 0.48627451
v 0.08636964 0.18912313 0.60645151 0.32941176 0.81176471 0.48627451
v 0.05857549 0.19948981 0.60645151 0.32941176 0.81176471 0.48627451
v 0.02958892 0.20579545 0.60645151 0.32941176 0.81176471 0.48627451
v 0.00000000 0.20791169 0.60645151 0.32941176 0.81176471 0.48627451
v -0.02958892 0.20579545 0.60645151 0.32941176 0.81176471 0.48627451
v -0.05857549 0.19948981 0.60645151 0.32941176 0.81176471 0.48627451
v -0.08636964 0.18912313 0.60645151 0.32941176 0.81176471 0.48627451
v -0.11240555 0.17490644 0.60645151 0.32941176 0.81176471 0.48627451
v -0.13615320 0.15712917 0.60645151 0.32941176 0.81176471 0.48627451
v -0.15712917 0.13615320 0.60645151 0.32941176 0.81176471 0.48627451
v -0.17490644 0.11240555 0.60645151 0.32941176 0.81176471 0.48627451
v -0.18912313 0.08636964 0.60645151 0.32941176 0.81176471 0.48627451
v -0.19948981 0.05857549 0.60645151 0.32941176 0.81176471 0.48627451
v -0.20579545 0.02958892 0.60645151 0.32941176 0.81176471 0.48627451
v -0.20791169 0.00000000 0.60645151 0.32941176 0.81176471 0.48627451
v -0.20579545 -0.02958892 0.60645151 0.32941176 0.81176471 0.48627451
v -0.19948981 -0.05857549 0.60645151 0.32941176 0.81176471 0.48627451
v -0.18912313 -0.08636964 0.60645151 0.32941176 0.81176471 0.48627451
v -0.17490644 -0.11240555 0.60645151 0.32941176 0.81176471 0.48627451
v -0.15712917 -0.13615320 0.60645151 0.32941176 0.81176471 0.48627451
v -0.13615320 -0.15712917 0.60645151 0.32941176 0.81176471 0.48627451
v -0.11240555 -0.17490644 0.60645151 0.32941176 0.81176471 0.48627451
v -0.08636964 -0.18912313 0.60645151 0.32941176 0.81176471 0.48627451
v -0.05857549 -0.19948981 0.60645151 0.32941176 0.81176471 0.48627451
v -0.02958892 -0.20579545 0.60645151 0.32941176 0.81176471 0.48627451
v -0.00000000 -0.20791169 0.60645151 0.32941176 0.81176471 0.48627451
v 0.02958892 -0.20579545 0.60645151 0.32941176 0.81176471 0.48627451
v 0.05857549 -0.19948981 0.60645151 0.32941176 0.81176471 0.48627451
v 0.08636964 -0.18912313 0.60645151 0.32941176 0.81176471 0.48627451
v 0.11240555 -0.17490644 0.60645151 0.32941176 0.81176471 0.48627451
v 0.13615320 -0.15712917 0.60645151 0.32941176 0.81176471 0.48627451
v 0.15712917 -0.13615320 0.60645151 0.32941176 0.81176471 0.48627451
v 0.17490644 -0.11240555 0.60645151 0.32941176 0.81176471 0.48627451
v 0.18912313 -0.08636964 0.60645151 0.32941176 0.81176471 0.48627451
v 0.19948981 -0.05857549 0.60645151 0.32941176 0.81176471 0.48627451
v 0.20579545 -0.02958892 0.60645151 0.32941176 0.81176471 0.48627451
v 0.30901699 0.00000000 0.58965504 0.32941176 0.81176471 0.48627451
v 0.30587165 0.04397770 0.58965504 0.32941176 0.81176471 0.48627451
v 0.29649963 0.08706015 0.58965504 0.32941176 0.81176471 0.48627451
v 0.28109175 0.12837030 0.58965504 0.32941176 0.81176471 0.48627451
v 0.25996164 0.16706720 0.58965504 0.32941176 0.81176471 0.48627451
v 0.23353946 0.20236310 0.58965504 0.32941176 0.81176471 0.48627451
v 0.20236310 0.23353946 0.58965504 0.32941176 0.81176471 0.48627451
v 0.16706720 0.25996164 0.58965504 0.32941176 0.81176471 0.48627451
v 0.12837030 0.28109175 0.58965504 0.32941176 0.81176471 0.48627451
v 0.08706015 0.29649963 0.58965504 0.32941176 0.81176471 0.48627451
v 0.04397770 0.30587165 0.58965504 0.32941176 0.81176471 0.48627451
v 0.00000000 0.30901699 0.58965504 0.32941176 0.81176471 0.48627451
v -0.04397770 0.30587165 0.58965504 0.32941176 0.81176471 0.48627451
v -0.08706015 0.29649963 0.58965504 0.32941176 0.81176471 0.48627451
v -0.12837030 0.28109175 0.58965504 0.32941176 0.81176471 0.48627451
v -0.16706720 0.25996164 0.58965504 0.32941176 0.81176471 0.48627451
v -0.20236310 0.23353946 0.58965504 0.32941176 0.81176471 0.48627451
v -0.23353946 0.20236310 0.58965504 0.32941176 0.81176471 0.48627451
v -0.25996164 0.16706720 0.58965504 0.32941176 0.81176471 0.48627451
v -0.28109175 0.12837030 0.58965504 0.32941176 0.81176471 0.48627451
v -0.29649963 0.08706015 0.58965504 0.32941176 0.81176471 0.48627451
v -0.30587165 0.04397770 0.58965504 0.32941176 0.81176471 0.48627451
v -0.30901699 0.00000000 0.58965504 0.32941176 0.81176471 0.48627451
v -0.30587165 -0.04397770 0.58965504 0.32941176 0.81176471 0.48627451
v -0.29649963 -0.08706015 0.58965504 0.32941176 0.81176471 0.48627451
v -0.28109175 -0.12837030 0.58965504 0.32941176 0.81176471 0.48627451
v -0.25996164 -0.16706720 0.58965504 0.32941176 0.81176471 0.48627451
v -0.23353946 -0.20236310 0.58965504 0.32941176 0.81176471 0.48627451
v -0.20236310 -0.23353946 0.58965504 0.32941176 0.81176471 0.48627451
v -0.16706720 -0.25996164 0.58965504 0.32941176 0.81176471 0.48627451
v -0.12837030 -0.28109175 0.58965504 0.32941176 0.81176471 0.48627451
v -0.08706015 -0.29649963 0.58965504 0.32941176 0.81176471 0.48627451
v -0.04397770 -0.30587165 0.58965504 0.32941176 0.81176471 0.48627451
v -0.00000000 -0.30901699 0.58965504 0.32941176 0.81176471 0.48627451
v 0.04397770 -0.30587165 0.58965504 0.32941176 0.81176471 0.48627451
v 0.08706015 -0.29649963 0.58965504 0.32941176 0.81176471 0.48627451
v 0.12837030 -0.28109175 0.58965504 0.32941176 0.81176471 0.48627451
v 0.16706720 -0.25996164 0.58965504 0.32941176 0.81176471 0.48627451
v 0.20236310 -0.23353946 0.58965504 0.32941176 0.81176471 0.48627451
v 0.23353946 -0.20236310 0.58965504 0.32941176 0.81176471 0.48627451
v 0.25996164 -0.16706720 0.58965504 0.32941176 0.81176471 0.48627451
v 0.28109175 -0.12837030 0.58965504 0.32941176 0.81176471 0.48627451
v 0.29649963 -0.08706015 0.58965504 0.32941176 0.81176471 0.48627451
v 0.30587165 -0.04397770 0.58965504 0.32941176 0.81176471 0.48627451
v 0.40673664 0.00000000 0.56639818 0.32941176 0.81176471 0.48627451
v 0.40259665 0.05788466 0.56639818 0.32941176 0.81176471 0.48627451
v 0.39026095 0.11459095 0.56639818 0.32941176 0.81176471 0.48627451
v 0.36998066 0.16896451 0.56639818 0.32941176 0.81176471 0.48627451
v 0.34216864 0.21989843 0.56639818 0.32941176 0.81176471 0.48627451
v 0.30739104 0.26635586 0.56639818 0.32941176 0.81176471 0.48627451
v 0.26635586 0.30739104 0.56639818 0.32941176 0.81176471 0.48627451
v 0.21989843 0.34216864 0.56639818 0.32941176 0.81176471 0.48627451
v 0.16896451 0.36998066 0.56639818 0.32941176 0.81176471 0.48627451
v 0.11459095 0.39026095 0.56639818 0.32941176 0.81176471 0.48627451
v 0.05788466 0.40259665 0.56639818 0.32941176 0.81176471 0.48627451
v 0.00000000 0.40673664 0.56639818 0.32941176 0.81176471 0.48627451
v -0.05788466 0.40259665 0.56639818 0.32941176 0.81176471 0.48627451
v -0.11459095 0.39026095 0.56639818 0.32941176 0.81176471 0.48627451
v -0.16896451 0.36998066 0.56639818 0.32941176 0.81176471 0.48627451
v -0.21989843 0.34216864 0.56639818 0.32941176 0.81176471 0.48627451
v -0.26635586 0.30739104 0.56639818 0.32941176 0.81176471 0.48627451
v -0.30739104 0.26635586 0.56639818 0.32941176 0.81176471 0.48627451
v -0.34216864 0.21989843 0.56639818 0.32941176 0.81176471 0.48627451
v -0.36998066 0.16896451 0.56639818 0.32941176 0.81176471 0.48627451
v -0.39026095 0.11459095 0.56639818 0.32941176 0.81176471 0.48627451
v -0.40259665 0.05788466 0.56639818 0.32941176 0.81176471 0.48627451
v -0.40673664 0.00000000 0.56639818 0.32941176 0.81176471 0.48627451
v -0.40259665 -0.05788466 0.56639818 0.32941176 0.81176471 0.48627451
v -0.39026095 -0.11459095 0.56639818 0.32941176 0.81176471 0.48627451
v -0.36998066 -0.16896451 0.56639818 0.32941176 0.81176471 0.48627451
v -0.34216864 -0.21989843 0.56639818 0.32941176 0.81176471 0.48627451
v -0.30739104 -0.26635586 0.56639818 0.32941176 0.81176471 0.48627451
v -0.26635586 -0.30739104 0.56639818 0.32941176 0.81176471 0.48627451
v -0.21989843 -0.34216864 0.56639818 0.32941176 0.81176471 0.48627451
v -0.16896451 -0.36998066 0.56639818 0.32941176 0.81176471 0.48627451
v -0.11459095 -0.39026095 0.56639818 0.32941176 0.81176471 0.48627451
v -0.05788466 -0.40259665 0.56639818 0.32941176 0.81176471 0.48627451
v -0.00000000 -0.40673664 0.56639818 0.32941176 0.81176471 0.48627451
v 0.05788466 -0.40259665 0.56639818 0.32941176 0.81176471 0.48627451
v 0.11459095 -0.39026095 0.56639818 0.32941176 0.81176471 0.48627451
v 0.16896451 -0.36998066 0.56639818 0.32941176 0.81176471 0.48627451
v 0.21989843 -0.34216864 0.56639818 0.32941176 0.81176471 0.48627451
v 0.26635586 -0.30739104 0.56639818 0.32941176 0.81176471 0.48627451
v 0.30739104 -0.26635586 0.56639818 0.32941176 0.81176471 0.48627451
v 0.34216864 -0.21989843 0.56639818 0.32941176 0.81176471 0.48627451
v 0.36998066 -0.16896451 0.56639818 0.32941176 0.81176471 0.48627451
v 0.39026095 -0.11459095 0.56639818 0.32941176 0.81176471 0.48627451
v 0.40259665 -0.05788466 0.56639818 0.32941176 0.81176471 0.48627451
v 0.50000000 0.00000000 0.53693575 0.32941176 0.81176471 0.48627451
v 0.49491072 0.07115742 0.53693575 0.32941176 0.81176471 0.48627451
v 0.47974649 0.14086628 0.53693575 0.32941176 0.81176471 0.48627451
v 0.45481600 0.20770751 0.53693575 0.32941176 0.81176471 0.48627451
v 0.42062677 0.27032041 0.53693575 0.32941176 0.81176471 0.48627451
v 0.37787479 0.32743037 0.53693575 0.32941176 0.81176471 0.48627451
v 0.32743037 0.37787479 0.53693575 0.32941176 0.81176471 0.48627451
v 0.27032041 0.42062677 0.53693575 0.32941176 0.81176471 0.48627451
v 0.20770751 0.45481600 0.53693575 0.32941176 0.81176471 0.48627451
v 0.14086628 0.47974649 0.53693575 0.32941176 0.81176471 0.48627451
v 0.07115742 0.49491072 0.53693575 0.32941176 0.81176471 0.48627451
v 0.00000000 0.50000000 0.53693575 0.32941176 0.81176471 0.48627451
v -0.07115742 0.49491072 0.53693575 0.32941176 0.81176471 0.48627451
v -0.14086628 0.47974649 0.53693575 0.32941176 0.81176471 0.48627451
v -0.20770751 0.45481600 0.53693575 0.32941176 0.81176471 0.48627451
v -0.27032041 0.42062677 0.53693575 0.32941176 0.81176471 0.48627451
v -0.32743037 0.37787479 0.53693575 0.32941176 0.81176471 0.48627451
v -0.37787479 0.32743037 0.53693575 0.32941176 0.81176471 0.48627451
v -0.42062677 0.27032041 0.53693575 0.32941176 0.81176471 0.48627451
v -0.45481600 0.20770751 0.53693575 0.32941176 0.81176471 0.48627451
v -0.47974649 0.14086628 0.53693575 0.32941176 0.81176471 0.48627451
v -0.49491072 0.07115742 0.53693575 0.32941176 0.81176471 0.48627451
v -0.50000000 0.00000000 0.53693575 0.32941176 0.81176471 0.48627451
v -0.49491072 -0.07115742 0.53693575 0.32941176 0.81176471 0.48627451
v -0.47974649 -0.14086628 0.53693575 0.32941176 0.81176471 0.48627451
v -0.45481600 -0.20770751 0.53693575 0.32941176 0.81176471 0.48627451
v -0.42062677 -0.27032041 0.53693575 0.32941176 0.81176471 0.48627451
v -0.37787479 -0.32743037 0.53693575 0.32941176 0.81176471 0.48627451
v -0.32743037 -0.37787479 0.53693575 0.32941176 0.81176471 0.48627451
v -0.27032041 -0.42062677 0.53693575 0.32941176 0.81176471 0.48627451
v -0.20770751 -0.45481600 0.53693575 0.32941176 0.81176471 0.48627451
v -0.14086628 -0.47974649 0.53693575 0.32941176 0.81176471 0.48627451
v -0.07115742 -0.49491072 0.53693575 0.32941176 0.81176471 0.48627451
v -0.00000000 -0.50000000 0.53693575 0.32941176 0.81176471 0.48627451
v 0.07115742 -0.49491072 0.53693575 0.32941176 0.81176471 0.48627451
v 0.14086628 -0.47974649 0.53693575 0.32941176 0.81176471 0.48627451
v 0.20770751 -0.45481600 0.53693575 0.32941176 0.81176471 0.48627451
v 0.27032041 -0.42062677 0.53693575 0.32941176 0.81176471 0.48627451
v 0.32743037 -0.37787479 0.53693575 0.32941176 0.81176471 0.48627451
v 0.37787479 -0.32743037 0.53693575 0.32941176 0.81176471 0.48627451
v 0.42062677 -0.27032041 0.53693575 0.32941176 0.81176471 0.48627451
v 0.45481600 -0.20770751 0.53693575 0.32941176 0.81176471 0.48627451
v 0.47974649 -0.14086628 0.53693575 0.32941176 0.81176471 0.48627451
v 0.49491072 -0.07115742 0.53693575 0.32941176 0.81176471 0.48627451
v 0.58778525 0.00000000 0.50159054 0.32941176 0.81176471 0.48627451
v 0.58180245 0.08365056 0.50159054 0.32941176 0.81176471 0.48627451
v 0.56397582 0.16559824 0.50159054 0.32941176 0.81176471 0.48627451
v 0.53466827 0.24417482 0.50159054 0.32941176 0.81176471 0.48627451
v 0.49447642 0.31778070 0.50159054 0.32941176 0.81176471 0.48627451
v 0.44421845 0.38491748 0.50159054 0.32941176 0.81176471 0.48627451
v 0.38491748 0.44421845 0.50159054 0.32941176 0.81176471 0.48627451
v 0.31778070 0.49447642 0.50159054 0.32941176 0.81176471 0.48627451
v 0.24417482 0.53466827 0.50159054 0.32941176 0.81176471 0.48627451
v 0.16559824 0.56397582 0.50159054 0.32941176 0.81176471 0.48627451
v 0.08365056 0.58180245 0.50159054 0.32941176 0.81176471 0.48627451
v 0.00000000 0.58778525 0.50159054 0.32941176 0.81176471 0.48627451
v -0.08365056 0.58180245 0.50159054 0.32941176 0.81176471 0.48627451
v -0.16559824 0.56397582 0.50159054 0.32941176 0.81176471 0.48627451
v -0.24417482 0.53466827 0.50159054 0.32941176 0.81176471 0.48627451
v -0.31778070 0.49447642 0.50159054 0.32941176 0.81176471 0.48627451
v -0.38491748 0.44421845 0.50159054 0.32941176 0.81176471 0.48627451
v -0.44421845 0.38491748 0.50159054 0.32941176 0.81176471 0.48627451
v -0.49447642 0.31778070 0.50159054 0.32941176 0.81176471 0.48627451
v -0.53466827 0.24417482 0.50159054 0.32941176 0.81176471 0.48627451
v -0.56397582 0.16559824 0.50159054 0.32941176 0.81176471 0.48627451
v -0.58180245 0.08365056 0.50159054 0.32941176 0.81176471 0.48627451
v -0.58778525 0.00000000 0.50159054 0.32941176 0.81176471 0.48627451
v -0.58180245 -0.08365056 0.50159054 0.32941176 0.81176471 0.48627451
v -0.56397582 -0.16559824 0.50159054 0.32941176 0.81176471 0.48627451
v -0.53466827 -0.24417482 0.50159054 0.32941176 0.81176471 0.48627451
v -0.49447642 -0.31778070 0.50159054 0.32941176 0.81176471 0.48627451
v -0.44421845 -0.38491748 0.50159054 0.32941176 0.81176471 0.48627451
v -0.38491748 -0.44421845 0.50159054 0.32941176 0.81176471 0.48627451
v -0.31778070 -0.49447642 0.50159054 0.32941176 0.81176471 0.48627451
v -0.24417482 -0.53466827 0.50159054 0.32941176 0.81176471 0.48627451
v -0.16559824 -0.56397582 0.50159054 0.32941176 0.81176471 0.48627451
v -0.08365056 -0.58180245 0.50159054 0.32941176 0.81176471 0.48627451
v -0.00000000 -0.58778525 0.50159054 0.32941176 0.81176471 0.48627451
v 0.08365056 -0.58180245 0.50159054 0.32941176 0.81176471 0.48627451
v 0.16559824 -0.56397582 0.50159054 0.32941176 0.81176471 0.48627451
v 0.24417482 -0.53466827 0.50159054 0.32941176 0.81176471 0.48627451
v 0.31778070 -0.49447642 0.50159054 0.32941176 0.81176471 0.48627451
v 0.38491748 -0.44421845 0.50159054 0.32941176 0.81176471 0.48627451
v 0.44421845 -0.38491748 0.50159054 0.32941176 0.81176471 0.48627451
v 0.49447642 -0.31778070 0.50159054 0.32941176 0.81176471 0.48627451
v 0.53466827 -0.24417482 0.50159054 0.32941176 0.81176471 0.48627451
v 0.56397582 -0.16559824 0.50159054 0.32941176 0.81176471 0.48627451
v 0.58180245 -0.08365056 0.50159054 0.32941176 0.81176471 0.48627451
v 0.66913061 0.00000000 0.46074979 0.32941176 0.81176471 0.48627451
v 0.66231982 0.09522721 0.46074979 0.32941176 0.81176471 0.48627451
v 0.64202612 0.18851588 0.46074979 0.32941176 0.81176471 0.48627451
v 0.60866261 0.27796690 0.46074979 0.32941176 0.81176471 0.48627451
v 0.56290849 0.36175932 0.46074979 0.32941176 0.81176471 0.48627451
v 0.50569517 0.43818736 0.46074979 0.32941176 0.81176471 0.48627451
v 0.43818736 0.50569517 0.46074979 0.32941176 0.81176471 0.48627451
v 0.36175932 0.56290849 0.46074979 0.32941176 0.81176471 0.48627451
v 0.27796690 0.60866261 0.46074979 0.32941176 0.81176471 0.48627451
v 0.18851588 0.64202612 0.46074979 0.32941176 0.81176471 0.48627451
v 0.09522721 0.66231982 0.46074979 0.32941176 0.81176471 0.48627451
v 0.00000000 0.66913061 0.46074979 0.32941176 0.81176471 0.48627451
v -0.09522721 0.66231982 0.46074979 0.32941176 0.81176471 0.48627451
v -0.18851588 0.64202612 0.46074979 0.32941176 0.81176471 0.48627451
v -0.27796690 0.60866261 0.46074979 0.32941176 0.81176471 0.48627451
v -0.36175932 0.56290849 0.46074979 0.32941176 0.81176471 0.48627451
v -0.43818736 0.50569517 0.46074979 0.32941176 0.81176471 0.48627451
v -0.50569517 0.43818736 0.46074979 0.32941176 0.81176471 0.48627451
v -0.56290849 0.36175932 0.46074979 0.32941176 0.81176471 0.48627451
v -0.60866261 0.27796690 0.46074979 0.32941176 0.81176471 0.48627451
v -0.64202612 0.18851588 0.46074979 0.32941176 0.81176471 0.48627451
v -0.66231982 0.09522721 0.46074979 0.32941176 0.81176471 0.48627451
v -0.66913061 0.00000000 0.46074979 0.32941176 0.81176471 0.48627451
v -0.66231982 -0.09522721 0.46074979 0.32941176 0.81176471 0.48627451
v -0.64202612 -0.18851588 0.46074979 0.32941176 0.81176471 0.48627451
v -0.60866261 -0.27796690 0.46074979 0.32941176 0.81176471 0.48627451
v -0.56290849 -0.36175932 0.46074979 0.32941176 0.81176471 0.48627451
v -0.50569517 -0.43818736 0.46074979 0.32941176 0.81176471 0.48627451
v -0.43818736 -0.50569517 0.46074979 0.32941176 0.81176471 0.48627451
v -0.36175932 -0.56290849 0.46074979 0.32941176 0.81176471 0.48627451
v -0.27796690 -0.60866261 0.46074979 0.32941176 0.81176471 0.48627451
v -0.18851588 -0.64202612 0.46074979 0.32941176 0.81176471 0.48627451
v -0.09522721 -0.66231982 0.46074979 0.32941176 0.81176471 0.48627451
v -0.00000000 -0.66913061 0.46074979 0.32941176 0.81176471 0.48627451
v 0.09522721 -0.66231982 0.46074979 0.32941176 0.81176471 0.48627451
v 0.18851588 -0.64202612 0.46074979 0.32941176 0.81176471 0.48627451
v 0.27796690 -0.60866261 0.46074979 0.32941176 0.81176471 0.48627451
v 0.36175932 -0.56290849 0.46074979 0.32941176 0.81176471 0.48627451
v 0.43818736 -0.50569517 0.46074979 0.32941176 0.81176471 0.48627451
v 0.50569517 -0.43818736 0.46074979 0.32941176 0.81176471 0.48627451
v 0.56290849 -0.36175932 0.46074979 0.32941176 0.81176471 0.48627451
v 0.60866261 -0.27796690 0.46074979 0.32941176 0.81176471 0.48627451
v 0.64202612 -0.18851588 0.46074979 0.32941176 0.81176471 0.48627451
v 0.66231982 -0.09522721 0.46074979 0.32941176 0.81176471 0.48627451
v 0.74314483 0.00000000 0.41486098 0.32941176 0.81176471 0.48627451
v 0.73558068 0.10576054 0.41486098 0.32941176 0.81176471 0.48627451
v 0.71304224 0.20936809 0.41486098 0.32941176 0.81176471 0.48627451
v 0.67598831 0.30871352 0.41486098 0.32941176 0.81176471 0.48627451
v 0.62517321 0.40177443 0.41486098 0.32941176 0.81176471 0.48627451
v 0.56163139 0.48665637 0.41486098 0.32941176 0.81176471 0.48627451
v 0.48665637 0.56163139 0.41486098 0.32941176 0.81176471 0.48627451
v 0.40177443 0.62517321 0.41486098 0.32941176 0.81176471 0.48627451
v 0.30871352 0.67598831 0.41486098 0.32941176 0.81176471 0.48627451
v 0.20936809 0.71304224 0.41486098 0.32941176 0.81176471 0.48627451
v 0.10576054 0.73558068 0.41486098 0.32941176 0.81176471 0.48627451
v 0.00000000 0.74314483 0.41486098 0.32941176 0.81176471 0.48627451
v -0.10576054 0.73558068 0.41486098 0.32941176 0.81176471 0.48627451
v -0.20936809 0.71304224 0.41486098 0.32941176 0.81176471 0.48627451
v -0.30871352 0.67598831 0.41486098 0.32941176 0.81176471 0.48627451
v -0.40177443 0.62517321 0.41486098 0.32941176 0.81176471 0.48627451
v -0.48665637 0.56163139 0.41486098 0.32941176 0.81176471 0.48627451
v -0.56163139 0.48665637 0.41486098 0.32941176 0.81176471 0.48627451
v -0.62517321 0.40177443 0.41486098 0.32941176 0.81176471 0.48627451
v -0.67598831 0.30871352 0.41486098 0.32941176 0.81176471 0.48627451
v -0.71304224 0.20936809 0.41486098 0.32941176 0.81176471 0.48627451
v -0.73558068 0.10576054 0.41486098 0.32941176 0.81176471 0.48627451
v -0.74314483 0.00000000 0.41486098 0.32941176 0.81176471 0.48627451
v -0.73558068 -0.10576054 0.41486098 0.32941176 0.81176471 0.48627451
v -0.71304224 -0.20936809 0.41486098 0.32941176 0.81176471 0.48627451
v -0.67598831 -0.30871352 0.41486098 0.32941176 0.81176471 0.48627451
v -0.62517321 -0.40177443 0.41486098 0.32941176 0.81176471 0.48627451
v -0.56163139 -0.48665637 0.41486098 0.32941176 0.81176471 0.48627451
v -0.48665637 -0.56163139 0.41486098 0.32941176 0.81176471 0.48627451
v -0.40177443 -0.62517321 0.41486098 0.32941176 0.81176471 0.48627451
v -0.30871352 -0.67598831 0.41486098 0.32941176 0.81176471 0.48627451
v -0.20936809 -0.71304224 0.41486098 0.32941176 0.81176471 0.48627451
v -0.10576054 -0.73558068 0.41486098 0.32941176 0.81176471 0.48627451
v -0.00000000 -0.74314483 0.41486098 0.32941176 0.81176471 0.48627451
v 0.10576054 -0.73558068 0.41486098 0.32941176 0.81176471 0.48627451
v 0.20936809 -0.71304224 0.41486098 0.32941176 0.81176471 0.48627451
v 0.30871352 -0.67598831 0.41486098 0.32941176 0.81176471 0.48627451
v 0.40177443 -0.62517321 0.41486098 0.32941176 0.81176471 0.48627451
v 0.48665637 -0.56163139 0.41486098 0.32941176 0.81176471 0.48627451
v 0.56163139 -0.48665637 0.41486098 0.32941176 0.81176471 0.48627451
v 0.62517321 -0.40177443 0.41486098 0.32941176 0.81176471 0.48627451
v 0.67598831 -0.30871352 0.41486098 0.32941176 0.81176471 0.48627451
v 0.71304224 -0.20936809 0.41486098 0.32941176 0.81176471 0.48627451
v 0.73558068 -0.10576054 0.41486098 0.32941176 0.81176471 0.48627451
v 0.80901699 0.00000000 0.36442686 0.32941176 0.81176471 0.48627451
v 0.80078237 0.11513512 0.36442686 0.32941176 0.81176471 0.48627451
v 0.77624612 0.22792643 0.36442686 0.32941176 0.81176471 0.48627451
v 0.73590774 0.33607781 0.36442686 0.32941176 0.81176471 0.48627451
v 0.68058840 0.43738761 0.36442686 0.32941176 0.81176471 0.48627451
v 0.61141425 0.52979346 0.36442686 0.32941176 0.81176471 0.48627451
v 0.52979346 0.61141425 0.36442686 0.32941176 0.81176471 0.48627451
v 0.43738761 0.68058840 0.36442686 0.32941176 0.81176471 0.48627451
v 0.33607781 0.73590774 0.36442686 0.32941176 0.81176471 0.48627451
v 0.22792643 0.77624612 0.36442686 0.32941176 0.81176471 0.48627451
v 0.11513512 0.80078237 0.36442686 0.32941176 0.81176471 0.48627451
v 0.00000000 0.80901699 0.36442686 0.32941176 0.81176471 0.48627451
v -0.11513512 0.80078237 0.36442686 0.32941176 0.81176471 0.48627451
v -0.22792643 0.77624612 0.36442686 0.32941176 0.81176471 0.48627451
v -0.33607781 0.73590774 0.36442686 0.32941176 0.81176471 0.48627451
v -0.43738761 0.68058840 0.36442686 0.32941176 0.81176471 0.48627451
v -0.52979346 0.61141425 0.36442686 0.32941176 0.81176471 0.48627451
v -0.61141425 0.52979346 0.36442686 0.32941176 0.81176471 0.48627451
v -0.68058840 0.43738761 0.36442686 0.32941176 0.81176471 0.48627451
v -0.73590774 0.33607781 0.36442686 0.32941176 0.81176471 0.48627451
v -0.77624612 0.22792643 0.36442686 0.32941176 0.81176471 0.48627451
v -0.80078237 0.11513512 0.36442686 0.32941176 0.81176471 0.48627451
v -0.80901699 0.00000000 0.36442686 0.32941176 0.81176471 0.48627451
v -0.80078237 -0.11513512 0.36442686 0.32941176 0.81176471 0.48627451
v -0.77624612 -0.22792643 0.36442686 0.32941176 0.81176471 0.48627451
v -0.73590774 -0.33607781 0.36442686 0.32941176 0.81176471 0.48627451
v -0.68058840 -0.43738761 0.36442686 0.32941176 0.81176471 0.48627451
v -0.61141425 -0.52979346 0.36442686 0.32941176 0.81176471 0.48627451
v -0.52979346 -0.61141425 0.36442686 0.32941176 0.81176471 0.48627451
v -0.43738761 -0.68058840 0.36442686 0.32941176 0.81176471 0.48627451
v -0.33607781 -0.73590774 0.36442686 0.32941176 0.81176471 0.48627451
v -0.22792643 -0.77624612 0.36442686 0.32941176 0.81176471 0.48627451
v -0.11513512 -0.80078237 0.36442686 0.32941176 0.81176471 0.48627451
v -0.00000000 -0.80901699 0.36442686 0.32941176 0.81176471 0.48627451
v 0.11513512 -0.80078237 0.36442686 0.32941176 0.81176471 0.48627451
v 0.22792643 -0.77624612 0.36442686 0.32941176 0.81176471 0.48627451
v 0.33607781 -0.73590774 0.36442686 0.32941176 0.81176471 0.48627451
v 0.43738761 -0.68058840 0.36442686 0.32941176 0.81176471 0.48627451
v 0.52979346 -0.61141425 0.36442686 0.32941176 0.81176471 0.48627451
v 0.61141425 -0.52979346 0.36442686 0.32941176 0.81176471 0.48627451
v 0.68058840 -0.43738761 0.36442686 0.32941176 0.81176471 0.48627451
v 0.73590774 -0.33607781 0.36442686 0.32941176 0.81176471 0.48627451
v 0.77624612 -0.22792643 0.36442686 0.32941176 0.81176471 0.48627451
v 0.80078237 -0.11513512 0.36442686 0.32941176 0.81176471 0.48627451
v 0.86602540 0.00000000 0.31000000 0.32941176 0.81176471 0.48627451
v 0.85721051 0.12324827 0.31000000 0.32941176 0.81176471 0.48627451
v 0.83094529 0.24398755 0.31000000 0.32941176 0.81176471 0.48627451
v 0.78776442 0.35975995 0.31000000 0.32941176 0.81176471 0.48627451
v 0.72854693 0.46820868 0.31000000 0.32941176 0.81176471 0.48627451
v 0.65449833 0.56712603 0.31000000 0.32941176 0.81176471 0.48627451
v 0.56712603 0.65449833 0.31000000 0.32941176 0.81176471 0.48627451
v 0.46820868 0.72854693 0.31000000 0.32941176 0.81176471 0.48627451
v 0.35975995 0.78776442 0.31000000 0.32941176 0.81176471 0.48627451
v 0.24398755 0.83094529 0.31000000 0.32941176 0.81176471 0.48627451
v 0.12324827 0.85721051 0.31000000 0.32941176 0.81176471 0.48627451
v 0.00000000 0.86602540 0.31000000 0.32941176 0.81176471 0.48627451
v -0.12324827 0.85721051 0.31000000 0.32941176 0.81176471 0.48627451
v -0.24398755 0.83094529 0.31000000 0.32941176 0.81176471 0.48627451
v -0.35975995 0.78776442 0.31000000 0.32941176 0.81176471 0.48627451
v -0.46820868 0.72854693 0.31000000 0.32941176 0.81176471 0.48627451
v -0.56712603 0.65449833 0.31000000 0.32941176 0.81176471 0.48627451
v -0.65449833 0.56712603 0.31000000 0.32941176 0.81176471 0.48627451
v -0.72854693 0.46820868 0.31000000 0.32941176 0.81176471 0.48627451
v -0.78776442 0.35975995 0.31000000 0.32941176 0.81176471 0.48627451
v -0.83094529 0.24398755 0.31000000 0.32941176 0.81176471 0.48627451
v -0.85721051 0.12324827 0.31000000 0.32941176 0.81176471 0.48627451
v -0.86602540 0.00000000 0.31000000 0.32941176 0.81176471 0.48627451
v -0.85721051 -0.12324827 0.31000000 0.32941176 0.81176471 0.48627451
v -0.83094529 -0.24398755 0.31000000 0.32941176 0.81176471 0.48627451
v -0.78776442 -0.35975995 0.31000000 0.32941176 0.81176471 0.48627451
v -0.72854693 -0.46820868 0.31000000 0.32941176 0.81176471 0.48627451
v -0.65449833 -0.56712603 0.31000000 0.32941176 0.81176471 0.48627451
v -0.56712603 -0.65449833 0.31000000 0.32941176 0.81176471 0.48627451
v -0.46820868 -0.72854693 0.31000000 0.32941176 0.81176471 0.48627451
v -0.35975995 -0.78776442 0.31000000 0.32941176 0.81176471 0.48627451
v -0.24398755 -0.83094529 0.31000000 0.32941176 0.81176471 0.48627451
v -0.12324827 -0.85721051 0.31000000 0.32941176 0.81176471 0.48627451
v -0.00000000 -0.86602540 0.31000000 0.32941176 0.81176471 0.48627451
v 0.12324827 -0.85721051 0.31000000 0.32941176 0.81176471 0.48627451
v 0.24398755 -0.83094529 0.31000000 0.32941176 0.81176471 0.48627451
v 0.35975995 -0.78776442 0.31000000 0.32941176 0.81176471 0.48627451
v 0.46820868 -0.72854693 0.31000000 0.32941176 0.81176471 0.48627451
v 0.56712603 -0.65449833 0.31000000 0.32941176 0.81176471 0.48627451
v 0.65449833 -0.56712603 0.31000000 0.32941176 0.81176471 0.48627451
v 0.72854693 -0.46820868 0.31000000 0.32941176 0.81176471 0.48627451
v 0.78776442 -0.35975995 0.31000000 0.32941176 0.81176471 0.48627451
v 0.83094529 -0.24398755 0.31000000 0.32941176 0.81176471 0.48627451
v 0.85721051 -0.12324827 0.31000000 0.32941176 0.81176471 0.48627451
v 0.91354546 0.00000000 0.25217672 0.32941176 0.81176471 0.48627451
v 0.90424688 0.13001107 0.25217672 0.32941176 0.81176471 0.48627451
v 0.87654045 0.25737550 0.25217672 0.32941176 0.81176471 0.48627451
v 0.83099018 0.37950050 0.25217672 0.32941176 0.81176471 0.48627451
v 0.76852334 0.49389996 0.25217672 0.32941176 0.81176471 0.48627451
v 0.69041159 0.59824505 0.25217672 0.32941176 0.81176471 0.48627451
v 0.59824505 0.69041159 0.25217672 0.32941176 0.81176471 0.48627451
v 0.49389996 0.76852334 0.25217672 0.32941176 0.81176471 0.48627451
v 0.37950050 0.83099018 0.25217672 0.32941176 0.81176471 0.48627451
v 0.25737550 0.87654045 0.25217672 0.32941176 0.81176471 0.48627451
v 0.13001107 0.90424688 0.25217672 0.32941176 0.81176471 0.48627451
v 0.00000000 0.91354546 0.25217672 0.32941176 0.81176471 0.48627451
v -0.13001107 0.90424688 0.25217672 0.32941176 0.81176471 0.48627451
v -0.25737550 0.87654045 0.25217672 0.32941176 0.81176471 0.48627451
v -0.37950050 0.83099018 0.25217672 0.32941176 0.81176471 0.48627451
v -0.49389996 0.76852334 0.25217672 0.32941176 0.81176471 0.48627451
v -0.59824505 0.69041159 0.25217672 0.32941176 0.81176471 0.48627451
v -0.69041159 0.59824505 0.25217672 0.32941176 0.81176471 0.48627451
v -0.76852334 0.49389996 0.25217672 0.32941176 0.81176471 0.48627451
v -0.83099018 0.37950050 0.25217672 0.32941176 0.81176471 0.48627451
v -0.87654045 0.25737550 0.25217672 0.32941176 0.81176471 0.48627451
v -0.90424688 0.13001107 0.25217672 0.32941176 0.81176471 0.48627451
v -0.91354546 0.00000000 0.25217672 0.32941176 0.81176471 0.48627451
v -0.90424688 -0.13001107 0.25217672 0.32941176 0.81176471 0.48627451
v -0.87654045 -0.25737550 0.25217672 0.32941176 0.81176471 0.48627451
v -0.83099018 -0.37950050 0.25217672 0.32941176 0.81176471 0.48627451
v -0.76852334 -0.49389996 0.25217672 0.32941176 0.81176471 0.48627451
v -0.69041159 -0.59824505 0.25217672 0.32941176 0.81176471 0.48627451
v -0.59824505 -0.69041159 0.25217672 0.32941176 0.81176471 0.48627451
v -0.49389996 -0.76852334 0.25217672 0.32941176 0.81176471 0.48627451
v -0.37950050 -0.83099018 0.25217672 0.32941176 0.81176471 0.48627451
v -0.25737550 -0.87654045 0.25217672 0.32941176 0.81176471 0.48627451
v -0.13001107 -0.90424688 0.25217672 0.32941176 0.81176471 0.48627451
v -0.00000000 -0.91354546 0.25217672 0.32941176 0.81176471 0.48627451
v 0.13001107 -0.90424688 0.25217672 0.32941176 0.81176471 0.48627451
v 0.25737550 -0.87654045 0.25217672 0.32941176 0.81176471 0.48627451
v 0.37950050 -0.83099018 0.25217672 0.32941176 0.81176471 0.48627451
v 0.49389996 -0.76852334 0.25217672 0.32941176 0.81176471 0.48627451
v 0.59824505 -0.69041159 0.25217672 0.32941176 0.81176471 0.48627451
v 0.69041159 -0.59824505 0.25217672 0.32941176 0.81176471 0.48627451
v 0.76852334 -0.49389996 0.25217672 0.32941176 0.81176471 0.48627451
v 0.83099018 -0.37950050 0.25217672 0.32941176 0.81176471 0.48627451
v 0.87654045 -0.25737550 0.25217672 0.32941176 0.81176471 0.48627451
v 0.90424688 -0.13001107 0.25217672 0.32941176 0.81176471 0.48627451
v 0.95105652 0.00000000 0.19159054 0.32941176 0.81176471 0.48627451
v 0.94137613 0.13534945 0.19159054 0.32941176 0.81176471 0.48627451
v 0.91253204 0.26794358 0.19159054 0.32941176 0.81176471 0.48627451
v 0.86511144 0.39508316 0.19159054 0.32941176 0.81176471 0.48627451
v 0.80007965 0.51417997 0.19159054 0.32941176 0.81176471 0.48627451
v 0.71876056 0.62280957 0.19159054 0.32941176 0.81176471 0.48627451
v 0.62280957 0.71876056 0.19159054 0.32941176 0.81176471 0.48627451
v 0.51417997 0.80007965 0.19159054 0.32941176 0.81176471 0.48627451
v 0.39508316 0.86511144 0.19159054 0.32941176 0.81176471 0.48627451
v 0.26794358 0.91253204 0.19159054 0.32941176 0.81176471 0.48627451
v 0.13534945 0.94137613 0.19159054 0.32941176 0.81176471 0.48627451
v 0.00000000 0.95105652 0.19159054 0.32941176 0.81176471 0.48627451
v -0.13534945 0.94137613 0.19159054 0.32941176 0.81176471 0.48627451
v -0.26794358 0.91253204 0.19159054 0.32941176 0.81176471 0.48627451
v -0.39508316 0.86511144 0.19159054 0.32941176 0.81176471 0.48627451
v -0.51417997 0.80007965 0.19159054 0.32941176 0.81176471 0.48627451
v -0.62280957 0.71876056 0.19159054 0.32941176 0.81176471 0.48627451
v -0.71876056 0.62280957 0.19159054 0.32941176 0.81176471 0.48627451
v -0.80007965 0.51417997 0.19159054 0.32941176 0.81176471 0.48627451
v -0.86511144 0.39508316 0.19159054 0.32941176 0.81176471 0.48627451
v -0.91253204 0.26794358 0.19159054 0.32941176 0.81176471 0.48627451
v -0.94137613 0.13534945 0.19159054 0.32941176 0.81176471 0.48627451
v -0.95105652 0.00000000 0.19159054 0.32941176 0.81176471 0.48627451
v -0.94137613 -0.13534945 0.19159054 0.32941176 0.81176471 0.48627451
v -0.91253204 -0.26794358 0.19159054 0.32941176 0.81176471 0.48627451
v -0.86511144 -0.39508316 0.19159054 0.32941176 0.81176471 0.48627451
v -0.80007965 -0.51417997 0.19159054 0.32941176 0.81176471 0.48627451
v -0.71876056 -0.62280957 0.19159054 0.32941176 0.81176471 0.48627451
v -0.62280957 -0.71876056 0.19159054 0.32941176 0.81176471 0.48627451
v -0.51417997 -0.80007965 0.19159054 0.32941176 0.81176471 0.48627451
v -0.39508316 -0.86511144 0.19159054 0.32941176 0.81176471 0.48627451
v -0.26794358 -0.91253204 0.19159054 0.32941176 0.81176471 0.48627451
v -0.13534945 -0.94137613 0.19159054 0.32941176 0.81176471 0.48627451
v -0.00000000 -0.95105652 0.19159054 0.32941176 0.81176471 0.48627451
v 0.13534945 -0.94137613 0.19159054 0.32941176 0.81176471 0.48627451
v 0.26794358 -0.91253204 0.19159054 0.32941176 0.81176471 0.48627451
v 0.39508316 -0.86511144 0.19159054 0.32941176 0.81176471 0.48627451
v 0.51417997 -0.80007965 0.19159054 0.32941176 0.81176471 0.48627451
v 0.62280957 -0.71876056 0.19159054 0.32941176 0.81176471 0.48627451
v 0.71876056 -0.62280957 0.19159054 0.32941176 0.81176471 0.48627451
v 0.80007965 -0.51417997 0.19159054 0.32941176 0.81176471 0.48627451
v 0.86511144 -0.39508316 0.19159054 0.32941176 0.81176471 0.48627451
v 0.91253204 -0.26794358 0.19159054 0.32941176 0.81176471 0.48627451
v 0.94137613 -0.13534945 0.19159054 0.32941176 0.81176471 0.48627451
v 0.97814760 0.00000000 0.12890525 0.32941176 0.81176471 0.48627451
v 0.96819147 0.13920492 0.12890525 0.32941176 0.81176471 0.48627451
v 0.93852575 0.27557602 0.12890525 0.32941176 0.81176471 0.48627451
v 0.88975435 0.40633720 0.12890525 0.32941176 0.81176471 0.48627451
v 0.82287012 0.52882652 0.12890525 0.32941176 0.81176471 0.48627451
v 0.73923463 0.64055046 0.12890525 0.32941176 0.81176471 0.48627451
v 0.64055046 0.73923463 0.12890525 0.32941176 0.81176471 0.48627451
v 0.52882652 0.82287012 0.12890525 0.32941176 0.81176471 0.48627451
v 0.40633720 0.88975435 0.12890525 0.32941176 0.81176471 0.48627451
v 0.27557602 0.93852575 0.12890525 0.32941176 0.81176471 0.48627451
v 0.13920492 0.96819147 0.12890525 0.32941176 0.81176471 0.48627451
v 0.00000000 0.97814760 0.12890525 0.32941176 0.81176471 0.48627451
v -0.13920492 0.96819147 0.12890525 0.32941176 0.81176471 0.48627451
v -0.27557602 0.93852575 0.12890525 0.32941176 0.81176471 0.48627451
v -0.40633720 0.88975435 0.12890525 0.32941176 0.81176471 0.48627451
v -0.52882652 0.82287012 0.12890525 0.32941176 0.81176471 0.48627451
v -0.64055046 0.73923463 0.12890525 0.32941176 0.81176471 0.48627451
v -0.73923463 0.64055046 0.12890525 0.32941176 0.81176471 0.48627451
v -0.82287012 0.52882652 0.12890525 0.32941176 0.81176471 0.48627451
v -0.88975435 0.40633720 0.12890525 0.32941176 0.81176471 0.48627451
v -0.93852575 0.27557602 0.12890525 0.32941176 0.81176471 0.48627451
v -0.96819147 0.13920492 0.12890525 0.32941176 0.81176471 0.48627451
v -0.97814760 0.00000000 0.12890525 0.32941176 0.81176471 0.48627451
v -0.96819147 -0.13920492 0.12890525 0.32941176 0.81176471 0.48627451
v -0.93852575 -0.27557602 0.12890525 0.32941176 0.81176471 0.48627451
v -0.88975435 -0.40633720 0.12890525 0.32941176 0.81176471 0.48627451
v -0.82287012 -0.52882652 0.12890525 0.32941176 0.81176471 0.48627451
v -0.73923463 -0.64055046 0.12890525 0.32941176 0.81176471 0.48627451
v -0.64055046 -0.73923463 0.12890525 0.32941176 0.81176471 0.48627451
v -0.52882652 -0.82287012 0.12890525 0.32941176 0.81176471 0.48627451
v -0.40633720 -0.88975435 0.12890525 0.32941176 0.81176471 0.48627451
v -0.27557602 -0.93852575 0.12890525 0.32941176 0.81176471 0.48627451
v -0.13920492 -0.96819147 0.12890525 0.32941176 0.81176471 0.48627451
v -0.00000000 -0.97814760 0.12890525 0.32941176 0.81176471 0.48627451
v 0.13920492 -0.96819147 0.12890525 0.32941176 0.81176471 0.48627451
v 0.27557602 -0.93852575 0.12890525 0.32941176 0.81176471 0.48627451
v 0.40633720 -0.88975435 0.12890525 0.32941176 0.81176471 0.48627451
v 0.52882652 -0.82287012 0.12890525 0.32941176 0.81176471 0.48627451
v 0.64055046 -0.73923463 0.12890525 0.32941176 0.81176471 0.48627451
v 0.73923463 -0.64055046 0.12890525 0.32941176 0.81176471 0.48627451
v 0.82287012 -0.52882652 0.12890525 0.32941176 0.81176471 0.48627451
v 0.88975435 -0.40633720 0.12890525 0.32941176 0.81176471 0.48627451
v 0.93852575 -0.27557602 0.12890525 0.32941176 0.81176471 0.48627451
v 0.96819147 -0.13920492 0.12890525 0.32941176 0.81176471 0.48627451
v 0.99452190 0.00000000 0.06480765 0.32941176 0.81176471 0.48627451
v 0.98439910 0.14153522 0.06480765 0.32941176 0.81176471 0.48627451
v 0.95423677 0.28018920 0.06480765 0.32941176 0.81176471 0.48627451
v 0.90464894 0.41313933 0.06480765 0.32941176 0.81176471 0.48627451
v 0.83664506 0.53767913 0.06480765 0.32941176 0.81176471 0.48627451
v 0.75160950 0.65127334 0.06480765 0.32941176 0.81176471 0.48627451
v 0.65127334 0.75160950 0.06480765 0.32941176 0.81176471 0.48627451
v 0.53767913 0.83664506 0.06480765 0.32941176 0.81176471 0.48627451
v 0.41313933 0.90464894 0.06480765 0.32941176 0.81176471 0.48627451
v 0.28018920 0.95423677 0.06480765 0.32941176 0.81176471 0.48627451
v 0.14153522 0.98439910 0.06480765 0.32941176 0.81176471 0.48627451
v 0.00000000 0.99452190 0.06480765 0.32941176 0.81176471 0.48627451
v -0.14153522 0.98439910 0.06480765 0.32941176 0.81176471 0.48627451
v -0.28018920 0.95423677 0.06480765 0.32941176 0.81176471 0.48627451
v -0.41313933 0.90464894 0.06480765 0.32941176 0.81176471 0.48627451
v -0.53767913 0.83664506 0.06480765 0.32941176 0.81176471 0.48627451
v -0.65127334 0.75160950 0.06480765 0.32941176 0.81176471 0.48627451
v -0.75160950 0.65127334 0.06480765 0.32941176 0.81176471 0.48627451
v -0.83664506 0.53767913 0.06480765 0.32941176 0.81176471 0.48627451
v -0.90464894 0.41313933 0.06480765 0.32941176 0.81176471 0.48627451
v -0.95423677 0.28018920 0.06480765 0.32941176 0.81176471 0.48627451
v -0.98439910 0.14153522 0.06480765 0.32941176 0.81176471 0.48627451
v -0.99452190 0.00000000 0.06480765 0.32941176 0.81176471 0.48627451
v -0.98439910 -0.14153522 0.06480765 0.32941176 0.81176471 0.48627451
v -0.95423677 -0.28018920 0.06480765 0.32941176 0.81176471 0.48627451
v -0.90464894 -0.41313933 0.06480765 0.32941176 0.81176471 0.48627451
v -0.83664506 -0.53767913 0.06480765 0.32941176 0.81176471 0.48627451
v -0.75160950 -0.65127334 0.06480765 0.32941176 0.81176471 0.48627451
v -0.65127334 -0.75160950 0.06480765 0.32941176 0.81176471 0.48627451
v -0.53767913 -0.83664506 0.06480765 0.32941176 0.81176471 0.48627451
v -0.41313933 -0.90464894 0.06480765 0.32941176 0.81176471 0.48627451
v -0.28018920 -0.95423677 0.06480765 0.32941176 0.81176471 0.48627451
v -0.14153522 -0.98439910 0.06480765 0.32941176 0.81176471 0.48627451
v -0.00000000 -0.99452190 0.06480765 0.32941176 0.81176471 0.48627451
v 0.14153522 -0.98439910 0.06480765 0.32941176 0.81176471 0.48627451
v 0.28018920 -0.95423677 0.06480765 0.32941176 0.81176471 0.48627451
v 0.41313933 -0.90464894 0.06480765 0.32941176 0.81176471 0.48627451
v 0.53767913 -0.83664506 0.06480765 0.32941176 0.81176471 0.48627451
v 0.65127334 -0.75160950 0.06480765 0.32941176 0.81176471 0.48627451
v 0.75160950 -0.65127334 0.06480765 0.32941176 0.81176471 0.48627451
v 0.83664506 -0.53767913 0.06480765 0.32941176 0.81176471 0.48627451
v 0.90464894 -0.41313933 0.06480765 0.32941176 0.81176471 0.48627451
v 0.95423677 -0.28018920 0.06480765 0.32941176 0.81176471 0.48627451
v 0.98439910 -0.14153522 0.06480765 0.32941176 0.81176471 0.48627451
v 1.00000000 0.00000000 0.00000000 0.32941176 0.81176471 0.48627451
v 0.98982144 0.14231484 0.00000000 0.32941176 0.81176471 0.48627451
v 0.95949297 0.28173256 0.00000000 0.32941176 0.81176471 0.48627451
v 0.90963200 0.41541501 0.00000000 0.32941176 0.81176471 0.48627451
v 0.84125353 0.54064082 0.00000000 0.32941176 0.81176471 0.48627451
v 0.75574957 0.65486073 0.00000000 0.32941176 0.81176471 0.48627451
v 0.65486073 0.75574957 0.00000000 0.32941176 0.81176471 0.48627451
v 0.54064082 0.84125353 0.00000000 0.32941176 0.81176471 0.48627451
v 0.41541501 0.90963200 0.00000000 0.32941176 0.81176471 0.48627451
v 0.28173256 0.95949297 0.00000000 0.32941176 0.81176471 0.48627451
v 0.14231484 0.98982144 0.00000000 0.32941176 0.81176471 0.48627451
v 0.00000000 1.00000000 0.00000000 0.32941176 0.81176471 0.48627451
v -0.14231484 0.98982144 0.00000000 0.32941176 0.81176471 0.48627451
v -0.28173256 0.95949297 0.00000000 0.32941176 0.81176471 0.48627451
v -0.41541501 0.90963200 0.00000000 0.32941176 0.81176471 0.48627451
v -0.54064082 0.84125353 0.00000000 0.32941176 0.81176471 0.48627451
v -0.65486073 0.75574957 0.00000000 0.32941176 0.81176471 0.48627451
v -0.75574957 0.65486073 0.00000000 0.32941176 0.81176471 0.48627451
v -0.84125353 0.54064082 0.00000000 0.32941176 0.81176471 0.48627451
v -0.90963200 0.41541501 0.00000000 0.32941176 0.81176471 0.48627451
v -0.95949297 0.28173256 0.00000000 0.32941176 0.81176471 0.48627451
v -0.98982144 0.14231484 0.00000000 0.32941176 0.81176471 0.48627451
v -1.00000000 0.00000000 0.00000000 0.32941176 0.81176471 0.48627451
v -0.98982144 -0.14231484 0.00000000 0.32941176 0.81176471 0.48627451
v -0.95949297 -0.28173256 0.00000000 0.32941176 0.81176471 0.48627451
v -0.90963200 -0.41541501 0.00000000 0.32941176 0.81176471 0.48627451
v -0.84125353 -0.54064082 0.00000000 0.32941176 0.81176471 0.48627451
v -0.75574957 -0.65486073 0.00000000 0.32941176 0.81176471 0.48627451
v -0.65486073 -0.75574957 0.00000000 0.32941176 0.81176471 0.48627451
v -0.54064082 -0.84125353 0.00000000 0.32941176 0.81176471 0.48627451
v -0.41541501 -0.90963200 0.00000000 0.32941176 0.81176471 0.48627451
v -0.28173256 -0.95949297 0.00000000 0.32941176 0.81176471 0.48627451
v -0.14231484 -0.98982144 0.00000000 0.32941176 0.81176471 0.48627451
v -0.00000000 -1.00000000 0.00000000 0.32941176 0.81176471 0.48627451
v 0.14231484 -0.98982144 0.00000000 0.32941176 0.81176471 0.48627451
v 0.28173256 -0.95949297 0.00000000 0.32941176 0.81176471 0.48627451
v 0.41541501 -0.90963200 0.00000000 0.32941176 0.81176471 0.48627451
v 0.54064082 -0.84125353 0.00000000 0.32941176 0.81176471 0.48627451
v 0.65486073 -0.75574957 0.00000000 0.32941176 0.81176471 0.48627451
v 0.75574957 -0.65486073 0.00000000 0.32941176 0.81176471 0.48627451
v 0.84125353 -0.54064082 0.00000000 0.32941176 0.81176471 0.48627451
v 0.90963200 -0.41541501 0.00000000 0.32941176 0.81176471 0.48627451
v 0.95949297 -0.28173256 0.00000000 0.32941176 0.81176471 0.48627451
v 0.98982144 -0.14231484 0.00000000 0.32941176 0.81176471 0.48627451
v 0.00000000 0.00000000 0.00000000 0.32941176 0.81176471 0.48627451
f 1 2 3
f 1 3 4
f 1 4 5
f 1 5 6
f 1 6 7
f 1 7 8
f 1 8 9
f 1 9 10
f 1 10 11
f 1 11 12
f 1 12 13
f 1 13 14
f 1 14 15
f 1 15 16
f 1 16 17
f 1 17 18
f 1 18 19
f 1 19 20
f 1 20 21
f 1 21 22
f 1 22 23
f 1 23 24
f 1 24 25
f 1 25 26
f 1 26 27
f 1 27 28
f 1 28 29
f 1 29 30
f 1 30 31
f 1 31 32
f 1 32 33
f 1 33 34
f 1 34 35
f 1 35 36
f 1 36 37
f 1 37 38
f 1 38 39
f 1 39 40
f 1 40 41
f 1 41 42
f 1 42 43
f 1 43 44
f 1 44 45
f 1 45 2
f 2 3 47
f 2 47 46
f 3 4 48
f 3 48 47
f 4 5 49
f 4 49 48
f 5 6 50
f 5 50 49
f 6 7 51
f 6 51 50
f 7 8 52
f 7 52 51
f 8 9 53
f 8 53 52
f 9 10 54
f 9 54 53
f 10 11 55
f 10 55 54
f 11 12 56
f 11 56 55
f 12 13 57
f 12 57 56
f 13 14 58
f 13 58 57
f 14 15 59
f 14 59 58
f 15 16 60
f 15 60 59
f 16 17 61
f 16 61 60
f 17 18 62
f 17 62 61
f 18 19 63
f 18 63 62
f 19 20 64
f 19 64 63
f 20 21 65
f 20 65 64
f 21 22 66
f 21 66 65
f 22 23 67
f 22 67 66
f 23 24 68
f 23 68 67
f 24 25 69
f 24 69 68
f 25 26 70
f 25 70 69
f 26 27 71
f 26 71 70
f 27 28 72
f 27 72 71
f 28 29 73
f 28 73 72
f 29 30 74
f 29 74 73
f 30 31 75
f 30 75 74
f 31 32 76
f 31 76 75
f 32 33 77
f 32 77 76
f 33 34 78
f 33 78 77
f 34 35 79
f 34 79 78
f 35 36 80
f 35 80 79
f 36 37 81
f 36 81 80
f 37 38 82
f 37 82 81
f 38 39 83
f 38 83 82
f 39 40 84
f 39 84 83
f 40 41 85
f 40 85 84
f 41 42 86
f 41 86 85
f 42 43 87
f 42 87 86
f 43 44 88
f 43 88 87
f 44 45 89
f 44 89 88
f 45 2 46
f 45 46 89
f 46 47 91
f 46 91 90
f 47 48 92
f 47 92 91
f 48 49 93
f 48 93 92
f 49 50 94
f 49 94 93
f 50 51 95
f 50 95 94
f 51 52 96
f 51 96 95
f 52 53 97
f 52 97 96
f 53 54 98
f 53 98 97
f 54 55 99
f 54 99 98
f 55 56 100
f 55 100 99
f 56 57 101
f 56 101 100
f 57 58 102
f 57 102 101
f 58 59 103
f 58 103 102
f 59 60 104
f 59 104 103
f 60 61 105
f 60 105 104
f 61 62 106
f 61 106 105
f 62 63 107
f 62 107 106
f 63 64 108
f 63 108 107
f 64 65 109
f 64 109 108
f 65 66 110
f 65 110 109
f 66 67 111
f 66 111 110
f 67 68 112
f 67 112 111
f 68 69 113
f 68 113 112
f 69 70 114
f 69 114 113
f 70 71 115
f 70 115 114
f 71 72 116
f 71 116 115
f 72 73 117
f 72 117 116
f 73 74 118
f 73 118 117
f 74 75 119
f 74 119 118
f 75 76 120
f 75 120 119
f 76 77 121
f 76 121 120
f 77 78 122
f 77 122 121
f 78 79 123
f 78 123 122
f 79 80 124
f 79 124 123
f 80 81 125
f 80 125 124
f 81 82 126
f 81 126 125
f 82 83 127
f 82 127 126
f 83 84 128
f 83 128 127
f 84 85 129
f 84 129 128
f 85 86 130
f 85 130 129
f 86 87 131
f 86 131 130
f 87 88 132
f 87 132 131
f 88 89 133
f 88 133 132
f 89 46 90
f 89 90 133
f 90 91 135
f 90 135 134
f 91 92 136
f 91 136 135
f 92 93 137
f 92 137 136
f 93 94 138
f 93 138 137
f 94 95 139
f 94 139 138
f 95 96 140
f 95 140 139
f 96 97 141
f 96 141 140
f 97 98 142
f 97 142 141
f 98 99 143
f 98 143 142
f 99 100 144
f 99 144 143
f 100 101 145
f 100 145 144
f 101 102 146
f 101 146 145
f 102 103 147
f 102 147 146
f 103 104 148
f 103 148 147
f 104 105 149
f 104 149 148
f 105 106 150
f 105 150 149
f 106 107 151
f 106 151 150
f 107 108 152
f 107 152 151
f 108 109 153
f 108 153 152
f 109 110 154
f 109 154 153
f 110 111 155
f 110 155 154
f 111 112 156
f 111 156 155
f 112 113 157
f 112 157 156
f 113 114 158
f 113 158 157
f 114 115 159
f 114 159 158
f 115 116 160
f 115 160 159
f 116 117 161
f 116 161 160
f 117 118 162
f 117 162 161
f 118 119 163
f 118 163 162
f 119 120 164
f 119 164 163
f 120 121 165
f 120 165 164
f 121 122 166
f 121 166 165
f 122 123 167
f 122 167 166
f 123 124 168
f 123 168 167
f 124 125 169
f 124 169 168
f 125 126 170
f 125 170 169
f 126 127 171
f 126 171 170
f 127 128 172
f 127 172 171
f 128 129 173
f 128 173 172
f 129 130 174
f 129 174 173
f 130 131 175
f 130 175 174
f 131 132 176
f 131 176 175
f 132 133 177
f 132 177 176
f 133 90 134
f 133 134 177
f 134 135 179
f 134 179 178
f 135 136 180
f 135 180 179
f 136 137 181
f 136 181 180
f 137 138 182
f 137 182 181
f 138 139 183
f 138 183 182
f 139 140 184
f 139 184 183
f 140 141 185
f 140 185 184
f 141 142 186
f 141 186 185
f 142 143 187
f 142 187 186
f 143 144 188
f 143 188 187
f 144 145 189
f 144 189 188
f 145 146 190
f 145 190 189
f 146 147 191
f 146 191 190
f 147 148 192
f 147 192 191
f 148 149 193
f 148 193 192
f 149 150 194
f 149 194 193
f 150 151 195
f 150 195 194
f 151 152 196
f 151 196 195
f 152 153 197
f 152 197 196
f 153 154 198
f 153 198 197
f 154 155 199
f 154 199 198
f 155 156 200
f 155 200 199
f 156 157 201
f 156 201 200
f 157 158 202
f 157 202 201
f 158 159 203
f 158 203 202
f 159 160 204
f 159 204 203
f 160 161 205
f 160 205 204
f 161 162 206
f 161 206 205
f 162 163 207
f 162 207 206
f 163 164 208
f 163 208 207
f 164 165 209
f 164 209 208
f 165 166 210
f 165 210 209
f 166 167 211
f 166 211 210
f 167 168 212
f 167 212 211
f 168 169 213
f 168 213 212
f 169 170 214
f 169 214 213
f 170 171 215
f 170 215 214
f 171 172 216
f 171 216 215
f 172 173 217
f 172 217 216
f 173 174 218
f 173 218 217
f 174 175 219
f 174 219 218
f 175 176 220
f 175 220 219
f 176 177 221
f 176 221 220
f 177 134 178
f 177 178 221
f 178 179 223
f 178 223 222
f 179 180 224
f 179 224 223
f 180 181 225
f 180 225 224
f 181 182 226
f 181 226 225
f 182 183 227
f 182 227 226
f 183 184 228
f 183 228 227
f 184 185 229
f 184 229 228
f 185 186 230
f 185 230 229
f 186 187 231
f 186 231 230
f 187 188 232
f 187 232 231
f 188 189 233
f 188 233 232
f 189 190 234
f 189 234 233
f 190 191 235
f 190 235 234
f 191 192 236
f 191 236 235
f 192 193 237
f 192 237 236
f 193 194 238
f 193 238 237
f 194 195 239
f 194 239 238
f 195 196 240
f 195 240 239
f 196 197 241
f 196 241 240
f 197 198 242
f 197 242 241
f 198 199 243
f 198 243 242
f 199 200 244
f 199 244 243
f 200 201 245
f 200 245 244
f 201 202 246
f 201 246 245
f 202 203 247
f 202 247 246
f 203 204 248
f 203 248 247
f 204 205 249
f 204 249 248
f 205 206 250
f 205 250 249
f 206 207 251
f 206 251 250
f 207 208 252
f 207 252 251
f 208 209 253
f 208 253 252
f 209 210 254
f 209 254 253
f 210 211 255
f 210 255 254
f 211 212 256
f 211 256 255
f 212 213 257
f 212 257 256
f 213 214 258
f 213 258 257
f 214 215 259
f 214 259 258
f 215 216 260
f 215 260 259
f 216 217 261
f 216 261 260
f 217 218 262
f 217 262 261
f 218 219 263
f 218 263 262
f 219 220 264
f 219 264 263
f 220 221 265
f 220 265 264
f 221 178 222
f 221 222 265
f 222 223 267
f 222 267 266
f 223 224 268
f 223 268 267
f 224 225 269
f 224 269 268
f 225 226 270
f 225 270 269
f 226 227 271
f 226 271 270
f 227 228 272
f 227 272 271
f 228 229 273
f 228 273 272
f 229 230 274
f 229 274 273
f 230 231 275
f 230 275 274
f 231 232 276
f 231 276 275
f 232 233 277
f 232 277 276
f 233 234 278
f 233 278 277
f 234 235 279
f 234 279 278
f 235 236 280
f 235 280 279
f 236 237 281
f 236 281 280
f 237 238 282
f 237 282 281
f 238 239 283
f 238 283 282
f 239 240 284
f 239 284 283
f 240 241 285
f 240 285 284
f 241 242 286
f 241 286 285
f 242 243 287
f 242 287 286
f 243 244 288
f 243 288 287
f 244 245 289
f 244 289 288
f 245 246 290
f 245 290 289
f 246 247 291
f 246 291 290
f 247 248 292
f 247 292 291
f 248 249 293
f 248 293 292
f 249 250 294
f 249 294 293
f 250 251 295
f 250 295 294
f 251 252 296
f 251 296 295
f 252 253 297
f 252 297 296
f 253 254 298
f 253 298 297
f 254 255 299
f 254 299 298
f 255 256 300
f 255 300 299
f 256 257 301
f 256 301 300
f 257 258 302
f 257 302 301
f 258 259 303
f 258 303 302
f 259 260 304
f 259 304 303
f 260 261 305
f 260 305 304
f 261 262 306
f 261 306 305
f 262 263 307
f 262 307 306
f 263 264 308
f 263 308 307
f 264 265 309
f 264 309 308
f 265 222 266
f 265 266 309
f 266 267 311
f 266 311 310
f 267 268 312
f 267 312 311
f 268 269 313
f 268 313 312
f 269 270 314
f 269 314 313
f 270 271 315
f 270 315 314
f 271 272 316
f 271 316 315
f 272 273 317
f 272 317 316
f 273 274 318
f 273 318 317
f 274 275 319
f 274 319 318
f 275 276 320
f 275 320 319
f 276 277 321
f 276 321 320
f 277 278 322
f 277 322 321
f 278 279 323
f 278 323 322
f 279 280 324
f 279 324 323
f 280 281 325
f 280 325 324
f 281 282 326
f 281 326 325
f 282 283 327
f 282 327 326
f 283 284 328
f 283 328 327
f 284 285 329
f 284 329 328
f 285 286 330
f 285 330 329
f 286 287 331
f 286 331 330
f 287 288 332
f 287 332 331
f 288 289 333
f 288 333 332
f 289 290 334
f 289 334 333
f 290 291 335
f 290 335 334
f 291 292 336
f 291 336 335
f 292 293 337
f 292 337 336
f 293 294 338
f 293 338 337
f 294 295 339
f 294 339 338
f 295 296 340
f 295 340 339
f 296 297 341
f 296 341 340
f 297 298 342
f 297 342 341
f 298 299 343
f 298 343 342
f 299 300 344
f 299 344 343
f 300 301 345
f 300 345 344
f 301 302 346
f 301 346 345
f 302 303 347
f 302 347 346
f 303 304 348
f 303 348 347
f 304 305 349
f 304 349 348
f 305 306 350
f 305 350 349
f 306 307 351
f 306 351 350
f 307 308 352
f 307 352 351
f 308 309 353
f 308 353 352
f 309 266 310
f 309 310 353
f 310 311 355
f 310 355 354
f 311 312 356
f 311 356 355
f 312 313 357
f 312 357 356
f 313 314 358
f 313 358 357
f 314 315 359
f 314 359 358
f 315 316 360
f 315 360 359
f 316 317 361
f 316 361 360
f 317 318 362
f 317 362 361
f 318 319 363
f 318 363 362
f 319 320 364
f 319 364 363
f 320 321 365
f 320 365 364
f 321 322 366
f 321 366 365
f 322 323 367
f 322 367 366
f 323 324 368
f 323 368 367
f 324 325 369
f 324 369 368
f 325 326 370
f 325 370 369
f 326 327 371
f 326 371 370
f 327 328 372
f 327 372 371
f 328 329 373
f 328 373 372
f 329 330 374
f 329 374 373
f 330 331 375
f 330 375 374
f 331 332 376
f 331 376 375
f 332 333 377
f 332 377 376
f 333 334 378
f 333 378 377
f 334 335 379
f 334 379 378
f 335 336 380
f 335 380 379
f 336 337 381
f 336 381 380
f 337 338 382
f 337 382 381
f 338 339 383
f 338 383 382
f 339 340 384
f 339 384 383
f 340 341 385
f 340 385 384
f 341 342 386
f 341 386 385
f 342 343 387
f 342 387 386
f 343 344 388
f 343 388 387
f 344 345 389
f 344 389 388
f 345 346 390
f 345 390 389
f 346 347 391
f 346 391 390
f 347 348 392
f 347 392 391
f 348 349 393
f 348 393 392
f 349 350 394
f 349 394 393
f 350 351 395
f 350 395 394
f 351 352 396
f 351 396 395
f 352 353 397
f 352 397 396
f 353 310 354
f 353 354 397
f 354 355 399
f 354 399 398
f 355 356 400
f 355 400 399
f 356 357 401
f 356 401 400
f 357 358 402
f 357 402 401
f 358 359 403
f 358 403 402
f 359 360 404
f 359 404 403
f 360 361 405
f 360 405 404
f 361 362 406
f 361 406 405
f 362 363 407
f 362 407 406
f 363 364 408
f 363 408 407
f 364 365 409
f 364 409 408
f 365 366 410
f 365 410 409
f 366 367 411
f 366 411 410
f 367 368 412
f 367 412 411
f 368 369 413
f 368 413 412
f 369 370 414
f 369 414 413
f 370 371 415
f 370 415 414
f 371 372 416
f 371 416 415
f 372 373 417
f 372 417 416
f 373 374 418
f 373 418 417
f 374 375 419
f 374 419 418
f 375 376 420
f 375 420 419
f 376 377 421
f 376 421 420
f 377 378 422
f 377 422 421
f 378 379 423
f 378 423 422
f 379 380 424
f 379 424 423
f 380 381 425
f 380 425 424
f 381 382 426
f 381 426 425
f 382 383 427
f 382 427 426
f 383 384 428
f 383 428 427
f 384 385 429
f 384 429 428
f 385 386 430
f 385 430 429
f 386 387 431
f 386 431 430
f 387 388 432
f 387 432 431
f 388 389 433
f 388 433 432
f 389 390 434
f 389 434 433
f 390 391 435
f 390 435 434
f 391 392 436
f 391 436 435
f 392 393 437
f 392 437 436
f 393 394 438
f 393 438 437
f 394 395 439
f 394 439 438
f 395 396 440
f 395 440 439
f 396 397 441
f 396 441 440
f 397 354 398
f 397 398 441
f 398 399 443
f 398 443 442
f 399 400 444
f 399 444 443
f 400 401 445
f 400 445 444
f 401 402 446
f 401 446 445
f 402 403 447
f 402 447 446
f 403 404 448
f 403 448 447
f 404 405 449
f 404 449 448
f 405 406 450
f 405 450 449
f 406 407 451
f 406 451 450
f 407 408 452
f 407 452 451
f 408 409 453
f 408 453 452
f 409 410 454
f 409 454 453
f 410 411 455
f 410 455 454
f 411 412 456
f 411 456 455
f 412 413 457
f 412 457 456
f 413 414 458
f 413 458 457
f 414 415 459
f 414 459 458
f 415 416 460
f 415 460 459
f 416 417 461
f 416 461 460
f 417 418 462
f 417 462 461
f 418 419 463
f 418 463 462
f 419 420 464
f 419 464 463
f 420 421 465
f 420 465 464
f 421 422 466
f 421 466 465
f 422 423 467
f 422 467 466
f 423 424 468
f 423 468 467
f 424 425 469
f 424 469 468
f 425 426 470
f 425 470 469
f 426 427 471
f 426 471 470
f 427 428 472
f 427 472 471
f 428 429 473
f 428 473 472
f 429 430 474
f 429 474 473
f 430 431 475
f 430 475 474
f 431 432 476
f 431 476 475
f 432 433 477
f 432 477 476
f 433 434 478
f 433 478 477
f 434 435 479
f 434 479 478
f 435 436 480
f 435 480 479
f 436 437 481
f 436 481 480
f 437 438 482
f 437 482 481
f 438 439 483
f 438 483 482
f 439 440 484
f 439 484 483
f 440 441 485
f 440 485 484
f 441 398 442
f 441 442 485
f 442 443 487
f 442 487 486
f 443 444 488
f 443 488 487
f 444 445 489
f 444 489 488
f 445 446 490
f 445 490 489
f 446 447 491
f 446 491 490
f 447 448 492
f 447 492 491
f 448 449 493
f 448 493 492
f 449 450 494
f 449 494 493
f 450 451 495
f 450 495 494
f 451 452 496
f 451 496 495
f 452 453 497
f 452 497 496
f 453 454 498
f 453 498 497
f 454 455 499
f 454 499 498
f 455 456 500
f 455 500 499
f 456 457 501
f 456 501 500
f 457 458 502
f 457 502 501
f 458 459 503
f 458 503 502
f 459 460 504
f 459 504 503
f 460 461 505
f 460 505 504
f 461 462 506
f 461 506 505
f 462 463 507
f 462 507 506
f 463 464 508
f 463 508 507
f 464 465 509
f 464 509 508
f 465 466 510
f 465 510 509
f 466 467 511
f 466 511 510
f 467 468 512
f 467 512 511
f 468 469 513
f 468 513 512
f 469 470 514
f 469 514 513
f 470 471 515
f 470 515 514
f 471 472 516
f 471 516 515
f 472 473 517
f 472 517 516
f 473 474 518
f 473 518 517
f 474 475 519
f 474 519 518
f 475 476 520
f 475 520 519
f 476 477 521
f 476 521 520
f 477 478 522
f 477 522 521
f 478 479 523
f 478 523 522
f 479 480 524
f 479 524 523
f 480 481 525
f 480 525 524
f 481 482 526
f 481 526 525
f 482 483 527
f 482 527 526
f 483 484 528
f 483 528 527
f 484 485 529
f 484 529 528
f 485 442 486
f 485 486 529
f 486 487 531
f 486 531 530
f 487 488 532
f 487 532 531
f 488 489 533
f 488 533 532
f 489 490 534
f 489 534 533
f 490 491 535
f 490 535 534
f 491 492 536
f 491 536 535
f 492 493 537
f 492 537 536
f 493 494 538
f 493 538 537
f 494 495 539
f 494 539 538
f 495 496 540
f 495 540 539
f 496 497 541
f 496 541 540
f 497 498 542
f 497 542 541
f 498 499 543
f 498 543 542
f 499 500 544
f 499 544 543
f 500 501 545
f 500 545 544
f 501 502 546
f 501 546 545
f 502 503 547
f 502 547 546
f 503 504 548
f 503 548 547
f 504 505 549
f 504 549 548
f 505 506 550
f 505 550 549
f 506 507 551
f 506 551 550
f 507 508 552
f 507 552 551
f 508 509 553
f 508 553 552
f 509 510 554
f 509 554 553
f 510 511 555
f 510 555 554
f 511 512 556
f 511 556 555
f 512 513 557
f 512 557 556
f 513 514 558
f 513 558 557
f 514 515 559
f 514 559 558
f 515 516 560
f 515 560 559
f 516 517 561
f 516 561 560
f 517 518 562
f 517 562 561
f 518 519 563
f 518 563 562
f 519 520 564
f 519 564 563
f 520 521 565
f 520 565 564
f 521 522 566
f 521 566 565
f 522 523 567
f 522 567 566
f 523 524 568
f 523 568 567
f 524 525 569
f 524 569 568
f 525 526 570
f 525 570 569
f 526 527 571
f 526 571 570
f 527 528 572
f 527 572 571
f 528 529 573
f 528 573 572
f 529 486 530
f 529 530 573
f 530 531 575
f 530 575 574
f 531 532 576
f 531 576 575
f 532 533 577
f 532 577 576
f 533 534 578
f 533 578 577
f 534 535 579
f 534 579 578
f 535 536 580
f 535 580 579
f 536 537 581
f 536 581 580
f 537 538 582
f 537 582 581
f 538 539 583
f 538 583 582
f 539 540 584
f 539 584 583
f 540 541 585
f 540 585 584
f 541 542 586
f 541 586 585
f 542 543 587
f 542 587 586
f 543 544 588
f 543 588 587
f 544 545 589
f 544 589 588
f 545 546 590
f 545 590 589
f 546 547 591
f 546 591 590
f 547 548 592
f 547 592 591
f 548 549 593
f 548 593 592
f 549 550 594
f 549 594 593
f 550 551 595
f 550 595 594
f 551 552 596
f 551 596 595
f 552 553 597
f 552 597 596
f 553 554 598
f 553 598 597
f 554 555 599
f 554 599 598
f 555 556 600
f 555 600 599
f 556 557 601
f 556 601 600
f 557 558 602
f 557 602 601
f 558 559 603
f 558 603 602
f 559 560 604
f 559 604 603
f 560 561 605
f 560 605 604
f 561 562 606
f 561 606 605
f 562 563 607
f 562 607 606
f 563 564 608
f 563 608 607
f 564 565 609
f 564 609 608
f 565 566 610
f 565 610 609
f 566 567 611
f 566 611 610
f 567 568 612
f 567 612 611
f 568 569 613
f 568 613 612
f 569 570 614
f 569 614 613
f 570 571 615
f 570 615 614
f 571 572 616
f 571 616 615
f 572 573 617
f 572 617 616
f 573 530 574
f 573 574 617
f 574 575 619
f 574 619 618
f 575 576 620
f 575 620 619
f 576 577 621
f 576 621 620
f 577 578 622
f 577 622 621
f 578 579 623
f 578 623 622
f 579 580 624
f 579 624 623
f 580 581 625
f 580 625 624
f 581 582 626
f 581 626 625
f 582 583 627
f 582 627 626
f 583 584 628
f 583 628 627
f 584 585 629
f 584 629 628
f 585 586 630
f 585 630 629
f 586 587 631
f 586 631 630
f 587 588 632
f 587 632 631
f 588 589 633
f 588 633 632
f 589 590 634
f 589 634 633
f 590 591 635
f 590 635 634
f 591 592 636
f 591 636 635
f 592 593 637
f 592 637 636
f 593 594 638
f 593 638 637
f 594 595 639
f 594 639 638
f 595 596 640
f 595 640 639
f 596 597 641
f 596 641 640
f 597 598 642
f 597 642 641
f 598 599 643
f 598 643 642
f 599 600 644
f 599 644 643
f 600 601 645
f 600 645 644
f 601 602 646
f 601 646 645
f 602 603 647
f 602 647 646
f 603 604 648
f 603 648 647
f 604 605 649
f 604 649 648
f 605 606 650
f 605 650 649
f 606 607 651
f 606 651 650
f 607 608 652
f 607 652 651
f 608 609 653
f 608 653 652
f 609 610 654
f 609 654 653
f 610 611 655
f 610 655 654
f 611 612 656
f 611 656 655
f 612 613 657
f 612 657 656
f 613 614 658
f 613 658 657
f 614 615 659
f 614 659 658
f 615 616 660
f 615 660 659
f 616 617 661
f 616 661 660
f 617 574 618
f 617 618 661
f 618 619 662
f 619 620 662
f 620 621 662
f 621 622 662
f 622 623 662
f 623 624 662
f 624 625 662
f 625 626 662
f 626 627 662
f 627 628 662
f 628 629 662
f 629 630 662
f 630 631 662
f 631 632 662
f 632 633 662
f 633 634 662
f 634 635 662
f 635 636 662
f 636 637 662
f 637 638 662
f 638 639 662
f 639 640 662
f 640 641 662
f 641 642 662
f 642 643 662
f 643 644 662
f 644 645 662
f 645 646 662
f 646 647 662
f 647 648 662
f 648 649 662
f 649 650 662
f 650 651 662
f 651 652 662
f 652 653 662
f 653 654 662
f 654 655 662
f 655 656 662
f 656 657 662
f 657 658 662
f 658 659 662
f 659 660 662
f 660 661 662
f 661 618 662

o regolith_1
v 0.00000000 0.00000000 -0.05000000 0.54117647 0.50196078 0.44705882
v 2.10000000 0.00000000 -0.05000000 0.54117647 0.50196078 0.44705882
v 2.10000000 0.00000000 0.00000000 0.54117647 0.50196078 0.44705882
v 0.00000000 0.00000000 0.00000000 0.54117647 0.50196078 0.44705882
v 2.08679564 0.23512540 -0.05000000 0.54117647 0.50196078 0.44705882
v 2.08679564 0.23512540 0.00000000 0.54117647 0.50196078 0.44705882
v 2.04734862 0.46729396 -0.05000000 0.54117647 0.50196078 0.44705882
v 2.04734862 0.46729396 0.00000000 0.54117647 0.50196078 0.44705882
v 1.98215499 0.69358603 -0.05000000 0.54117647 0.50196078 0.44705882
v 1.98215499 0.69358603 0.00000000 0.54117647 0.50196078 0.44705882
v 1.89203462 0.91115585 -0.05000000 0.54117647 0.50196078 0.44705882
v 1.89203462 0.91115585 0.00000000 0.54117647 0.50196078 0.44705882
v 1.77812082 1.11726736 -0.05000000 0.54117647 0.50196078 0.44705882
v 1.77812082 1.11726736 0.00000000 0.54117647 0.50196078 0.44705882
v 1.64184611 1.30932858 -0.05000000 0.54117647 0.50196078 0.44705882
v 1.64184611 1.30932858 0.00000000 0.54117647 0.50196078 0.44705882
v 1.48492424 1.48492424 -0.05000000 0.54117647 0.50196078 0.44705882
v 1.48492424 1.48492424 0.00000000 0.54117647 0.50196078 0.44705882
v 1.30932858 1.64184611 -0.05000000 0.54117647 0.50196078 0.44705882
v 1.30932858 1.64184611 0.00000000 0.54117647 0.50196078 0.44705882
v 1.11726736 1.77812082 -0.05000000 0.54117647 0.50196078 0.44705882
v 1.11726736 1.77812082 0.00000000 0.54117647 0.50196078 0.44705882
v 0.91115585 1.89203462 -0.05000000 0.54117647 0.50196078 0.44705882
v 0.91115585 1.89203462 0.00000000 0.54117647 0.50196078 0.44705882
v 0.69358603 1.98215499 -0.05000000 0.54117647 0.50196078 0.44705882
v 0.69358603 1.98215499 0.00000000 0.54117647 0.50196078 0.44705882
v 0.46729396 2.04734862 -0.05000000 0.54117647 0.50196078 0.44705882
v 0.46729396 2.04734862 0.00000000 0.54117647 0.50196078 0.44705882
v 0.23512540 2.08679564 -0.05000000 0.54117647 0.50196078 0.44705882
v 0.23512540 2.08679564 0.00000000 0.54117647 0.50196078 0.44705882
v 0.00000000 2.10000000 -0.05000000 0.54117647 0.50196078 0.44705882
v 0.00000000 2.10000000 0.00000000 0.54117647 0.50196078 0.44705882
v -0.23512540 2.08679564 -0.05000000 0.54117647 0.50196078 0.44705882
v -0.23512540 2.08679564 0.00000000 0.54117647 0.50196078 0.44705882
v -0.46729396 2.04734862 -0.05000000 0.54117647 0.50196078 0.44705882
v -0.46729396 2.04734862 0.00000000 0.54117647 0.50196078 0.44705882
v -0.69358603 1.98215499 -0.05000000 0.54117647 0.50196078 0.44705882
v -0.69358603 1.98215499 0.00000000 0.54117647 0.50196078 0.44705882
v -0.91115585 1.89203462 -0.05000000 0.54117647 0.50196078 0.44705882
v -0.91115585 1.89203462 0.00000000 0.54117647 0.50196078 0.44705882
v -1.11726736 1.77812082 -0.05000000 0.54117647 0.50196078 0.44705882
v -1.11726736 1.77812082 0.00000000 0.54117647 0.50196078 0.44705882
v -1.30932858 1.64184611 -0.05000000 0.54117647 0.50196078 0.44705882
v -1.30932858 1.64184611 0.00000000 0.54117647 0.50196078 0.44705882
v -1.48492424 1.48492424 -0.05000000 0.54117647 0.50196078 0.44705882
v -1.48492424 1.48492424 0.00000000 0.54117647 0.50196078 0.44705882
v -1.64184611 1.30932858 -0.05000000 0.54117647 0.50196078 0.44705882
v -1.64184611 1.30932858 0.00000000 0.54117647 0.50196078 0.44705882
v -1.77812082 1.11726736 -0.05000000 0.54117647 0.50196078 0.44705882
v -1.77812082 1.11726736 0.00000000 0.54117647 0.50196078 0.44705882
v -1.89203462 0.91115585 -0.05000000 0.54117647 0.50196078 0.44705882
v -1.89203462 0.91115585 0.00000000 0.54117647 0.50196078 0.44705882
v -1.98215499 0.69358603 -0.05000000 0.54117647 0.50196078 0.44705882
v -1.98215499 0.69358603 0.00000000 0.54117647 0.50196078 0.44705882
v -2.04734862 0.46729396 -0.05000000 0.54117647 0.50196078 0.44705882
v -2.04734862 0.46729396 0.00000000 0.54117647 0.50196078 0.44705882
v -2.08679564 0.23512540 -0.05000000 0.54117647 0.50196078 0.44705882
v -2.08679564 0.23512540 0.00000000 0.54117647 0.50196078 0.44705882
v -2.10000000 0.00000000 -0.05000000 0.54117647 0.50196078 0.44705882
v -2.10000000 0.00000000 0.00000000 0.54117647 0.50196078 0.44705882
v -2.08679564 -0.23512540 -0.05000000 0.54117647 0.50196078 0.44705882
v -2.08679564 -0.23512540 0.00000000 0.54117647 0.50196078 0.44705882
v -2.04734862 -0.46729396 -0.05000000 0.54117647 0.50196078 0.44705882
v -2.04734862 -0.46729396 0.00000000 0.54117647 0.50196078 0.44705882
v -1.98215499 -0.69358603 -0.05000000 0.54117647 0.50196078 0.44705882
v -1.98215499 -0.69358603 0.00000000 0.54117647 0.50196078 0.44705882
v -1.89203462 -0.91115585 -0.05000000 0.54117647 0.50196078 0.44705882
v -1.89203462 -0.91115585 0.00000000 0.54117647 0.50196078 0.44705882
v -1.77812082 -1.11726736 -0.05000000 0.54117647 0.50196078 0.44705882
v -1.77812082 -1.11726736 0.00000000 0.54117647 0.50196078 0.44705882
v -1.64184611 -1.30932858 -0.05000000 0.54117647 0.50196078 0.44705882
v -1.64184611 -1.30932858 0.00000000 0.54117647 0.50196078 0.44705882
v -1.48492424 -1.48492424 -0.05000000 0.54117647 0.50196078 0.44705882
v -1.48492424 -1.48492424 0.00000000 0.54117647 0.50196078 0.44705882
v -1.30932858 -1.64184611 -0.05000000 0.54117647 0.50196078 0.44705882
v -1.30932858 -1.64184611 0.00000000 0.54117647 0.50196078 0.44705882
v -1.11726736 -1.77812082 -0.05000000 0.54117647 0.50196078 0.44705882
v -1.11726736 -1.77812082 0.00000000 0.54117647 0.50196078 0.44705882
v -0.91115585 -1.89203462 -0.05000000 0.54117647 0.50196078 0.44705882
v -0.91115585 -1.89203462 0.00000000 0.54117647 0.50196078 0.44705882
v -0.69358603 -1.98215499 -0.05000000 0.54117647 0.50196078 0.44705882
v -0.69358603 -1.98215499 0.00000000 0.54117647 0.50196078 0.44705882
v -0.46729396 -2.04734862 -0.05000000 0.54117647 0.50196078 0.44705882
v -0.46729396 -2.04734862 0.00000000 0.54117647 0.50196078 0.44705882
v -0.23512540 -2.08679564 -0.05000000 0.54117647 0.50196078 0.44705882
v -0.23512540 -2.08679564 0.00000000 0.54117647 0.50196078 0.44705882
v -0.00000000 -2.10000000 -0.05000000 0.54117647 0.50196078 0.44705882
v -0.00000000 -2.10000000 0.00000000 0.54117647 0.50196078 0.44705882
v 0.23512540 -2.08679564 -0.05000000 0.54117647 0.50196078 0.44705882
v 0.23512540 -2.08679564 0.00000000 0.54117647 0.50196078 0.44705882
v 0.46729396 -2.04734862 -0.05000000 0.54117647 0.50196078 0.44705882
v 0.46729396 -2.04734862 0.00000000 0.54117647 0.50196078 0.44705882
v 0.69358603 -1.98215499 -0.05000000 0.54117647 0.50196078 0.44705882
v 0.69358603 -1.98215499 0.00000000 0.54117647 0.50196078 0.44705882
v 0.91115585 -1.89203462 -0.05000000 0.54117647 0.50196078 0.44705882
v 0.91115585 -1.89203462 0.00000000 0.54117647 0.50196078 0.44705882
v 1.11726736 -1.77812082 -0.05000000 0.54117647 0.50196078 0.44705882
v 1.11726736 -1.77812082 0.00000000 0.54117647 0.50196078 0.44705882
v 1.30932858 -1.64184611 -0.05000000 0.54117647 0.50196078 0.44705882
v 1.30932858 -1.64184611 0.00000000 0.54117647 0.50196078 0.44705882
v 1.48492424 -1.48492424 -0.05000000 0.54117647 0.50196078 0.44705882
v 1.48492424 -1.48492424 0.00000000 0.54117647 0.50196078 0.44705882
v 1.64184611 -1.30932858 -0.05000000 0.54117647 0.50196078 0.44705882
v 1.64184611 -1.30932858 0.00000000 0.54117647 0.50196078 0.44705882
v 1.77812082 -1.11726736 -0.05000000 0.54117647 0.50196078 0.44705882
v 1.77812082 -1.11726736 0.00000000 0.54117647 0.50196078 0.44705882
v 1.89203462 -0.91115585 -0.05000000 0.54117647 0.50196078 0.44705882
v 1.89203462 -0.91115585 0.00000000 0.54117647 0.50196078 0.44705882
v 1.98215499 -0.69358603 -0.05000000 0.54117647 0.50196078 0.44705882
v 1.98215499 -0.69358603 0.00000000 0.54117647 0.50196078 0.44705882
v 2.04734862 -0.46729396 -0.05000000 0.54117647 0.50196078 0.44705882
v 2.04734862 -0.46729396 0.00000000 0.54117647 0.50196078 0.44705882
v 2.08679564 -0.23512540 -0.05000000 0.54117647 0.50196078 0.44705882
v 2.08679564 -0.23512540 0.00000000 0.54117647 0.50196078 0.44705882
f 664 663 667
f 664 667 665
f 665 667 668
f 665 668 666
f 667 663 669
f 667 669 668
f 668 669 670
f 668 670 666
f 669 663 671
f 669 671 670
f 670 671 672
f 670 672 666
f 671 663 673
f 671 673 672
f 672 673 674
f 672 674 666
f 673 663 675
f 673 675 674
f 674 675 676
f 674 676 666
f 675 663 677
f 675 677 676
f 676 677 678
f 676 678 666
f 677 663 679
f 677 679 678
f 678 679 680
f 678 680 666
f 679 663 681
f 679 681 680
f 680 681 682
f 680 682 666
f 681 663 683
f 681 683 682
f 682 683 684
f 682 684 666
f 683 663 685
f 683 685 684
f 684 685 686
f 684 686 666
f 685 663 687
f 685 687 686
f 686 687 688
f 686 688 666
f 687 663 689
f 687 689 688
f 688 689 690
f 688 690 666
f 689 663 691
f 689 691 690
f 690 691 692
f 690 692 666
f 691 663 693
f 691 693 692
f 692 693 694
f 692 694 666
f 693 663 695
f 693 695 694
f 694 695 696
f 694 696 666
f 695 663 697
f 695 697 696
f 696 697 698
f 696 698 666
f 697 663 699
f 697 699 698
f 698 699 700
f 698 700 666
f 699 663 701
f 699 701 700
f 700 701 702
f 700 702 666
f 701 663 703
f 701 703 702
f 702 703 704
f 702 704 666
f 703 663 705
f 703 705 704
f 704 705 706
f 704 706 666
f 705 663 707
f 705 707 706
f 706 707 708
f 706 708 666
f 707 663 709
f 707 709 708
f 708 709 710
f 708 710 666
f 709 663 711
f 709 711 710
f 710 711 712
f 710 712 666
f 711 663 713
f 711 713 712
f 712 713 714
f 712 714 666
f 713 663 715
f 713 715 714
f 714 715 716
f 714 716 666
f 715 663 717
f 715 717 716
f 716 717 718
f 716 718 666
f 717 663 719
f 717 719 718
f 718 719 720
f 718 720 666
f 719 663 721
f 719 721 720
f 720 721 722
f 720 722 666
f 721 663 723
f 721 723 722
f 722 723 724
f 722 724 666
f 723 663 725
f 723 725 724
f 724 725 726
f 724 726 666
f 725 663 727
f 725 727 726
f 726 727 728
f 726 728 666
f 727 663 729
f 727 729 728
f 728 729 730
f 728 730 666
f 729 663 731
f 729 731 730
f 730 731 732
f 730 732 666
f 731 663 733
f 731 733 732
f 732 733 734
f 732 734 666
f 733 663 735
f 733 735 734
f 734 735 736
f 734 736 666
f 735 663 737
f 735 737 736
f 736 737 738
f 736 738 666
f 737 663 739
f 737 739 738
f 738 739 740
f 738 740 666
f 739 663 741
f 739 741 740
f 740 741 742
f 740 742 666
f 741 663 743
f 741 743 742
f 742 743 744
f 742 744 666
f 743 663 745
f 743 745 744
f 744 745 746
f 744 746 666
f 745 663 747
f 745 747 746
f 746 747 748
f 746 748 666
f 747 663 749
f 747 749 748
f 748 749 750
f 748 750 666
f 749 663 751
f 749 751 750
f 750 751 752
f 750 752 666
f 751 663 753
f 751 753 752
f 752 753 754
f 752 754 666
f 753 663 755
f 753 755 754
f 754 755 756
f 754 756 666
f 755 663 757
f 755 757 756
f 756 757 758
f 756 758 666
f 757 663 759
f 757 759 758
f 758 759 760
f 758 760 666
f 759 663 761
f 759 761 760
f 760 761 762
f 760 762 666
f 761 663 763
f 761 763 762
f 762 763 764
f 762 764 666
f 763 663 765
f 763 765 764
f 764 765 766
f 764 766 666
f 765 663 767
f 765 767 766
f 766 767 768
f 766 768 666
f 767 663 769
f 767 769 768
f 768 769 770
f 768 770 666
f 769 663 771
f 769 771 770
f 770 771 772
f 770 772 666
f 771 663 773
f 771 773 772
f 772 773 774
f 772 774 666
f 773 663 775
f 773 775 774
f 774 775 776
f 774 776 666
f 775 663 664
f 775 664 776
f 776 664 665
f 776 665 666

o light_shaft_2
v 0.00000000 0.00000000 0.00000000 0.30980392 0.83921569 0.81568627
v 0.04000000 0.00000000 0.00000000 0.30980392 0.83921569 0.81568627
v 0.04000000 0.00000000 0.60000000 0.30980392 0.83921569 0.81568627
v 0.00000000 0.00000000 0.60000000 0.30980392 0.83921569 0.81568627
v 0.03950753 0.00625738 0.00000000 0.30980392 0.83921569 0.81568627
v 0.03950753 0.00625738 0.60000000 0.30980392 0.83921569 0.81568627
v 0.03804226 0.01236068 0.00000000 0.30980392 0.83921569 0.81568627
v 0.03804226 0.01236068 0.60000000 0.30980392 0.83921569 0.81568627
v 0.03564026 0.01815962 0.00000000 0.30980392 0.83921569 0.81568627
v 0.03564026 0.01815962 0.60000000 0.30980392 0.83921569 0.81568627
v 0.03236068 0.02351141 0.00000000 0.30980392 0.83921569 0.81568627
v 0.03236068 0.02351141 0.60000000 0.30980392 0.83921569 0.81568627
v 0.02828427 0.02828427 0.00000000 0.30980392 0.83921569 0.81568627
v 0.02828427 0.02828427 0.60000000 0.30980392 0.83921569 0.81568627
v 0.02351141 0.03236068 0.00000000 0.30980392 0.83921569 0.81568627
v 0.02351141 0.03236068 0.60000000 0.30980392 0.83921569 0.81568627
v 0.01815962 0.03564026 0.00000000 0.30980392 0.83921569 0.81568627
v 0.01815962 0.03564026 0.60000000 0.30980392 0.83921569 0.81568627
v 0.01236068 0.03804226 0.00000000 0.30980392 0.83921569 0.81568627
v 0.01236068 0.03804226 0.60000000 0.30980392 0.83921569 0.81568627
v 0.00625738 0.03950753 0.00000000 0.30980392 0.83921569 0.81568627
v 0.00625738 0.03950753 0.60000000 0.30980392 0.83921569 0.81568627
v 0.00000000 0.04000000 0.00000000 0.30980392 0.83921569 0.81568627
v 0.00000000 0.04000000 0.60000000 0.30980392 0.83921569 0.81568627
v -0.00625738 0.03950753 0.00000000 0.30980392 0.83921569 0.81568627
v -0.00625738 0.03950753 0.60000000 0.30980392 0.83921569 0.81568627
v -0.01236068 0.03804226 0.00000000 0.30980392 0.83921569 0.81568627
v -0.01236068 0.03804226 0.60000000 0.30980392 0.83921569 0.81568627
v -0.01815962 0.03564026 0.00000000 0.30980392 0.83921569 0.81568627
v -0.01815962 0.03564026 0.60000000 0.30980392 0.83921569 0.81568627
v -0.02351141 0.03236068 0.00000000 0.30980392 0.83921569 0.81568627
v -0.02351141 0.03236068 0.60000000 0.30980392 0.83921569 0.81568627
v -0.02828427 0.02828427 0.00000000 0.30980392 0.83921569 0.81568627
v -0.02828427 0.02828427 0.60000000 0.30980392 0.83921569 0.81568627
v -0.03236068 0.02351141 0.00000000 0.30980392 0.83921569 0.81568627
v -0.03236068 0.02351141 0.60000000 0.30980392 0.83921569 0.81568627
v -0.03564026 0.01815962 0.00000000 0.30980392 0.83921569 0.81568627
v -0.03564026 0.01815962 0.60000000 0.30980392 0.83921569 0.81568627
v -0.03804226 0.01236068 0.00000000 0.30980392 0.83921569 0.81568627
v -0.03804226 0.01236068 0.60000000 0.30980392 0.83921569 0.81568627
v -0.03950753 0.00625738 0.00000000 0.30980392 0.83921569 0.81568627
v -0.03950753 0.00625738 0.60000000 0.30980392 0.83921569 0.81568627
v -0.04000000 0.00000000 0.00000000 0.30980392 0.83921569 0.81568627
v -0.04000000 0.00000000 0.60000000 0.30980392 0.83921569 0.81568627
v -0.03950753 -0.00625738 0.00000000 0.30980392 0.83921569 0.81568627
v -0.03950753 -0.00625738 0.60000000 0.30980392 0.83921569 0.81568627
v -0.03804226 -0.01236068 0.00000000 0.30980392 0.83921569 0.81568627
v -0.03804226 -0.01236068 0.60000000 0.30980392 0.83921569 0.81568627
v -0.03564026 -0.01815962 0.00000000 0.30980392 0.83921569 0.81568627
v -0.03564026 -0.01815962 0.60000000 0.30980392 0.83921569 0.81568627
v -0.03236068 -0.02351141 0.00000000 0.30980392 0.83921569 0.81568627
v -0.03236068 -0.02351141 0.60000000 0.30980392 0.83921569 0.81568627
v -0.02828427 -0.02828427 0.00000000 0.30980392 0.83921569 0.81568627
v -0.02828427 -0.02828427 0.60000000 0.30980392 0.83921569 0.81568627
v -0.02351141 -0.03236068 0.00000000 0.30980392 0.83921569 0.81568627
v -0.02351141 -0.03236068 0.60000000 0.30980392 0.83921569 0.81568627
v -0.01815962 -0.03564026 0.00000000 0.30980392 0.83921569 0.81568627
v -0.01815962 -0.03564026 0.60000000 0.30980392 0.83921569 0.81568627
v -0.01236068 -0.03804226 0.00000000 0.30980392 0.83921569 0.81568627
v -0.01236068 -0.03804226 0.60000000 0.30980392 0.83921569 0.81568627
v -0.00625738 -0.03950753 0.00000000 0.30980392 0.83921569 0.81568627
v -0.00625738 -0.03950753 0.60000000 0.30980392 0.83921569 0.81568627
v -0.00000000 -0.04000000 0.00000000 0.30980392 0.83921569 0.81568627
v -0.00000000 -0.04000000 0.60000000 0.30980392 0.83921569 0.81568627
v 0.00625738 -0.03950753 0.00000000 0.30980392 0.83921569 0.81568627
v 0.00625738 -0.03950753 0.60000000 0.30980392 0.83921569 0.81568627
v 0.01236068 -0.03804226 0.00000000 0.30980392 0.83921569 0.81568627
v 0.01236068 -0.03804226 0.60000000 0.30980392 0.83921569 0.81568627
v 0.01815962 -0.03564026 0.00000000 0.30980392 0.83921569 0.81568627
v 0.01815962 -0.03564026 0.60000000 0.30980392 0.83921569 0.81568627
v 0.02351141 -0.03236068 0.00000000 0.30980392 0.83921569 0.81568627
v 0.02351141 -0.03236068 0.60000000 0.30980392 0.83921569 0.81568627
v 0.02828427 -0.02828427 0.00000000 0.30980392 0.83921569 0.81568627
v 0.02828427 -0.02828427 0.60000000 0.30980392 0.83921569 0.81568627
v 0.03236068 -0.02351141 0.00000000 0.30980392 0.83921569 0.81568627
v 0.03236068 -0.02351141 0.60000000 0.30980392 0.83921569 0.81568627
v 0.03564026 -0.01815962 0.00000000 0.30980392 0.83921569 0.81568627
v 0.03564026 -0.01815962 0.60000000 0.30980392 0.83921569 0.81568627
v 0.03804226 -0.01236068 0.00000000 0.30980392 0.83921569 0.81568627
v 0.03804226 -0.01236068 0.60000000 0.30980392 0.83921569 0.81568627
v 0.03950753 -0.00625738 0.00000000 0.30980392 0.83921569 0.81568627
v 0.03950753 -0.00625738 0.60000000 0.30980392 0.83921569 0.81568627
f 778 777 781
f 778 781 779
f 779 781 782
f 779 782 780
f 781 777 783
f 781 783 782
f 782 783 784
f 782 784 780
f 783 777 785
f 783 785 784
f 784 785 786
f 784 786 780
f 785 777 787
f 785 787 786
f 786 787 788
f 786 788 780
f 787 777 789
f 787 789 788
f 788 789 790
f 788 790 780
f 789 777 791
f 789 791 790
f 790 791 792
f 790 792 780
f 791 777 793
f 791 793 792
f 792 793 794
f 792 794 780
f 793 777 795
f 793 795 794
f 794 795 796
f 794 796 780
f 795 777 797
f 795 797 796
f 796 797 798
f 796 798 780
f 797 777 799
f 797 799 798
f 798 799 800
f 798 800 780
f 799 777 801
f 799 801 800
f 800 801 802
f 800 802 780
f 801 777 803
f 801 803 802
f 802 803 804
f 802 804 780
f 803 777 805
f 803 805 804
f 804 805 806
f 804 806 780
f 805 777 807
f 805 807 806
f 806 807 808
f 806 808 780
f 807 777 809
f 807 809 808
f 808 809 810
f 808 810 780
f 809 777 811
f 809 811 810
f 810 811 812
f 810 812 780
f 811 777 813
f 811 813 812
f 812 813 814
f 812 814 780
f 813 777 815
f 813 815 814
f 814 815 816
f 814 816 780
f 815 777 817
f 815 817 816
f 816 817 818
f 816 818 780
f 817 777 819
f 817 819 818
f 818 819 820
f 818 820 780
f 819 777 821
f 819 821 820
f 820 821 822
f 820 822 780
f 821 777 823
f 821 823 822
f 822 823 824
f 822 824 780
f 823 777 825
f 823 825 824
f 824 825 826
f 824 826 780
f 825 777 827
f 825 827 826
f 826 827 828
f 826 828 780
f 827 777 829
f 827 829 828
f 828 829 830
f 828 830 780
f 829 777 831
f 829 831 830
f 830 831 832
f 830 832 780
f 831 777 833
f 831 833 832
f 832 833 834
f 832 834 780
f 833 777 835
f 833 835 834
f 834 835 836
f 834 836 780
f 835 777 837
f 835 837 836
f 836 837 838
f 836 838 780
f 837 777 839
f 837 839 838
f 838 839 840
f 838 840 780
f 839 777 841
f 839 841 840
f 840 841 842
f 840 842 780
f 841 777 843
f 841 843 842
f 842 843 844
f 842 844 780
f 843 777 845
f 843 845 844
f 844 845 846
f 844 846 780
f 845 777 847
f 845 847 846
f 846 847 848
f 846 848 780
f 847 777 849
f 847 849 848
f 848 849 850
f 848 850 780
f 849 777 851
f 849 851 850
f 850 851 852
f 850 852 780
f 851 777 853
f 851 853 852
f 852 853 854
f 852 854 780
f 853 777 855
f 853 855 854
f 854 855 856
f 854 856 780
f 855 777 857
f 855 857 856
f 856 857 858
f 856 858 780
f 857 777 778
f 857 778 858
f 858 778 779
f 858 779 780

